<svg width="415" height="99" viewBox="0 0 415 99" fill="none" xmlns="http://www.w3.org/2000/svg">
<path d="M54.18 77.1H39.78V17.9H54.18C62.13 17.9 68.58 24.35 68.58 32.3V62.7C68.58 70.65 62.13 77.1 54.18 77.1Z" fill="#22295C"/>
<path d="M22.18 46.7H21.66C14 46.7 7.78003 40.49 7.78003 32.82V32.3C7.78003 24.35 14.23 17.9 22.18 17.9H36.58V32.3C36.58 40.25 30.13 46.7 22.18 46.7Z" fill="#FEB101"/>
<path d="M36.58 77.1H22.18C14.23 77.1 7.78003 70.6501 7.78003 62.7001C7.78003 54.7501 14.23 48.3 22.18 48.3H36.58V77.1Z" fill="#0093D1"/>
<path d="M116.87 17.28L137.02 69.24C137.8 71.13 138.63 72.47 139.52 73.28C140.41 74.09 141.21 74.52 141.93 74.57V76.21C139.93 76.1 137.6 76.03 134.93 76C132.26 75.97 129.54 75.96 126.77 75.96C124 75.96 121.27 75.97 118.77 76C116.27 76.03 114.27 76.1 112.77 76.21V74.47C115.59 74.36 117.37 73.88 118.12 73.02C118.87 72.16 118.69 70.33 117.58 67.51L104.31 30.78L105.97 27.88L94.53 57.65C93.15 61.24 92.3 64.13 92 66.31C91.7 68.49 91.82 70.17 92.37 71.33C92.92 72.49 93.81 73.29 95.02 73.73C96.24 74.17 97.67 74.42 99.33 74.48V76.23C97.27 76.12 95.42 76.05 93.78 76.02C92.14 75.99 90.34 75.98 88.4 75.98C87.34 75.98 86.22 75.99 85.02 76.02C83.82 76.05 82.81 76.12 81.97 76.23V74.59C83.25 74.37 84.51 73.55 85.76 72.13C87.01 70.71 88.3 68.29 89.63 64.84L108.11 17.3C109.44 17.41 110.9 17.47 112.48 17.47C114.06 17.47 115.52 17.42 116.85 17.3L116.87 17.28ZM119.82 52.23V53.87H95.41L96.23 52.23H119.82Z" fill="#3D3D3D"/>
<path d="M173.48 31.85C175.48 31.85 177.03 32.28 178.14 33.14C179.25 34 180.03 35.08 180.47 36.39C180.91 37.7 181.14 38.99 181.14 40.26C181.14 42.76 180.43 44.74 179.02 46.21C177.6 47.68 175.76 48.42 173.48 48.42C171.04 48.42 169.19 47.87 167.94 46.75C166.69 45.64 166.07 44.2 166.07 42.42C166.07 40.53 166.47 38.98 167.28 37.76C168.08 36.54 169.1 35.51 170.32 34.68C169.32 34.68 168.43 34.88 167.65 35.26C166.98 35.54 166.34 35.93 165.73 36.43C165.12 36.93 164.59 37.5 164.15 38.14C163.71 38.78 163.36 39.49 163.11 40.26C162.86 41.04 162.74 41.84 162.74 42.68V67.61C162.74 70.29 163.3 72.11 164.42 73.06C165.54 74.01 167.38 74.48 169.95 74.48V76.2C168.67 76.15 166.77 76.08 164.24 75.99C161.71 75.91 159.11 75.87 156.44 75.87C153.94 75.87 151.41 75.91 148.85 75.99C146.29 76.07 144.37 76.14 143.09 76.2V74.45C144.78 74.45 145.97 74.03 146.65 73.2C147.33 72.37 147.67 70.79 147.67 68.46V42.09C147.67 39.59 147.34 37.75 146.69 36.56C146.03 35.37 144.83 34.77 143.09 34.77V33.02C144.87 33.19 146.59 33.27 148.25 33.27C151.03 33.27 153.62 33.17 156.04 32.98C158.46 32.79 160.69 32.49 162.74 32.11V38.11C163.46 36.67 164.35 35.49 165.41 34.57C166.46 33.65 167.67 32.97 169.03 32.53C170.39 32.09 171.87 31.86 173.49 31.86L173.48 31.85Z" fill="#3D3D3D"/>
<path d="M202.38 19.59V33.07H210.57V34.71H202.38V69.24C202.38 70.29 202.57 71.06 202.96 71.53C203.35 72 203.98 72.24 204.86 72.24C205.47 72.24 206.19 72.06 207.01 71.7C207.84 71.34 208.61 70.72 209.33 69.83L210.57 70.83C209.41 72.83 207.88 74.42 205.97 75.61C204.07 76.8 201.68 77.4 198.81 77.4C196.99 77.4 195.35 77.16 193.88 76.69C192.42 76.22 191.22 75.51 190.28 74.57C189.06 73.35 188.29 71.84 187.96 70.04C187.63 68.24 187.46 65.89 187.46 63.01V34.72H181.07V33.08H187.46V23.26C190.39 23.26 193.05 22.97 195.45 22.39C197.85 21.81 200.16 20.88 202.36 19.6L202.38 19.59Z" fill="#3D3D3D"/>
<path d="M231.86 32.11V68.52C231.86 70.81 232.2 72.37 232.88 73.19C233.56 74.01 234.75 74.42 236.44 74.42V76.21C235.33 76.16 233.67 76.09 231.46 76C229.25 75.92 226.98 75.88 224.65 75.88C222.32 75.88 219.97 75.92 217.59 76C215.21 76.08 213.41 76.15 212.19 76.21V74.46C213.88 74.46 215.07 74.04 215.75 73.21C216.43 72.38 216.77 70.8 216.77 68.47V42.1C216.77 39.6 216.44 37.76 215.79 36.57C215.13 35.38 213.93 34.78 212.19 34.78V33.03C213.97 33.2 215.69 33.28 217.35 33.28C220.13 33.28 222.72 33.18 225.14 32.99C227.56 32.8 229.79 32.5 231.84 32.12L231.86 32.11ZM223.89 11.15C226.77 11.15 229.01 11.75 230.59 12.94C232.17 14.13 232.96 15.92 232.96 18.31C232.96 20.7 232.17 22.48 230.59 23.68C229.01 24.87 226.78 25.47 223.89 25.47C221 25.47 218.77 24.87 217.19 23.68C215.61 22.49 214.82 20.7 214.82 18.31C214.82 15.92 215.61 14.14 217.19 12.94C218.77 11.75 221 11.15 223.89 11.15Z" fill="#3D3D3D"/>
<path d="M257.17 31.8301C259.61 31.8301 261.75 32.0901 263.61 32.6201C265.47 33.1501 266.81 33.6301 267.64 34.0701C269.58 35.2301 270.77 34.5101 271.21 31.9101H272.89C272.78 33.5101 272.7 35.4601 272.64 37.7501C272.58 40.0401 272.56 43.0601 272.56 46.8201H270.94C270.72 44.7601 270.23 42.7301 269.48 40.7201C268.73 38.7201 267.64 37.0501 266.22 35.7101C264.8 34.3701 262.95 33.7101 260.67 33.7101C259.28 33.7101 258.11 34.1301 257.16 34.9601C256.21 35.7901 255.74 36.9401 255.74 38.3801C255.74 40.0501 256.24 41.5401 257.24 42.8501C258.24 44.1601 259.52 45.4101 261.08 46.6101C262.64 47.8101 264.2 49.0701 265.76 50.4101C267.48 51.8001 269.02 53.1601 270.35 54.5001C271.69 55.8401 272.76 57.3001 273.56 58.8801C274.37 60.4701 274.77 62.3401 274.77 64.5201C274.77 67.0201 274 69.2501 272.47 71.2001C270.94 73.1501 268.91 74.6601 266.37 75.7501C263.84 76.8401 261.01 77.3801 257.9 77.3801C255.95 77.3801 254.25 77.1701 252.81 76.7501C251.36 76.3301 250.19 75.8501 249.3 75.2901C248.41 74.8501 247.64 74.5001 247 74.2501C246.36 74.0001 245.73 73.8701 245.12 73.8701C244.56 73.8701 244.09 74.1601 243.7 74.7501C243.31 75.3301 243 76.0201 242.78 76.8001H241.17C241.28 75.0201 241.36 72.8501 241.42 70.2801C241.47 67.7201 241.5 64.3201 241.5 60.0901H243.18C243.51 63.0301 244.16 65.6301 245.13 67.9001C246.1 70.1701 247.35 71.9601 248.87 73.2601C250.39 74.5601 252.15 75.2101 254.15 75.2101C255.04 75.2101 255.84 75.0401 256.56 74.7101C257.28 74.3801 257.86 73.8801 258.31 73.2101C258.75 72.5501 258.97 71.6901 258.97 70.6301C258.97 68.1901 258.23 66.1401 256.77 64.4801C255.3 62.8201 253.46 60.9901 251.24 58.9901C249.58 57.4401 248.01 55.9301 246.54 54.4601C245.07 52.9901 243.87 51.3901 242.92 49.6401C241.98 47.9001 241.51 45.9401 241.51 43.7801C241.51 41.2901 242.24 39.1501 243.71 37.3801C245.18 35.6101 247.1 34.2401 249.49 33.2701C251.87 32.3001 254.42 31.8201 257.14 31.8201L257.17 31.8301Z" fill="#3D3D3D"/>
<path d="M298.2 19.59V33.07H306.39V34.71H298.2V69.24C298.2 70.29 298.39 71.06 298.78 71.53C299.17 72 299.8 72.24 300.68 72.24C301.29 72.24 302.01 72.06 302.83 71.7C303.66 71.34 304.43 70.72 305.15 69.83L306.39 70.83C305.23 72.83 303.7 74.42 301.79 75.61C299.88 76.8 297.5 77.4 294.63 77.4C292.81 77.4 291.17 77.16 289.7 76.69C288.24 76.22 287.04 75.51 286.1 74.57C284.88 73.35 284.11 71.84 283.78 70.04C283.45 68.24 283.28 65.89 283.28 63.01V34.72H276.89V33.08H283.28V23.26C286.21 23.26 288.87 22.97 291.27 22.39C293.67 21.81 295.98 20.88 298.18 19.6L298.2 19.59Z" fill="#3D3D3D"/>
<path d="M327.69 32.11V68.52C327.69 70.81 328.03 72.37 328.71 73.19C329.39 74.01 330.58 74.42 332.27 74.42V76.21C331.16 76.16 329.5 76.09 327.29 76C325.08 75.92 322.81 75.88 320.48 75.88C318.15 75.88 315.8 75.92 313.42 76C311.04 76.08 309.24 76.15 308.02 76.21V74.46C309.77 74.46 311 74.04 311.71 73.21C312.42 72.38 312.77 70.8 312.77 68.47V42.1C312.77 39.6 312.43 37.76 311.75 36.57C311.07 35.38 309.83 34.78 308.02 34.78V33.03C309.8 33.2 311.52 33.28 313.18 33.28C315.96 33.28 318.55 33.18 320.97 32.99C323.39 32.8 325.62 32.5 327.67 32.12L327.69 32.11ZM319.73 11.15C322.61 11.15 324.85 11.75 326.43 12.94C328.01 14.13 328.8 15.92 328.8 18.31C328.8 20.7 328.01 22.48 326.43 23.68C324.85 24.87 322.62 25.47 319.73 25.47C316.84 25.47 314.61 24.87 313.03 23.68C311.45 22.49 310.66 20.7 310.66 18.31C310.66 15.92 311.45 14.14 313.03 12.94C314.61 11.75 316.84 11.15 319.73 11.15Z" fill="#3D3D3D"/>
<path d="M358.37 11.4401C360.59 11.4401 362.5 11.7101 364.12 12.2601C365.73 12.8101 367.14 13.5401 368.37 14.4701C369.15 15.0701 369.85 15.9601 370.49 17.1301C371.13 18.3001 371.45 19.6801 371.45 21.2701C371.45 22.9601 370.81 24.4901 369.53 25.8601C368.25 27.2301 366.59 27.9101 364.53 27.9101C362.25 27.9101 360.44 27.3101 359.08 26.1101C357.72 24.9101 357.04 23.2401 357.04 21.1101C357.04 19.5301 357.51 18.0701 358.46 16.7301C359.4 15.3901 360.85 14.4201 362.79 13.8201C362.62 13.6001 362.36 13.4201 362 13.2901C361.64 13.1501 361.15 13.0901 360.54 13.0901C359.6 13.0901 358.82 13.2301 358.21 13.5001C357.6 13.7701 357.07 14.1601 356.63 14.6501C356.13 15.2501 355.74 16.1001 355.46 17.1901C355.18 18.2801 355.04 19.9201 355.04 22.1001V33.0701H363.89V34.7101H355.04V67.5701C355.04 70.2901 355.68 72.1001 356.97 73.0201C358.25 73.94 360.01 74.3901 362.25 74.3901V76.2101C360.7 76.16 358.55 76.09 355.78 76.0001C353.02 75.9201 350.09 75.8801 346.99 75.8801C344.78 75.8801 342.6 75.9201 340.44 76.0001C338.28 76.0801 336.65 76.1501 335.55 76.2101V74.3901C337.24 74.3901 338.43 73.9701 339.11 73.1401C339.79 72.3101 340.13 70.7301 340.13 68.4001V34.7001H335.05V33.0601H340.05C340.05 29.8401 340.24 27.1601 340.63 25.0301C341.02 22.9001 341.64 21.0901 342.5 19.5801C343.36 18.0801 344.51 16.7301 345.96 15.5301C347.24 14.4401 348.98 13.4801 351.21 12.6601C353.43 11.8401 355.82 11.4301 358.37 11.4301V11.4401Z" fill="#3D3D3D"/>
<path d="M407.78 33.03V34.76C406.73 35.15 405.71 35.91 404.74 37.05C403.77 38.19 402.81 40.12 401.87 42.84L391.46 73.81L387.21 83.55L367.23 39.43C366.29 37.32 365.4 36.02 364.57 35.52C363.74 35.02 363.02 34.77 362.41 34.77V33.04C364.64 33.21 366.95 33.33 369.34 33.42C371.73 33.5 373.96 33.55 376.02 33.55C378.64 33.55 380.89 33.5 382.78 33.38C384.67 33.27 386.45 33.16 388.12 33.05V34.76C387.12 34.76 386.17 34.82 385.28 34.93C384.39 35.04 383.75 35.31 383.36 35.72C382.97 36.14 383 36.87 383.44 37.93L394.11 63.28L393.19 63.95L397.19 51.69C398.47 47.91 399.01 44.8 398.82 42.35C398.62 39.9 397.97 38.06 396.86 36.8C395.75 35.55 394.36 34.87 392.69 34.76V33.05C393.46 33.11 394.4 33.16 395.51 33.22C396.61 33.28 397.7 33.32 398.78 33.34C399.86 33.37 400.73 33.38 401.39 33.38C402.38 33.38 403.54 33.35 404.87 33.3C406.2 33.25 407.16 33.16 407.77 33.05L407.78 33.03ZM391.53 73.79L388.04 83.86C387.54 85.25 387 86.44 386.42 87.44C385.84 88.44 385.16 89.24 384.38 89.85C383.66 90.4 382.7 90.88 381.51 91.26C380.32 91.65 378.69 91.84 376.64 91.84C375.09 91.84 373.44 91.59 371.69 91.09C369.94 90.59 368.44 89.77 367.2 88.64C365.95 87.5 365.33 85.96 365.33 84.02C365.33 82.08 366.08 80.53 367.58 79.36C369.08 78.19 371.05 77.61 373.49 77.61C375.76 77.61 377.58 78.12 378.94 79.15C380.3 80.18 380.98 81.71 380.98 83.77C380.98 84.99 380.55 86.21 379.69 87.43C378.83 88.65 377.46 89.56 375.57 90.18C376.01 90.23 376.51 90.28 377.07 90.3C377.62 90.33 378.07 90.34 378.4 90.34C380.17 90.34 381.76 89.8 383.14 88.72C384.53 87.64 385.58 85.96 386.3 83.69L389.21 74.62L391.54 73.79H391.53Z" fill="#3D3D3D"/>
</svg>
