<svg width="300" height="199" viewBox="0 0 300 199" fill="none" xmlns="http://www.w3.org/2000/svg">
<g clip-path="url(#clip0_5_28144)">
<path d="M288.273 132.963C286.107 135.329 283.421 137.091 280.505 138.459H280.502C280.228 138.589 279.953 138.716 279.675 138.835H279.672L279.668 138.839L279.665 138.835H279.661L279.661 138.837L279.66 138.838L279.659 138.839L279.658 138.839H279.654L279.651 138.835C279.647 138.839 279.647 138.839 279.644 138.835L279.64 138.839L279.637 138.835H279.633C279.63 138.839 279.63 138.839 279.626 138.835H279.623C277.671 139.679 275.667 140.396 273.623 140.981C261.604 144.39 248.971 145.05 236.661 142.911C236.426 142.869 236.194 142.827 235.958 142.784V114.262C236.19 114.164 236.426 114.065 236.661 113.97C238.198 113.334 239.754 112.749 241.328 112.215C243.592 111.442 245.889 110.778 248.217 110.225C255.812 108.387 263.648 107.753 271.44 108.347C272.857 108.453 274.271 108.605 275.681 108.804C278.631 109.216 281.726 109.933 284.447 111.178H284.451C284.848 111.364 285.239 111.558 285.625 111.765C288.045 113.077 290.084 114.881 291.329 117.353C291.776 118.241 292.098 119.186 292.286 120.163V120.17C292.356 120.507 292.405 120.848 292.444 121.186C292.887 125.35 291.16 129.805 288.273 132.963Z" fill="#54B7E0"/>
<path d="M292.444 121.186C292.409 121.195 292.374 121.199 292.338 121.2C286.315 121.464 280.299 121.855 274.292 122.375H274.281C274.257 122.378 274.235 122.378 274.211 122.382C268.043 122.916 261.888 123.586 255.746 124.39C255.485 124.425 255.229 124.46 254.972 124.492C250.724 125.058 246.484 125.686 242.253 126.377C240.385 126.682 238.522 127.001 236.661 127.333C236.426 127.375 236.194 127.414 235.958 127.46V126.394C236.194 126.348 236.429 126.31 236.661 126.267C242.858 125.17 249.075 124.213 255.313 123.395C256.881 123.184 258.452 122.984 260.025 122.797C264.568 122.248 269.119 121.775 273.676 121.376C274.01 121.348 274.341 121.32 274.675 121.292C280.509 120.796 286.351 120.42 292.201 120.163C292.23 120.162 292.258 120.164 292.286 120.17C292.848 120.219 292.968 121.063 292.444 121.186Z" fill="white"/>
<path d="M279.934 137.799C272.43 137.854 265.037 134.672 259.729 129.406C258.231 127.914 256.912 126.253 255.796 124.458C255.438 123.884 254.601 124.517 254.956 125.086C259.078 131.697 265.945 136.406 273.516 138.138C275.666 138.625 277.865 138.86 280.069 138.839C280.742 138.834 280.603 137.794 279.934 137.799Z" fill="white"/>
<path d="M248.217 110.225C248.184 110.324 248.127 110.413 248.05 110.482C247.973 110.552 247.879 110.6 247.777 110.622C246.057 111.073 244.396 111.722 242.826 112.557C240.533 113.767 238.452 115.341 236.661 117.216C236.566 117.311 236.475 117.406 236.387 117.504C236.239 117.659 236.099 117.817 235.958 117.979V116.446C236.183 116.207 236.419 115.971 236.661 115.746C238.075 114.393 239.641 113.208 241.328 112.215C243.592 111.442 245.889 110.778 248.217 110.225Z" fill="white"/>
<path d="M285.069 110.901C280.296 112.953 276.302 116.474 273.668 120.953C273.615 121.081 273.614 121.225 273.666 121.354C273.719 121.483 273.819 121.585 273.947 121.64C274.075 121.691 274.218 121.69 274.346 121.638C274.474 121.587 274.577 121.487 274.634 121.362C277.148 117.131 280.94 113.809 285.464 111.873C286.084 111.608 285.691 110.635 285.069 110.901Z" fill="white"/>
<path d="M299.459 81.0345C298.643 84.1361 297.079 86.9458 295.134 89.5093L295.131 89.5129C294.951 89.752 294.765 89.9946 294.571 90.2267V90.2302C293.221 91.8935 291.764 93.4664 290.207 94.9388C284.614 100.269 278.296 104.783 271.44 108.347C260.655 113.981 248.6 117.311 236.661 117.501C236.57 117.504 236.479 117.504 236.387 117.504C236.243 117.508 236.099 117.508 235.958 117.508V101.525C236.187 101.089 236.422 100.653 236.661 100.221C239.764 94.638 243.547 89.462 247.925 84.8113C248.03 84.6952 248.139 84.5792 248.248 84.4667C249.894 82.7295 251.619 81.0756 253.425 79.5049C260.369 73.3989 268.395 68.646 277.087 65.4915C279.89 64.4858 282.963 63.6806 285.952 63.5223C286.392 63.4977 286.828 63.4871 287.268 63.4906C290.021 63.5293 292.662 64.1799 294.916 65.7905C295.723 66.3702 296.447 67.0576 297.068 67.8335C297.286 68.1043 297.487 68.3821 297.68 68.667V68.6705C300.008 72.1518 300.55 76.8956 299.459 81.0345Z" fill="#54B7E0"/>
<path d="M297.68 68.667V68.6705C297.654 68.6933 297.626 68.7133 297.596 68.7303C292.391 71.7581 287.252 74.896 282.179 78.144C282.172 78.1476 282.169 78.1511 282.162 78.1546C282.141 78.1688 282.12 78.1817 282.098 78.1933C276.883 81.534 271.742 84.9872 266.675 88.5529C266.464 88.7006 266.249 88.8518 266.035 89.003C262.536 91.4751 259.073 94 255.647 96.5776C249.177 101.452 242.848 106.506 236.661 111.741C236.426 111.938 236.194 112.138 235.958 112.339V110.971C236.19 110.77 236.426 110.57 236.661 110.373C239.032 108.372 241.423 106.399 243.835 104.455C244.556 103.874 245.28 103.294 246.005 102.721C252.44 97.5974 259.02 92.6649 265.743 87.9235H265.747C267.069 86.9916 268.393 86.0679 269.72 85.1525C273.49 82.5573 277.302 80.0242 281.156 77.5533C281.434 77.3739 281.715 77.1946 281.996 77.0152C286.93 73.8644 291.928 70.8168 296.991 67.8723C297.015 67.8573 297.041 67.8443 297.068 67.8336C297.596 67.6226 298.091 68.3189 297.68 68.667Z" fill="white"/>
<path d="M294.321 89.1905C287.701 92.7252 279.676 93.3416 272.529 91.1431C270.51 90.5177 268.57 89.6605 266.748 88.5885C266.165 88.2466 265.717 89.1957 266.296 89.5347C273.017 93.4745 281.286 94.4553 288.794 92.4721C290.925 91.9048 292.981 91.0916 294.924 90.0489C295.517 89.7319 294.911 88.8757 294.321 89.1905Z" fill="white"/>
<path d="M244.792 102.057C244.464 100.216 244.352 98.3433 244.457 96.4765C244.694 92.2189 245.998 88.0893 248.248 84.4674C249.896 82.7308 251.622 81.0766 253.426 79.5048C253.443 79.6076 253.433 79.713 253.396 79.8107C253.36 79.9085 253.299 79.9951 253.22 80.0621C251.907 81.2602 250.737 82.6063 249.734 84.0736C246.151 89.3027 244.753 95.7245 245.837 101.97C245.855 102.041 245.854 102.115 245.834 102.185C245.815 102.256 245.778 102.32 245.727 102.372C245.651 102.437 245.56 102.482 245.463 102.501C245.365 102.521 245.264 102.514 245.169 102.482C245.075 102.451 244.99 102.395 244.924 102.32C244.858 102.245 244.812 102.155 244.792 102.057Z" fill="white"/>
<path d="M286.374 62.9851C283.099 67.0194 281.198 71.9933 280.947 77.183C280.959 77.3212 281.025 77.4491 281.131 77.5387C281.237 77.6284 281.374 77.6727 281.513 77.662C281.65 77.6472 281.776 77.5802 281.865 77.4749C281.955 77.3695 282 77.2338 281.992 77.096C282.252 72.1822 284.067 67.4783 287.174 63.6625C287.601 63.1393 286.801 62.4609 286.374 62.9851Z" fill="white"/>
<path d="M249.957 74.5396V74.5431C249.933 74.8456 249.905 75.1444 249.873 75.4434V75.4504C249.628 77.578 249.247 79.6876 248.73 81.766C248.484 82.7858 248.217 83.7986 247.925 84.8113C247.89 84.9415 247.851 85.0716 247.812 85.1982V85.2017C246.953 88.1471 245.927 91.0412 244.739 93.8699C242.552 99.0777 239.846 104.052 236.661 108.717C236.433 109.058 236.197 109.399 235.958 109.736V54.6678C236.194 54.6537 236.426 54.6537 236.661 54.6607C236.774 54.6607 236.886 54.6643 236.999 54.6713C237.991 54.7234 238.971 54.914 239.911 55.2375C240.241 55.3465 240.561 55.4696 240.878 55.6067C244.714 57.2876 247.728 60.994 249.036 65.0696C250.017 68.122 250.214 71.3325 249.957 74.5396Z" fill="#54B7E0"/>
<path d="M240.878 55.6066C240.87 55.6411 240.856 55.6742 240.839 55.7051C239.415 58.4726 238.022 61.2542 236.661 64.0498C236.426 64.5315 236.19 65.0168 235.958 65.4986V63.1073C236.19 62.6291 236.425 62.1508 236.661 61.6726C237.713 59.5416 238.782 57.42 239.869 55.3077C239.88 55.283 239.895 55.2595 239.911 55.2374C240.234 54.7732 241.036 55.0897 240.878 55.6066Z" fill="white"/>
<path d="M250.07 75.1057C250.007 75.2183 249.943 75.3308 249.873 75.4433C248.84 77.2428 247.611 78.9222 246.209 80.4509C243.515 83.3737 240.27 85.7363 236.661 87.403C236.429 87.5155 236.194 87.621 235.958 87.7195V86.5766C236.194 86.4711 236.429 86.3621 236.661 86.2496C241.885 83.7579 246.224 79.7316 249.099 74.7084C249.141 74.6367 249.197 74.5747 249.265 74.5267C249.332 74.4786 249.409 74.4457 249.491 74.43C249.572 74.4143 249.656 74.4163 249.736 74.4358C249.817 74.4553 249.892 74.4919 249.957 74.5431C250.002 74.5726 250.04 74.6106 250.07 74.6549C250.099 74.6992 250.12 74.7488 250.13 74.8011C250.141 74.8534 250.141 74.9072 250.13 74.9594C250.12 75.0117 250.099 75.0614 250.07 75.1057Z" fill="white"/>
<path d="M236.661 11.6045V38.33H235.958V38.0452H0.703303V38.33H0V11.6045C0.00302011 8.52772 1.2266 5.57782 3.40221 3.40221C5.57782 1.2266 8.52772 0.00302011 11.6045 0H225.057C228.134 0.00302011 231.084 1.2266 233.259 3.40221C235.435 5.57782 236.658 8.52772 236.661 11.6045Z" fill="#915BA4"/>
<path d="M225.057 0H11.6045C8.52772 0.00302011 5.57782 1.2266 3.40221 3.40221C1.2266 5.57782 0.00302011 8.52772 0 11.6045V164.221C0.00302011 167.298 1.2266 170.248 3.40221 172.424C5.57782 174.599 8.52772 175.823 11.6045 175.826H225.057C228.134 175.823 231.084 174.599 233.259 172.424C235.435 170.248 236.658 167.298 236.661 164.221V11.6045C236.658 8.52772 235.435 5.57782 233.259 3.40221C231.084 1.2266 228.134 0.00302011 225.057 0ZM235.958 164.221C235.954 167.111 234.805 169.882 232.761 171.925C230.718 173.969 227.947 175.119 225.057 175.122H11.6045C8.71445 175.119 5.94383 173.969 3.90026 171.925C1.85669 169.882 0.70699 167.111 0.703303 164.221V11.6045C0.70699 8.71445 1.85669 5.94384 3.90026 3.90026C5.94383 1.85669 8.71445 0.70699 11.6045 0.703303H225.057C227.947 0.706991 230.718 1.85669 232.761 3.90026C234.805 5.94384 235.954 8.71445 235.958 11.6045V164.221Z" fill="#3F3D56"/>
<path d="M47.8246 26.198C51.7088 26.198 54.8576 23.0492 54.8576 19.165C54.8576 15.2808 51.7088 12.132 47.8246 12.132C43.9404 12.132 40.7916 15.2808 40.7916 19.165C40.7916 23.0492 43.9404 26.198 47.8246 26.198Z" fill="white"/>
<path d="M188.837 26.198C192.721 26.198 195.87 23.0492 195.87 19.165C195.87 15.2808 192.721 12.132 188.837 12.132C184.953 12.132 181.804 15.2808 181.804 19.165C181.804 23.0492 184.953 26.198 188.837 26.198Z" fill="white"/>
<path d="M68.1447 97.5839H26.3065C24.534 97.5819 22.8347 96.8769 21.5814 95.6236C20.3281 94.3703 19.6231 92.671 19.6211 90.8985V71.1242C19.6231 69.3518 20.3281 67.6525 21.5814 66.3992C22.8347 65.1458 24.534 64.4408 26.3065 64.4388H68.1447C69.9171 64.4408 71.6164 65.1458 72.8697 66.3992C74.1231 67.6525 74.8281 69.3518 74.8301 71.1242V90.8985C74.8281 92.671 74.1231 94.3703 72.8697 95.6236C71.6164 96.8769 69.9171 97.5819 68.1447 97.5839Z" fill="#915BA4"/>
<path d="M139.318 97.5839H97.4802C95.7078 97.5819 94.0085 96.8769 92.7552 95.6236C91.5018 94.3703 90.7968 92.671 90.7948 90.8985V71.1242C90.7968 69.3518 91.5018 67.6525 92.7552 66.3992C94.0085 65.1458 95.7078 64.4408 97.4802 64.4388H139.318C141.091 64.4408 142.79 65.1458 144.043 66.3992C145.297 67.6525 146.002 69.3518 146.004 71.1242V90.8985C146.002 92.671 145.297 94.3703 144.043 95.6236C142.79 96.8769 141.091 97.5819 139.318 97.5839Z" fill="#915BA4"/>
<path d="M139.318 148.676H97.4802C95.6541 148.674 93.9033 147.947 92.612 146.656C91.3207 145.365 90.5943 143.614 90.5923 141.788V122.013C90.5943 120.187 91.3207 118.436 92.612 117.145C93.9033 115.854 95.6541 115.127 97.4802 115.125H139.318C141.145 115.127 142.895 115.854 144.187 117.145C145.478 118.436 146.204 120.187 146.206 122.013V141.788C146.204 143.614 145.478 145.365 144.187 146.656C142.895 147.947 141.145 148.674 139.318 148.676Z" fill="#54B7E0"/>
<path d="M68.0075 148.676H26.1693C24.3431 148.674 22.5923 147.947 21.301 146.656C20.0097 145.365 19.2834 143.614 19.2813 141.788V122.013C19.2834 120.187 20.0097 118.436 21.301 117.145C22.5923 115.854 24.3431 115.127 26.1693 115.125H68.0075C69.8336 115.127 71.5844 115.854 72.8757 117.145C74.167 118.436 74.8934 120.187 74.8955 122.013V141.788C74.8934 143.614 74.167 145.365 72.8757 146.656C71.5844 147.947 69.8336 148.674 68.0075 148.676Z" fill="#54B7E0"/>
<path d="M210.492 148.676H168.654C166.828 148.674 165.077 147.947 163.786 146.656C162.494 145.365 161.768 143.614 161.766 141.788V122.013C161.768 120.187 162.494 118.436 163.786 117.145C165.077 115.854 166.828 115.127 168.654 115.125H210.492C212.318 115.127 214.069 115.854 215.36 117.145C216.652 118.436 217.378 120.187 217.38 122.013V141.788C217.378 143.614 216.652 145.365 215.36 146.656C214.069 147.947 212.318 148.674 210.492 148.676Z" fill="#54B7E0"/>
<path d="M210.492 97.6237H168.654C166.828 97.6217 165.077 96.8953 163.786 95.604C162.494 94.3127 161.768 92.5619 161.766 90.7357V70.9612C161.768 69.1351 162.494 67.3843 163.786 66.093C165.077 64.8017 166.828 64.0753 168.654 64.0732H210.492C212.318 64.0753 214.069 64.8017 215.36 66.093C216.652 67.3843 217.378 69.1351 217.38 70.9612V90.7357C217.378 92.5619 216.652 94.3127 215.36 95.604C214.069 96.8953 212.318 97.6217 210.492 97.6237Z" fill="#54B7E0"/>
<path d="M47.2255 92.3563C53.4912 92.3563 58.5705 87.2771 58.5705 81.0114C58.5705 74.7458 53.4912 69.6665 47.2255 69.6665C40.9599 69.6665 35.8806 74.7458 35.8806 81.0114C35.8806 87.2771 40.9599 92.3563 47.2255 92.3563Z" fill="white"/>
<path d="M46.101 85.3393C45.8458 85.3398 45.5973 85.2572 45.3931 85.1041L45.3804 85.0946L42.7143 83.0533C42.5906 82.9588 42.4868 82.8408 42.4088 82.7061C42.3308 82.5714 42.2801 82.4227 42.2596 82.2684C42.2391 82.1141 42.2492 81.9573 42.2893 81.8069C42.3295 81.6565 42.3989 81.5155 42.4935 81.392C42.5882 81.2684 42.7063 81.1647 42.841 81.0868C42.9758 81.0089 43.1246 80.9584 43.2789 80.938C43.4332 80.9177 43.59 80.9279 43.7404 80.9682C43.8907 81.0085 44.0317 81.0781 44.1551 81.1728L45.882 82.497L49.963 77.1748C50.0577 77.0514 50.1757 76.9478 50.3104 76.87C50.4451 76.7921 50.5938 76.7416 50.748 76.7212C50.9022 76.7009 51.0589 76.7111 51.2092 76.7513C51.3594 76.7915 51.5003 76.8609 51.6237 76.9556L51.5984 76.9901L51.6244 76.9561C51.8734 77.1475 52.0363 77.4298 52.0774 77.7411C52.1185 78.0525 52.0344 78.3674 51.8436 78.6168L47.0434 84.877C46.9324 85.0213 46.7896 85.138 46.6262 85.2182C46.4628 85.2983 46.2831 85.3398 46.101 85.3393Z" fill="#915BA4"/>
<path d="M118.602 92.1934C124.868 92.1934 129.947 87.1141 129.947 80.8485C129.947 74.5828 124.868 69.5035 118.602 69.5035C112.336 69.5035 107.257 74.5828 107.257 80.8485C107.257 87.1141 112.336 92.1934 118.602 92.1934Z" fill="white"/>
<path d="M117.477 85.1763C117.222 85.1768 116.974 85.0942 116.769 84.9411L116.757 84.9316L114.091 82.8904C113.841 82.6993 113.678 82.417 113.637 82.1056C113.596 81.7941 113.68 81.4791 113.871 81.2297C114.062 80.9803 114.344 80.8171 114.656 80.7759C114.967 80.7346 115.282 80.8188 115.531 81.0099L117.258 82.3341L121.339 77.0119C121.434 76.8884 121.552 76.7848 121.687 76.707C121.821 76.6292 121.97 76.5786 122.124 76.5583C122.279 76.5379 122.435 76.5481 122.586 76.5884C122.736 76.6286 122.877 76.698 123 76.7926L122.975 76.8271L123.001 76.7931C123.25 76.9845 123.413 77.2668 123.454 77.5782C123.495 77.8895 123.411 78.2044 123.22 78.4539L118.42 84.7141C118.309 84.8583 118.166 84.975 118.003 85.0552C117.839 85.1354 117.659 85.1768 117.477 85.1763Z" fill="#915BA4"/>
<path d="M195.276 134.384C195.649 133.976 195.928 133.492 196.093 132.965C196.258 132.438 196.306 131.881 196.233 131.334C196.16 130.786 195.967 130.261 195.67 129.796C195.372 129.331 194.975 128.937 194.509 128.642L188.175 94.8228L180.472 97.6791L189.12 130.024C188.676 130.841 188.547 131.792 188.757 132.698C188.968 133.604 189.503 134.401 190.262 134.938C191.021 135.476 191.95 135.716 192.875 135.614C193.799 135.511 194.653 135.074 195.276 134.384Z" fill="#FFB8B8"/>
<path d="M133.813 82.7788C133.832 82.9888 133.835 83.2 133.821 83.4104L148.798 94.9374L153.045 93.1934L156.514 99.259L149.296 103.077C148.713 103.386 148.045 103.497 147.394 103.393C146.742 103.29 146.141 102.978 145.682 102.505L130.712 87.0712C129.919 87.2499 129.091 87.1831 128.338 86.8798C127.584 86.5764 126.941 86.0508 126.493 85.3728C126.046 84.6949 125.815 83.8968 125.832 83.0846C125.85 82.2725 126.114 81.4848 126.589 80.8263C127.065 80.1679 127.73 79.6698 128.496 79.3985C129.261 79.1271 130.091 79.0953 130.876 79.3073C131.66 79.5192 132.361 79.9649 132.886 80.5851C133.41 81.2052 133.734 81.9704 133.813 82.7788Z" fill="#FFB8B8"/>
<path d="M168.803 194.41H164.492L162.44 181.298L168.804 181.298L168.803 194.41Z" fill="#FFB8B8"/>
<path d="M169.902 198.589L156.001 198.589V198.413C156.001 197.702 156.141 196.999 156.413 196.342C156.685 195.686 157.083 195.09 157.586 194.587C158.088 194.085 158.685 193.686 159.341 193.414C159.998 193.142 160.701 193.002 161.412 193.002L169.902 193.003L169.902 198.589Z" fill="#005173"/>
<path d="M184.979 194.41H180.668L178.616 181.298L184.98 181.298L184.979 194.41Z" fill="#FFB8B8"/>
<path d="M186.078 198.589L172.177 198.589V198.413C172.177 197.702 172.317 196.999 172.589 196.342C172.861 195.686 173.259 195.09 173.762 194.587C174.264 194.085 174.861 193.686 175.517 193.414C176.174 193.142 176.877 193.002 177.588 193.002L186.078 193.003L186.078 198.589Z" fill="#005173"/>
<path d="M163.596 191.819C163.203 191.819 162.823 191.672 162.532 191.407C162.241 191.143 162.059 190.778 162.023 190.387L158.266 139.858L158.443 139.844L184.297 137.719L184.304 137.902L186.359 190.246C186.367 190.458 186.332 190.67 186.256 190.869C186.181 191.068 186.065 191.25 185.918 191.403C185.77 191.556 185.593 191.678 185.397 191.761C185.201 191.844 184.991 191.887 184.778 191.887H179.709C179.33 191.889 178.964 191.754 178.677 191.508C178.389 191.262 178.201 190.92 178.145 190.546L171.261 148.261C171.254 148.218 171.231 148.178 171.197 148.15C171.162 148.123 171.118 148.109 171.074 148.113C171.03 148.116 170.989 148.135 170.959 148.168C170.928 148.2 170.912 148.242 170.911 148.287L170.599 190.036C170.596 190.439 170.439 190.826 170.16 191.118C169.882 191.409 169.502 191.583 169.1 191.605L163.681 191.816C163.653 191.818 163.624 191.819 163.596 191.819Z" fill="#005173"/>
<path d="M168.009 76.0008C172.779 76.0008 176.646 72.1339 176.646 67.3638C176.646 62.5938 172.779 58.7269 168.009 58.7269C163.239 58.7269 159.372 62.5938 159.372 67.3638C159.372 72.1339 163.239 76.0008 168.009 76.0008Z" fill="#FFB8B8"/>
<path d="M169.681 143.081C165.906 143.069 162.149 142.556 158.51 141.554C158.16 141.452 157.855 141.232 157.648 140.932C157.441 140.632 157.343 140.269 157.372 139.906C158.535 122.431 158.808 108.87 156.363 99.4873C155.321 95.4883 155.794 91.2765 157.661 87.9321C160.471 82.8989 165.635 79.8355 171.143 79.9413C171.407 79.9462 171.672 79.9556 171.941 79.9694C180.301 80.3999 186.815 87.9626 186.462 96.8283L184.781 139.086C184.774 139.394 184.677 139.694 184.501 139.947C184.325 140.2 184.078 140.395 183.791 140.508C179.28 142.205 174.501 143.076 169.681 143.081Z" fill="#3F3D56"/>
<path d="M157.784 102.732L151.315 94.8039C151.131 94.5784 150.997 94.3158 150.924 94.034C150.851 93.7523 150.839 93.4581 150.889 93.1713C150.94 92.8846 151.051 92.6121 151.217 92.3725C151.382 92.1328 151.597 91.9316 151.847 91.7826L160.611 86.5606C161.77 85.6251 163.253 85.1876 164.735 85.344C166.216 85.5004 167.575 86.2379 168.514 87.3949C169.452 88.5518 169.894 90.0337 169.741 91.5156C169.589 92.9975 168.855 94.3585 167.7 95.3L160.851 102.816C160.655 103.031 160.415 103.201 160.147 103.315C159.879 103.429 159.589 103.484 159.298 103.476C159.007 103.468 158.722 103.397 158.46 103.269C158.199 103.141 157.968 102.957 157.784 102.732Z" fill="#3F3D56"/>
<path d="M178.136 101.737C177.87 101.618 177.633 101.443 177.441 101.224C177.249 101.006 177.107 100.748 177.023 100.469L174.111 90.7263C173.479 89.3772 173.407 87.8325 173.913 86.4308C174.418 85.0292 175.458 83.8852 176.806 83.2496C178.153 82.614 179.698 82.5388 181.101 83.0405C182.504 83.5422 183.65 84.5798 184.289 85.9257L189.921 94.4316C190.082 94.6744 190.188 94.9489 190.233 95.2365C190.279 95.5242 190.261 95.8182 190.182 96.0984C190.103 96.3787 189.965 96.6387 189.777 96.8607C189.588 97.0827 189.355 97.2615 189.091 97.385L179.823 101.723C179.56 101.847 179.272 101.912 178.981 101.914C178.69 101.917 178.402 101.856 178.136 101.737Z" fill="#3F3D56"/>
<path d="M172.277 74.4507L165.875 72.9854C165.215 72.8342 164.421 72.5458 164.33 71.8746C164.207 70.9726 165.505 70.3442 165.385 69.4417C165.269 68.5675 164.086 68.4549 163.243 68.1969C162.458 67.9214 161.811 67.3512 161.438 66.6069C161.066 65.8626 160.998 65.0026 161.249 64.209C160.336 65.4947 158.252 65.6048 157.069 64.5632C155.885 63.5216 155.658 61.6318 156.369 60.2246C156.753 59.5334 157.295 58.9426 157.95 58.5002C158.605 58.0577 159.356 57.7762 160.14 57.6785C161.718 57.4996 163.313 57.7969 164.72 58.5322C164.813 57.5359 166.057 57.1319 167.058 57.123C169.137 57.1473 171.157 57.8189 172.836 59.0446C174.515 60.2702 175.77 61.9889 176.427 63.9614C177.655 67.9182 176.834 72.2555 173.398 74.5707L172.277 74.4507Z" fill="#005173"/>
<path d="M236.763 198.683H102.783C102.69 198.683 102.601 198.646 102.535 198.58C102.469 198.514 102.432 198.425 102.432 198.331C102.432 198.238 102.469 198.149 102.535 198.083C102.601 198.017 102.69 197.98 102.783 197.98H236.763C236.856 197.98 236.945 198.017 237.011 198.083C237.077 198.149 237.114 198.238 237.114 198.331C237.114 198.425 237.077 198.514 237.011 198.58C236.945 198.646 236.856 198.683 236.763 198.683Z" fill="#3F3D56"/>
</g>
<defs>
<clipPath id="clip0_5_28144">
<rect width="300" height="198.683" fill="white"/>
</clipPath>
</defs>
</svg>
