<svg width="1440" height="957" viewBox="0 0 1440 957" fill="none" xmlns="http://www.w3.org/2000/svg">
<path opacity="0.7" d="M1368.72 861.488C1365.23 848.438 1356.91 837.242 1345.73 829.7C1350.05 822.68 1352.56 814.49 1352.56 805.742C1352.56 779.624 1330.45 758.456 1303.2 758.456C1282.88 758.456 1265.42 770.228 1257.86 787.058C1256.53 786.968 1255.19 786.914 1253.84 786.914C1240.31 786.914 1227.82 791.198 1217.75 798.434C1208.75 769.724 1180.98 748.79 1148.08 748.79C1140.79 748.79 1133.75 749.834 1127.11 751.742C1126.3 730.124 1107.76 712.826 1084.99 712.826C1068.64 712.826 1054.48 721.736 1047.49 734.768C1036.06 719.774 1017.58 710 996.714 710C970.92 710 948.78 724.886 939.096 746.18C930.51 729.926 912.942 718.784 892.638 718.784C870.732 718.784 851.994 731.762 844.326 750.122C834.174 746.414 823.158 744.344 811.638 744.344C776.592 744.344 746.172 763.19 730.746 790.874C721.854 787.274 712.098 785.276 701.838 785.276C678.996 785.276 658.584 795.158 644.976 810.692C634.248 806.48 622.512 804.14 610.218 804.14C606.096 804.14 602.064 804.428 598.086 804.932C587.106 774.818 557.208 753.2 522.018 753.2C515.232 753.2 508.662 754.01 502.362 755.522C496.134 739.322 479.88 727.784 460.818 727.784C436.374 727.784 416.556 746.774 416.556 770.192C416.556 775.556 417.618 780.704 419.508 785.438C399.366 788.21 381.798 798.632 370.17 813.572C354.546 808.514 337.824 805.742 320.418 805.742C298.548 805.742 277.722 810.098 258.84 817.91C251.118 798.83 231.804 785.312 209.178 785.312C181.224 785.312 158.328 805.94 156.114 832.184C129.87 832.382 107.496 848.114 98.478 870.254C87.804 867.266 76.518 865.646 64.836 865.646C40.95 865.646 18.738 872.36 0.0360107 883.862V956.618H1440.04V884.384C1420.6 870.038 1396.26 861.506 1369.84 861.506C1369.48 861.506 1369.12 861.524 1368.76 861.524L1368.72 861.488Z" fill="white"/>
<g opacity="0.3">
<path opacity="0.4" d="M689.2 117.22C691.32 108.57 699.12 102.15 708.42 102.15C712.12 102.15 715.57 103.17 718.53 104.93C721.12 100.77 725.74 98 731 98C738.56 98 744.78 103.71 745.59 111.04C752.13 112.11 757.73 115.98 761.11 121.37C762.47 121 763.91 120.79 765.39 120.79C774.34 120.79 781.59 128.04 781.59 136.99C781.59 145.94 774.34 153.19 765.39 153.19C762.16 153.19 759.16 152.24 756.63 150.61C752.67 154 747.52 156.06 741.9 156.06C737.58 156.06 733.55 154.85 730.11 152.76C726.54 156.24 721.67 158.38 716.3 158.38C710.93 158.38 705.76 156.1 702.16 152.44C698.77 155.16 694.47 156.79 689.79 156.79C678.86 156.79 670 147.93 670 137C670 126.07 678.53 117.55 689.18 117.22H689.2Z" fill="white"/>
<path opacity="0.7" d="M1265.76 659.35C1265.05 659.35 1264.35 659.42 1263.67 659.56C1263.71 659.07 1263.74 658.57 1263.74 658.06C1263.74 647.8 1255.42 639.48 1245.16 639.48C1243.42 639.48 1241.73 639.73 1240.13 640.17C1237.22 632.48 1229.79 627 1221.08 627C1212.37 627 1205.36 632.16 1202.29 639.51C1191.53 640.16 1183 649.09 1183 660.01C1183 670.93 1191.71 680.06 1202.64 680.53H1202.72C1202.99 680.54 1203.26 680.55 1203.53 680.55C1203.83 680.55 1204.13 680.55 1204.42 680.53H1265.75C1271.6 680.53 1276.35 675.78 1276.35 669.93C1276.35 664.08 1271.6 659.33 1265.75 659.33L1265.76 659.35Z" fill="white"/>
<path opacity="0.7" d="M106.28 342.15C106.7 342.15 107.12 342.19 107.52 342.27C107.5 341.98 107.48 341.68 107.48 341.38C107.48 335.3 112.41 330.38 118.48 330.38C119.51 330.38 120.51 330.53 121.46 330.79C123.18 326.24 127.58 323 132.74 323C137.9 323 142.05 326.06 143.87 330.41C150.24 330.79 155.29 336.08 155.29 342.55C155.29 349.02 150.13 354.42 143.66 354.7H143.61C143.45 354.7 143.29 354.71 143.13 354.71C142.95 354.71 142.78 354.71 142.6 354.7H106.28C102.81 354.7 100 351.89 100 348.42C100 344.95 102.81 342.14 106.28 342.14V342.15Z" fill="white"/>
<path opacity="0.7" d="M398.76 651.46C397.75 651.46 396.77 651.56 395.82 651.75C395.88 651.05 395.91 650.36 395.91 649.65C395.91 635.22 384.21 623.53 369.79 623.53C367.34 623.53 364.97 623.88 362.71 624.51C358.62 613.69 348.17 606 335.92 606C323.67 606 313.82 613.26 309.5 623.59C295.43 624.44 284.07 635.36 282.56 649.24C279.73 647.28 276.29 646.13 272.58 646.13C262.87 646.13 255 654 255 663.71C255 673.42 262.87 681.29 272.58 681.29H313.52V681.26H398.76C406.99 681.26 413.66 674.59 413.66 666.36C413.66 658.13 406.99 651.46 398.76 651.46Z" fill="white"/>
<path opacity="0.4" d="M1353.78 31.16C1354.03 29.84 1354.16 28.48 1354.16 27.09C1354.16 14.83 1344.22 4.9 1331.97 4.9C1326.27 4.9 1321.08 7.05 1317.15 10.58C1313.99 4.31 1307.51 0 1300.02 0C1294.53 0 1289.58 2.32 1286.08 6.02C1283.27 5.29 1280.33 4.9 1277.29 4.9C1265.75 4.9 1255.53 10.53 1249.21 19.2H1249.19C1238.59 19.2 1230 27.79 1230 38.39C1230 48.42 1237.69 56.64 1247.5 57.5C1253.57 67.61 1264.64 74.38 1277.3 74.38C1284.08 74.38 1290.4 72.43 1295.74 69.08C1300.38 72.25 1305.99 74.1 1312.03 74.1C1318.57 74.1 1324.61 71.93 1329.46 68.27C1332.82 70.31 1336.76 71.49 1340.98 71.49C1353.24 71.49 1363.17 61.55 1363.17 49.3C1363.17 41.82 1359.46 35.2 1353.78 31.18V31.16Z" fill="white"/>
<path opacity="0.4" d="M162.43 61.7C162.24 60.65 162.13 59.58 162.13 58.47C162.13 48.76 170 40.88 179.72 40.88C184.23 40.88 188.35 42.58 191.47 45.38C193.97 40.41 199.11 37 205.05 37C209.4 37 213.32 38.84 216.09 41.77C218.31 41.19 220.65 40.88 223.05 40.88C232.2 40.88 240.3 45.34 245.3 52.21C245.3 52.21 245.3 52.21 245.31 52.21C253.71 52.21 260.52 59.02 260.52 67.42C260.52 75.37 254.43 81.88 246.66 82.56C241.85 90.57 233.08 95.93 223.05 95.93C217.68 95.93 212.67 94.39 208.44 91.73C204.76 94.24 200.32 95.71 195.53 95.71C190.34 95.71 185.56 93.99 181.72 91.09C179.06 92.71 175.93 93.64 172.59 93.64C162.88 93.64 155 85.77 155 76.05C155 70.12 157.94 64.88 162.44 61.69L162.43 61.7Z" fill="white"/>
</g>
</svg>
