<svg width="300" height="199" viewBox="0 0 300 199" fill="none" xmlns="http://www.w3.org/2000/svg">
<g clip-path="url(#clip0_104_58)">
<path d="M257.547 160.62H32.4277C30.8909 160.618 29.4176 159.975 28.331 158.832C27.2444 157.688 26.6331 156.138 26.6314 154.521V8.46219C26.6327 7.27759 27.0804 6.14189 27.8765 5.30423C28.6726 4.46658 29.7519 3.99538 30.8777 3.99402H259.023C260.168 3.99539 261.266 4.47472 262.076 5.32685C262.886 6.17899 263.342 7.33434 263.343 8.53944V154.521C263.341 156.138 262.73 157.688 261.643 158.832C260.557 159.975 259.083 160.618 257.547 160.62Z" fill="#C2E3F6"/>
<path d="M249.334 153.092H39.5294C36.4539 153.092 33.9518 150.626 33.9518 147.596V20.4062C33.9518 18.1589 35.8059 16.3304 38.085 16.3304H250.71C253.027 16.3304 254.912 18.189 254.912 20.4734V147.596C254.912 150.626 252.41 153.092 249.334 153.092Z" fill="white"/>
<path d="M263.262 9.22224H26.55V6.11723C26.5523 4.4949 27.166 2.93975 28.2566 1.79294C29.3472 0.646141 30.8256 0.00133933 32.3674 0H257.445C258.987 0.00133152 260.465 0.646128 261.556 1.79293C262.646 2.93974 263.26 4.4949 263.262 6.11723V9.22224Z" fill="#915BA4"/>
<path d="M37.1222 6.20357C37.9532 6.20357 38.6269 5.49472 38.6269 4.62031C38.6269 3.7459 37.9532 3.03705 37.1222 3.03705C36.2912 3.03705 35.6175 3.7459 35.6175 4.62031C35.6175 5.49472 36.2912 6.20357 37.1222 6.20357Z" fill="white"/>
<path d="M42.8337 6.20357C43.6648 6.20357 44.3384 5.49472 44.3384 4.62031C44.3384 3.7459 43.6648 3.03705 42.8337 3.03705C42.0027 3.03705 41.329 3.7459 41.329 4.62031C41.329 5.49472 42.0027 6.20357 42.8337 6.20357Z" fill="white"/>
<path d="M48.5452 6.20357C49.3763 6.20357 50.05 5.49472 50.05 4.62031C50.05 3.7459 49.3763 3.03705 48.5452 3.03705C47.7142 3.03705 47.0405 3.7459 47.0405 4.62031C47.0405 5.49472 47.7142 6.20357 48.5452 6.20357Z" fill="white"/>
<path d="M138.226 136.681H65.2144C63.5846 136.679 62.022 135.997 60.8695 134.784C59.717 133.572 59.0687 131.927 59.0669 130.212V37.3797C59.0683 36.0971 59.5531 34.8674 60.415 33.9605C61.2769 33.0535 62.4456 32.5434 63.6645 32.5419H139.702C140.94 32.5434 142.128 33.0617 143.003 33.9831C143.879 34.9045 144.372 36.1538 144.373 37.4569V130.212C144.371 131.927 143.723 133.572 142.571 134.784C141.418 135.997 139.855 136.679 138.226 136.681ZM63.6645 33.2811C62.6318 33.2824 61.6418 33.7146 60.9116 34.4829C60.1813 35.2513 59.7706 36.2931 59.7695 37.3797V130.212C59.7711 131.731 60.3453 133.188 61.3661 134.262C62.3868 135.336 63.7708 135.94 65.2144 135.942H138.226C139.669 135.94 141.053 135.336 142.074 134.262C143.095 133.188 143.669 131.731 143.671 130.212V37.4569C143.669 36.3498 143.251 35.2884 142.507 34.5056C141.763 33.7227 140.754 33.2824 139.702 33.2811H63.6645Z" fill="#CCCCCC"/>
<path d="M70.8351 130.212H132.605C134.096 130.212 135.525 129.589 136.579 128.48C137.633 127.371 138.226 125.867 138.226 124.298V44.9962C138.226 43.4277 137.633 41.9234 136.579 40.8143C135.525 39.7052 134.096 39.0822 132.605 39.0822H70.8351C69.3444 39.0822 67.9147 39.7052 66.8607 40.8143C65.8066 41.9234 65.2144 43.4277 65.2144 44.9962V124.298C65.2144 125.867 65.8066 127.371 66.8607 128.48C67.9147 129.589 69.3444 130.212 70.8351 130.212Z" fill="#54B7E0"/>
<path d="M118.757 55.2622H84.6825C84.077 55.2622 83.4962 55.009 83.068 54.5585C82.6397 54.1079 82.3992 53.4968 82.3992 52.8596C82.3992 52.2224 82.6397 51.6113 83.068 51.1607C83.4962 50.7102 84.077 50.457 84.6825 50.457H118.757C119.363 50.457 119.944 50.7102 120.372 51.1607C120.8 51.6113 121.041 52.2224 121.041 52.8596C121.041 53.4968 120.8 54.1079 120.372 54.5585C119.944 55.009 119.363 55.2622 118.757 55.2622Z" fill="white"/>
<path d="M118.757 107.379H84.6825C84.077 107.379 83.4962 107.126 83.068 106.676C82.6397 106.225 82.3992 105.614 82.3992 104.977C82.3992 104.34 82.6397 103.728 83.068 103.278C83.4962 102.827 84.077 102.574 84.6825 102.574H118.757C119.363 102.574 119.944 102.827 120.372 103.278C120.8 103.728 121.041 104.34 121.041 104.977C121.041 105.614 120.8 106.225 120.372 106.676C119.944 107.126 119.363 107.379 118.757 107.379Z" fill="white"/>
<path d="M118.757 118.838H84.6825C84.077 118.838 83.4962 118.585 83.068 118.134C82.6397 117.683 82.3992 117.072 82.3992 116.435C82.3992 115.798 82.6397 115.187 83.068 114.736C83.4962 114.286 84.077 114.033 84.6825 114.033H118.757C119.363 114.033 119.944 114.286 120.372 114.736C120.8 115.187 121.041 115.798 121.041 116.435C121.041 117.072 120.8 117.683 120.372 118.134C119.944 118.585 119.363 118.838 118.757 118.838Z" fill="white"/>
<path d="M101.896 90.5614C109.462 90.5614 115.596 84.1074 115.596 76.146C115.596 68.1846 109.462 61.7306 101.896 61.7306C94.3292 61.7306 88.1954 68.1846 88.1954 76.146C88.1954 84.1074 94.3292 90.5614 101.896 90.5614Z" fill="white"/>
<path d="M190.028 62.9367L184.043 64.2649C183.991 64.2766 183.941 64.3009 183.899 64.3359C183.857 64.3709 183.822 64.4157 183.799 64.4669C183.776 64.518 183.764 64.5741 183.765 64.6308C183.765 64.6875 183.778 64.7433 183.803 64.7938L184.36 65.9498L157.296 80.4048C157.254 80.4268 157.218 80.4571 157.188 80.4939C157.158 80.5308 157.135 80.5735 157.121 80.6196C157.106 80.6658 157.101 80.7144 157.104 80.7628C157.108 80.8112 157.12 80.8584 157.141 80.9017C157.162 80.9449 157.191 80.9835 157.226 81.0151C157.261 81.0466 157.302 81.0706 157.346 81.0857C157.389 81.1008 157.436 81.1066 157.482 81.1029C157.528 81.0991 157.572 81.0859 157.614 81.0639L184.678 66.6089L185.236 67.765C185.26 67.8155 185.295 67.8595 185.339 67.8935C185.382 67.9275 185.432 67.9506 185.485 67.961C185.538 67.9714 185.592 67.9689 185.644 67.9536C185.696 67.9383 185.744 67.9106 185.784 67.8727L190.335 63.5734C190.393 63.5191 190.432 63.4462 190.446 63.3662C190.46 63.2863 190.449 63.2036 190.414 63.131C190.379 63.0585 190.322 63.0001 190.253 62.9649C190.183 62.9298 190.104 62.9199 190.028 62.9367Z" fill="#54B7E0"/>
<path d="M190.028 98.8666L184.043 97.5384C183.991 97.5267 183.941 97.5024 183.899 97.4674C183.857 97.4324 183.822 97.3876 183.799 97.3364C183.776 97.2853 183.764 97.2292 183.765 97.1725C183.765 97.1158 183.778 97.06 183.803 97.0095L184.36 95.8535L157.296 81.3985C157.254 81.3765 157.218 81.3462 157.188 81.3094C157.158 81.2725 157.135 81.2298 157.121 81.1837C157.106 81.1375 157.101 81.0889 157.104 81.0405C157.108 80.9921 157.12 80.9449 157.141 80.9016C157.162 80.8584 157.191 80.8198 157.226 80.7882C157.261 80.7567 157.302 80.7327 157.346 80.7176C157.389 80.7025 157.436 80.6967 157.482 80.7004C157.528 80.7042 157.572 80.7174 157.614 80.7394L184.678 95.1944L185.236 94.0383C185.26 93.9878 185.295 93.9438 185.339 93.9098C185.382 93.8758 185.432 93.8527 185.485 93.8423C185.538 93.8319 185.592 93.8344 185.644 93.8497C185.696 93.865 185.744 93.8927 185.784 93.9306L190.335 98.2299C190.393 98.2842 190.432 98.3571 190.446 98.437C190.46 98.517 190.449 98.5997 190.414 98.6723C190.379 98.7448 190.322 98.8032 190.252 98.8383C190.183 98.8735 190.104 98.8834 190.028 98.8666Z" fill="#54B7E0"/>
<path d="M209.755 71.1623C208.226 71.1623 206.732 70.6854 205.461 69.7919C204.19 68.8984 203.2 67.6283 202.615 66.1425C202.03 64.6566 201.877 63.0216 202.175 61.4441C202.473 59.8667 203.209 58.4178 204.29 57.2805C205.371 56.1433 206.748 55.3688 208.247 55.0551C209.746 54.7413 211.3 54.9023 212.712 55.5178C214.125 56.1333 215.332 57.1755 216.181 58.5128C217.03 59.8501 217.483 61.4223 217.483 63.0306C217.481 65.1865 216.666 67.2534 215.217 68.7779C213.768 70.3024 211.804 71.1599 209.755 71.1623ZM209.755 55.6381C208.365 55.6381 207.007 56.0716 205.852 56.8839C204.696 57.6962 203.796 58.8508 203.264 60.2016C202.732 61.5524 202.593 63.0388 202.864 64.4728C203.135 65.9068 203.804 67.224 204.787 68.2579C205.77 69.2917 207.021 69.9958 208.384 70.281C209.747 70.5663 211.16 70.4199 212.444 69.8604C213.727 69.3008 214.825 68.3533 215.597 67.1376C216.369 65.9219 216.781 64.4927 216.781 63.0306C216.779 61.0706 216.038 59.1916 214.721 57.8057C213.403 56.4199 211.618 55.6403 209.755 55.6381Z" fill="#54B7E0"/>
<path d="M209.755 107.016C208.226 107.016 206.732 106.539 205.461 105.646C204.19 104.752 203.2 103.482 202.615 101.996C202.03 100.51 201.877 98.8752 202.175 97.2978C202.473 95.7204 203.209 94.2714 204.29 93.1342C205.371 91.9969 206.748 91.2225 208.247 90.9087C209.746 90.5949 211.3 90.756 212.712 91.3714C214.125 91.9869 215.332 93.0292 216.181 94.3664C217.03 95.7037 217.483 97.2759 217.483 98.8842C217.481 101.04 216.666 103.107 215.217 104.632C213.768 106.156 211.804 107.014 209.755 107.016ZM209.755 91.4917C208.365 91.4917 207.007 91.9253 205.852 92.7376C204.696 93.5499 203.796 94.7044 203.264 96.0552C202.732 97.406 202.593 98.8924 202.864 100.326C203.135 101.76 203.804 103.078 204.787 104.111C205.77 105.145 207.021 105.849 208.384 106.135C209.747 106.42 211.16 106.274 212.444 105.714C213.727 105.154 214.825 104.207 215.597 102.991C216.369 101.776 216.781 100.346 216.781 98.8842C216.779 96.9243 216.038 95.0453 214.721 93.6594C213.403 92.2735 211.618 91.4939 209.755 91.4917Z" fill="#54B7E0"/>
<path d="M209.142 67.0376C208.919 67.038 208.702 66.962 208.523 66.821L208.512 66.8123L206.179 64.9348C206.071 64.8476 205.981 64.7389 205.913 64.6149C205.844 64.4909 205.8 64.354 205.782 64.212C205.765 64.07 205.774 63.9257 205.809 63.7873C205.844 63.649 205.905 63.5193 205.987 63.4056C206.07 63.2919 206.174 63.1965 206.291 63.1249C206.409 63.0532 206.539 63.0066 206.674 62.9879C206.809 62.9691 206.946 62.9785 207.078 63.0155C207.209 63.0526 207.333 63.1164 207.441 63.2036L208.952 64.4227L212.522 59.5218C212.605 59.4081 212.708 59.3128 212.826 59.2412C212.944 59.1695 213.074 59.123 213.208 59.1042C213.343 59.0855 213.48 59.0949 213.612 59.1319C213.743 59.1689 213.867 59.2328 213.975 59.3199L213.975 59.3201L213.953 59.3525L213.975 59.3201C214.193 59.4963 214.336 59.7562 214.372 60.0428C214.408 60.3295 214.334 60.6194 214.167 60.849L209.968 66.6109C209.871 66.7437 209.746 66.8511 209.603 66.9249C209.46 66.9986 209.303 67.0368 209.143 67.0363L209.142 67.0376Z" fill="#54B7E0"/>
<path d="M206.402 102.413C206.353 102.361 206.314 102.3 206.287 102.233C206.261 102.165 206.247 102.093 206.247 102.021C206.247 101.948 206.261 101.876 206.287 101.808C206.314 101.741 206.353 101.68 206.402 101.629L212.363 95.3558C212.462 95.2519 212.596 95.1936 212.736 95.1936C212.875 95.1936 213.009 95.2521 213.108 95.356C213.207 95.4599 213.262 95.6009 213.262 95.7479C213.262 95.8949 213.207 96.0359 213.108 96.1399L207.147 102.413C207.098 102.464 207.04 102.505 206.976 102.533C206.912 102.561 206.843 102.575 206.774 102.575C206.705 102.575 206.636 102.561 206.572 102.533C206.509 102.505 206.45 102.464 206.402 102.413Z" fill="#54B7E0"/>
<path d="M212.757 102.413C212.806 102.361 212.845 102.3 212.871 102.233C212.898 102.165 212.911 102.093 212.911 102.021C212.911 101.948 212.898 101.876 212.871 101.808C212.845 101.741 212.806 101.68 212.757 101.629L206.795 95.3558C206.697 95.2519 206.563 95.1936 206.423 95.1936C206.283 95.1936 206.149 95.2521 206.05 95.356C205.952 95.4599 205.896 95.6009 205.896 95.7479C205.896 95.8949 205.952 96.0359 206.05 96.1399L212.012 102.413C212.061 102.464 212.119 102.505 212.183 102.533C212.247 102.561 212.315 102.575 212.384 102.575C212.454 102.575 212.522 102.561 212.586 102.533C212.65 102.505 212.708 102.464 212.757 102.413Z" fill="#54B7E0"/>
<path d="M223.1 81.1989C223.077 81.1988 223.054 81.1971 223.031 81.1936C222.971 81.1845 222.912 81.1628 222.859 81.1297C222.807 81.0967 222.761 81.0529 222.724 81.0011L219.853 76.9493C219.84 76.9321 219.824 76.9186 219.806 76.9101C219.787 76.9017 219.766 76.8985 219.746 76.9011C219.726 76.9036 219.707 76.9116 219.69 76.9244C219.674 76.9372 219.661 76.9543 219.653 76.974L218.181 80.5988C218.143 80.6931 218.077 80.7725 217.994 80.8257C217.911 80.8789 217.813 80.9034 217.716 80.8957C217.619 80.8879 217.526 80.8484 217.452 80.7825C217.377 80.7167 217.324 80.6279 217.299 80.5286L214.361 68.5619C214.338 68.4674 214.342 68.3678 214.373 68.2758C214.403 68.1837 214.46 68.1034 214.534 68.0451C214.608 67.9867 214.698 67.953 214.79 67.9482C214.883 67.9434 214.975 67.9678 215.054 68.0182L225.115 74.396C225.199 74.4489 225.264 74.528 225.303 74.6222C225.342 74.7164 225.351 74.821 225.331 74.9212C225.31 75.0215 225.26 75.1124 225.188 75.1812C225.115 75.2501 225.024 75.2934 224.928 75.3051L221.207 75.7554C221.187 75.7578 221.168 75.7658 221.151 75.7786C221.135 75.7914 221.122 75.8084 221.114 75.8281C221.106 75.8477 221.103 75.8693 221.105 75.8905C221.108 75.9118 221.115 75.932 221.127 75.9492L223.999 80.0008C224.073 80.1054 224.104 80.2365 224.086 80.3655C224.069 80.4944 224.003 80.6106 223.904 80.6886L223.378 81.1012C223.298 81.1646 223.2 81.1988 223.1 81.1989Z" fill="#915BA4"/>
<path d="M239.439 90.0132H226.792C225.861 90.0132 224.967 89.6238 224.308 88.9306C223.65 88.2374 223.28 87.2973 223.28 86.317C223.28 85.3367 223.65 84.3965 224.308 83.7033C224.967 83.0102 225.861 82.6207 226.792 82.6207H239.439C240.37 82.6207 241.264 83.0102 241.923 83.7033C242.582 84.3965 242.952 85.3367 242.952 86.317C242.952 87.2973 242.582 88.2374 241.923 88.9306C241.264 89.6238 240.37 90.0132 239.439 90.0132Z" fill="#915BA4"/>
<path d="M86.1789 64.468L85.653 64.0555C85.5538 63.9774 85.4881 63.8612 85.4702 63.7323C85.4524 63.6033 85.4838 63.4722 85.5577 63.3676L88.4293 59.316C88.4415 59.2989 88.4491 59.2786 88.4515 59.2574C88.4539 59.2361 88.4509 59.2145 88.4428 59.1949C88.4347 59.1752 88.4219 59.1582 88.4055 59.1454C88.3892 59.1326 88.3699 59.1246 88.3497 59.1222L84.6291 58.6719C84.5323 58.6602 84.4413 58.6169 84.3691 58.548C84.2968 58.4792 84.2468 58.3883 84.2261 58.288C84.2054 58.1878 84.215 58.0832 84.2537 57.989C84.2923 57.8948 84.358 57.8157 84.4415 57.7628L94.5025 51.385C94.582 51.3346 94.6739 51.3103 94.7665 51.315C94.8591 51.3198 94.9483 51.3536 95.0227 51.4119C95.0971 51.4702 95.1532 51.5505 95.184 51.6426C95.2149 51.7346 95.2189 51.8343 95.1957 51.9288L92.2575 63.8954C92.2331 63.9947 92.1798 64.0835 92.105 64.1493C92.0302 64.2152 91.9377 64.2547 91.8405 64.2625C91.7433 64.2702 91.6462 64.2457 91.5629 64.1925C91.4795 64.1393 91.4141 64.0599 91.3758 63.9656L89.9033 60.3408C89.8953 60.3211 89.8825 60.304 89.8662 60.2912C89.8499 60.2784 89.8307 60.2704 89.8105 60.2679C89.7903 60.2653 89.7699 60.2685 89.7512 60.2769C89.7325 60.2854 89.7163 60.2989 89.7041 60.3161L86.8324 64.3679C86.7959 64.4197 86.7499 64.4635 86.6972 64.4965C86.6445 64.5296 86.5861 64.5513 86.5254 64.5605C86.5028 64.5639 86.48 64.5656 86.4571 64.5657C86.3568 64.5657 86.2591 64.5314 86.1789 64.468Z" fill="#3F3D56"/>
<path d="M66.605 69.6838C66.6061 68.7038 66.9765 67.7643 67.6351 67.0714C68.2937 66.3784 69.1866 65.9887 70.1179 65.9875H82.7643C83.696 65.9875 84.5895 66.377 85.2483 67.0702C85.9071 67.7633 86.2772 68.7035 86.2772 69.6838C86.2772 70.6641 85.9071 71.6043 85.2483 72.2975C84.5895 72.9906 83.696 73.3801 82.7643 73.3801H70.1179C69.1866 73.379 68.2937 72.9892 67.6351 72.2962C66.9765 71.6033 66.6061 70.6638 66.605 69.6838Z" fill="#3F3D56"/>
<path d="M254.105 136.686C254.485 136.319 254.785 135.868 254.982 135.366C255.179 134.864 255.269 134.322 255.246 133.78C255.223 133.237 255.087 132.706 254.848 132.224C254.608 131.743 254.272 131.322 253.861 130.992L257.789 118.447L251.493 120.243L248.728 131.881C248.248 132.644 248.049 133.565 248.171 134.471C248.292 135.377 248.726 136.204 249.388 136.796C250.051 137.388 250.897 137.704 251.766 137.684C252.636 137.664 253.468 137.309 254.105 136.686Z" fill="#FFB8B8"/>
<path d="M291.869 135.947C291.488 135.58 291.189 135.129 290.992 134.627C290.794 134.125 290.704 133.583 290.727 133.04C290.751 132.497 290.887 131.967 291.126 131.485C291.365 131.003 291.702 130.583 292.112 130.253L288.185 117.708L294.481 119.504L297.245 131.142C297.726 131.904 297.924 132.826 297.803 133.731C297.681 134.637 297.248 135.465 296.585 136.057C295.923 136.649 295.076 136.965 294.207 136.945C293.338 136.925 292.506 136.569 291.869 135.947Z" fill="#FFB8B8"/>
<path d="M273.415 73.278C278.181 73.278 282.043 69.2134 282.043 64.1996C282.043 59.1857 278.181 55.1212 273.415 55.1212C268.65 55.1212 264.787 59.1857 264.787 64.1996C264.787 69.2134 268.65 73.278 273.415 73.278Z" fill="#FFB8B8"/>
<path d="M265.271 194.186H260.965L258.915 176.707H265.272L265.271 194.186Z" fill="#FFB8B8"/>
<path d="M266.369 198.579L252.483 198.578V198.393C252.483 197.646 252.623 196.907 252.894 196.217C253.166 195.527 253.564 194.9 254.066 194.372C254.568 193.844 255.164 193.425 255.819 193.139C256.475 192.853 257.178 192.706 257.888 192.706L266.37 192.707L266.369 198.579Z" fill="#005173"/>
<path d="M280.025 194.186H275.719L273.67 176.707H280.026L280.025 194.186Z" fill="#FFB8B8"/>
<path d="M281.124 198.579L267.237 198.578V198.393C267.237 197.646 267.377 196.907 267.648 196.217C267.92 195.527 268.318 194.9 268.82 194.372C269.322 193.844 269.918 193.425 270.574 193.139C271.229 192.853 271.932 192.706 272.642 192.706L281.124 192.707L281.124 198.579Z" fill="#005173"/>
<path d="M265.201 189.077L260.142 189.062C259.925 189.091 259.705 189.072 259.496 189.006C259.286 188.94 259.092 188.828 258.927 188.678C258.758 188.526 258.621 188.338 258.525 188.127C258.43 187.915 258.377 187.685 258.372 187.451L258.955 128.541L282.3 128.296L280.946 187.016C280.938 187.451 280.768 187.866 280.473 188.169C280.177 188.473 279.779 188.642 279.366 188.64H274.149C273.74 188.641 273.346 188.475 273.051 188.176C272.756 187.877 272.584 187.469 272.57 187.039L271.307 151.795C271.307 151.771 271.303 151.748 271.294 151.726C271.286 151.704 271.273 151.684 271.257 151.667C271.241 151.651 271.221 151.638 271.2 151.629C271.179 151.62 271.157 151.616 271.134 151.617C271.089 151.616 271.045 151.633 271.012 151.665C270.979 151.698 270.959 151.742 270.956 151.79L266.563 187.552C266.536 187.932 266.386 188.291 266.138 188.568C265.89 188.846 265.559 189.025 265.201 189.077Z" fill="#005173"/>
<path d="M269.556 132.554C266.107 132.554 262.462 131.906 259.171 130.01C258.925 129.869 258.719 129.662 258.573 129.409C258.427 129.157 258.347 128.869 258.341 128.574L257.881 101.688L257.234 95.9348C256.846 92.5127 257.425 89.0461 258.899 85.9687C260.374 82.8912 262.678 80.3396 265.524 78.6328L265.823 78.4534L266.665 76.3847C266.734 76.2138 266.85 76.0688 266.999 75.9689C267.147 75.869 267.321 75.8189 267.497 75.8252L278.824 76.1656C279.004 76.1716 279.178 76.2353 279.322 76.3482C279.466 76.4611 279.575 76.6179 279.632 76.7973L280.158 78.4581C283.065 80.2139 285.398 82.8556 286.849 86.0348C288.3 89.2139 288.801 92.7812 288.286 96.2662L283.644 128.597C283.602 128.888 283.488 129.162 283.312 129.391C283.137 129.62 282.907 129.797 282.646 129.902C280.591 130.723 275.352 132.554 269.556 132.554Z" fill="#3F3D56"/>
<path d="M291.69 128.909C291.513 128.908 291.339 128.852 291.193 128.747C291.047 128.641 290.934 128.492 290.869 128.318L285.118 112.655L280.415 88.2538C280.237 87.3332 280.319 86.378 280.652 85.5061C280.984 84.6342 281.552 83.8838 282.285 83.3476C282.918 82.8841 283.653 82.5966 284.42 82.512C285.187 82.4273 285.963 82.5483 286.673 82.8635C287.384 83.1788 288.008 83.6782 288.486 84.3152C288.964 84.9522 289.281 85.7061 289.408 86.5068L290.724 94.8161L297.252 126.625C297.299 126.862 297.257 127.108 297.134 127.313C297.012 127.517 296.818 127.663 296.594 127.719L291.89 128.884C291.824 128.9 291.757 128.909 291.69 128.909Z" fill="#3F3D56"/>
<path d="M254.635 128.909C254.567 128.909 254.5 128.9 254.435 128.884L249.73 127.719C249.507 127.663 249.313 127.517 249.19 127.313C249.068 127.108 249.026 126.862 249.073 126.625L255.602 94.8075L256.917 86.5068C257.043 85.7061 257.361 84.9522 257.839 84.3152C258.317 83.6782 258.941 83.1788 259.651 82.8635C260.362 82.5483 261.137 82.4273 261.905 82.512C262.672 82.5966 263.406 82.8841 264.04 83.3477C264.773 83.8838 265.341 84.6342 265.673 85.5061C266.005 86.378 266.088 87.3332 265.91 88.2539L261.215 112.625L255.455 128.318C255.391 128.492 255.278 128.641 255.132 128.747C254.985 128.852 254.812 128.908 254.635 128.909Z" fill="#3F3D56"/>
<path d="M280.131 72.8601C279.332 73.3437 276.175 73.6644 275.95 72.724L275.945 72.7033C275.788 72.0143 275.918 71.2948 275.963 70.5879C276.008 69.881 275.943 69.1045 275.485 68.5848C274.632 67.6159 273.115 68.1295 271.881 67.8846C271.159 67.7149 270.52 67.2741 270.084 66.6445C269.648 66.015 269.446 65.24 269.514 64.4645C269.531 64.3175 269.559 64.1704 269.59 64.0234C269.667 63.651 269.661 63.2648 269.572 62.8952C269.484 62.5255 269.315 62.1825 269.079 61.8931C268.843 61.6037 268.547 61.3757 268.213 61.2271C267.88 61.0784 267.518 61.0131 267.156 61.0364C265.91 61.1114 264.565 61.5087 263.533 60.5373C262.736 59.7862 262.541 57.8308 262.892 56.7667C263.481 54.9783 267.252 54.0421 268.899 53.5274C270.936 52.9082 273.079 52.7743 275.171 53.1355C277.263 53.4967 279.252 54.344 280.994 55.6156C282.035 56.3871 283.006 57.3565 283.449 58.6117C283.893 59.8669 283.679 61.4505 282.679 62.2792C283.454 63.1425 284 64.2049 284.262 65.3601C284.523 66.5152 284.492 67.7225 284.171 68.8609C283.677 70.5351 281.32 72.1402 280.131 72.8601Z" fill="#005173"/>
<path d="M39.8954 123.126C39.3816 123.071 38.8853 122.899 38.4416 122.621C37.9979 122.343 37.6175 121.966 37.3272 121.517C37.0369 121.067 36.8438 120.556 36.7615 120.02C36.6792 119.483 36.7097 118.934 36.8508 118.412L26.5671 110.837L32.6322 108.31L41.468 115.891C42.2868 116.198 42.9699 116.811 43.3879 117.613C43.8059 118.416 43.9297 119.351 43.7359 120.243C43.542 121.135 43.044 121.921 42.3362 122.452C41.6284 122.983 40.7599 123.223 39.8954 123.126Z" fill="#FFB8B8"/>
<path d="M34.3108 117.368L24.9978 111.684C24.0621 111.128 23.2467 110.372 22.6034 109.467C21.9601 108.561 21.503 107.524 21.2611 106.422C21.0427 105.379 21.0296 104.301 21.2227 103.252C21.4158 102.204 21.811 101.209 22.3839 100.328L30.0934 88.3628C30.6387 87.5163 31.4679 86.9178 32.4148 86.6874C33.3618 86.457 34.3565 86.6116 35.1997 87.1202C36.0428 87.6288 36.6722 88.454 36.9616 89.4302C37.2511 90.4065 37.1792 91.4618 36.7605 92.3846L30.7405 105.656L36.8389 111.306C37.0498 111.502 37.2073 111.753 37.2953 112.034C37.3833 112.315 37.3986 112.616 37.3396 112.905L36.6492 116.279C36.598 116.536 36.4891 116.776 36.3315 116.98C36.174 117.183 35.9724 117.345 35.7436 117.45C35.5158 117.557 35.267 117.606 35.0177 117.591C34.7685 117.577 34.5261 117.5 34.3108 117.368Z" fill="#3F3D56"/>
<path d="M76.5087 90.7799C76.3524 91.2978 76.0902 91.7733 75.7404 92.1731C75.3905 92.5728 74.9617 92.8869 74.484 93.0934C74.0063 93.2999 73.4914 93.3936 72.9755 93.368C72.4597 93.3425 71.9554 93.1982 71.4983 92.9454L62.338 101.977L61.235 95.2116L70.1029 87.6725C70.5575 86.8927 71.2681 86.3153 72.1002 86.0499C72.9322 85.7845 73.8279 85.8494 74.6175 86.2324C75.4071 86.6155 76.0357 87.2899 76.3843 88.128C76.7328 88.9662 76.7771 89.9097 76.5087 90.7799Z" fill="#FFB8B8"/>
<path d="M38.99 78.9242C43.7551 78.9242 47.618 74.8597 47.618 69.8458C47.618 64.832 43.7551 60.7675 38.99 60.7675C34.2249 60.7675 30.362 64.832 30.362 69.8458C30.362 74.8597 34.2249 78.9242 38.99 78.9242Z" fill="#FFB8B8"/>
<path d="M64.3939 194.039L68.5219 192.747L65.7488 175.379L59.6564 177.286L64.3939 194.039Z" fill="#FFB8B8"/>
<path d="M62.9401 192.95L71.0693 190.405C71.7496 190.192 72.4635 190.122 73.1695 190.2C73.8755 190.277 74.5602 190.499 75.1843 190.855C75.8085 191.211 76.36 191.692 76.8074 192.272C77.2547 192.852 77.5891 193.519 77.7915 194.235L77.8416 194.412L64.5317 198.579L62.9401 192.95Z" fill="#005173"/>
<path d="M19.1698 193.816H23.4762L25.5253 176.338H21.2768L19.1698 193.816Z" fill="#FFB8B8"/>
<path d="M18.0711 192.337L26.5526 192.337H26.5529C27.2627 192.337 27.9656 192.484 28.6214 192.769C29.2771 193.055 29.873 193.474 30.3749 194.002C30.8768 194.53 31.2749 195.157 31.5466 195.847C31.8182 196.537 31.958 197.277 31.958 198.024V198.209L18.0714 198.209L18.0711 192.337Z" fill="#005173"/>
<path d="M61.3127 187.783L45.1584 138.872C45.1244 138.764 45.0594 138.67 44.9723 138.604C44.8852 138.537 44.7805 138.5 44.6728 138.499C44.5647 138.493 44.4576 138.523 44.3673 138.586C44.2771 138.649 44.2084 138.741 44.1715 138.848L25.5571 187.811C25.4358 188.133 25.2216 188.407 24.9445 188.594C24.6674 188.782 24.3415 188.873 24.0127 188.855L19.1541 188.607C18.9202 188.595 18.6917 188.528 18.4851 188.412C18.2786 188.296 18.0992 188.133 17.9599 187.934C17.8206 187.736 17.7249 187.508 17.6797 187.266C17.6346 187.024 17.641 186.775 17.6987 186.536L35.3063 113.519L52.9715 112.002L53.0869 112.177C53.1823 112.322 62.6342 126.963 62.6283 152.241L68.6849 186.936C68.7268 187.176 68.718 187.423 68.6592 187.659C68.6004 187.894 68.493 188.114 68.3447 188.301C68.1964 188.489 68.0107 188.639 67.8008 188.743C67.5909 188.846 67.362 188.9 67.1302 188.9H62.806C62.4777 188.9 62.1576 188.792 61.89 188.592C61.6225 188.392 61.4207 188.109 61.3127 187.783Z" fill="#005173"/>
<path d="M29.0097 96.9573C28.3881 95.0849 28.2347 93.0757 28.5641 91.1229C28.8935 89.17 29.6947 87.3392 30.8906 85.8061C32.0588 84.2818 33.5798 83.0991 35.3075 82.3715C37.0353 81.644 38.9118 81.396 40.7569 81.6514C40.9033 81.672 41.0488 81.6928 41.1933 81.7139C43.542 82.0475 45.7251 83.1714 47.4169 84.9177C49.1086 86.664 50.2183 88.9392 50.5803 91.4036L53.8794 113.481L35.0713 114.975L34.9363 114.985L29.0097 96.9573Z" fill="#3F3D56"/>
<path d="M56.4555 105.916C55.4263 105.879 54.4157 105.617 53.4878 105.146C52.56 104.676 51.7353 104.008 51.066 103.185L42.1691 92.3327C41.4788 91.5191 41.1177 90.4541 41.1626 89.3645C41.1904 88.7949 41.3332 88.2381 41.5815 87.7311C41.8298 87.2242 42.1779 86.7787 42.6027 86.4244C43.3038 85.8355 44.1781 85.522 45.0751 85.5379C45.9721 85.5539 46.8358 85.8982 47.5176 86.5118L58.1279 96.0798L64.6555 91.3018C64.8897 91.1302 65.1637 91.0286 65.4484 91.0077C65.733 90.9869 66.0178 91.0476 66.2723 91.1834L69.3965 92.8474C69.6197 92.9664 69.813 93.1395 69.9603 93.3523C70.1076 93.5652 70.2048 93.8119 70.2438 94.072C70.2828 94.3321 70.2626 94.5982 70.1848 94.8485C70.107 95.0988 69.9739 95.3261 69.7963 95.5117L62.0283 103.629C61.3359 104.358 60.5137 104.935 59.6088 105.329C58.7039 105.722 57.7341 105.923 56.755 105.921C56.6555 105.921 56.5557 105.92 56.4555 105.916Z" fill="#3F3D56"/>
<path d="M45.551 67.5785C46.6253 68.017 47.7573 68.2791 48.9073 68.3556C50.064 68.3709 51.2936 67.9493 51.9266 67.0223C52.1694 66.6174 52.3262 66.162 52.3862 65.6874C52.4461 65.2128 52.4078 64.7302 52.274 64.2726C52.0343 63.3449 51.603 62.4844 51.0108 61.7524C50.4186 61.0203 49.6801 60.4349 48.8481 60.0377C47.9738 59.6205 47.0298 59.389 46.0702 59.3565C45.1107 59.324 44.1545 59.4911 43.2565 59.8484C42.6073 57.772 40.1622 56.6419 37.8992 56.5779C33.2763 56.4474 29.1428 59.7641 27.1343 63.7522C25.1258 67.7404 24.8324 72.2991 24.7075 76.725C24.677 77.8043 24.6643 78.9298 25.1502 79.9043C25.8738 81.3553 27.5181 82.1368 29.0679 82.7564C33.1321 84.3789 37.325 85.619 41.5974 86.4623C39.546 85.0826 38.8953 82.1131 40.1947 80.0606C40.8304 79.0564 41.8743 78.2204 42.0432 77.0574C42.2457 75.6628 41.1149 74.4432 40.6966 73.0934C40.4852 72.3627 40.4756 71.5837 40.669 70.8474C40.8624 70.1112 41.2507 69.448 41.7888 68.9351C42.3744 68.3998 43.0746 68.0219 43.8294 67.8335C44.5842 67.6452 45.3711 67.6521 46.1229 67.8537" fill="#005173"/>
<path d="M87.4707 198.683H0.351288C0.258121 198.683 0.168769 198.644 0.10289 198.575C0.0370103 198.506 0 198.412 0 198.313C0 198.215 0.0370103 198.121 0.10289 198.052C0.168769 197.983 0.258121 197.944 0.351288 197.944H87.4707C87.5639 197.944 87.6532 197.983 87.7191 198.052C87.785 198.121 87.822 198.215 87.822 198.313C87.822 198.412 87.785 198.506 87.7191 198.575C87.6532 198.644 87.5639 198.683 87.4707 198.683Z" fill="#CCCCCC"/>
<path d="M299.649 198.683H237.822C237.729 198.683 237.639 198.644 237.574 198.575C237.508 198.506 237.471 198.412 237.471 198.313C237.471 198.215 237.508 198.121 237.574 198.052C237.639 197.983 237.729 197.944 237.822 197.944H299.649C299.742 197.944 299.831 197.983 299.897 198.052C299.963 198.121 300 198.215 300 198.313C300 198.412 299.963 198.506 299.897 198.575C299.831 198.644 299.742 198.683 299.649 198.683Z" fill="#CCCCCC"/>
</g>
<defs>
<clipPath id="clip0_104_58">
<rect width="300" height="198.683" fill="white"/>
</clipPath>
</defs>
</svg>
