<svg width="601" height="400" viewBox="0 0 601 400" fill="none" xmlns="http://www.w3.org/2000/svg">
<path d="M199.46 166C198.34 167.68 197.62 169.52 197.22 171.44L194.18 171.76V177.68L197.22 178C197.62 179.92 198.34 181.76 199.46 183.44L197.54 185.76L201.7 189.92L204.02 188C205.7 189.12 207.54 189.84 209.46 190.24L209.78 193.28H215.7L216.02 190.24C217.94 189.84 219.78 189.12 221.46 188L223.78 189.92L227.94 185.76L226.02 183.44C227.14 181.76 227.86 179.92 228.26 178L231.3 177.68V171.76L228.26 171.44C227.86 169.52 227.14 167.68 226.02 166L227.94 163.68L223.78 159.52L221.46 161.44C219.78 160.32 217.94 159.6 216.02 159.2L215.7 156.16H209.78L209.46 159.2C207.54 159.6 205.7 160.32 204.02 161.44L201.7 159.52L197.54 163.68L199.46 166ZM218.34 169.04C221.46 172.16 221.46 177.2 218.34 180.32C215.22 183.44 210.18 183.44 207.06 180.32C203.94 177.2 203.94 172.16 207.06 169.04C210.18 165.92 215.22 165.92 218.34 169.04Z" fill="#F5F5F5"/>
<path d="M346.9 178.24C346.18 179.36 345.7 180.56 345.46 181.76L343.46 181.92V185.76L345.46 185.92C345.7 187.2 346.18 188.4 346.9 189.44L345.62 190.96L348.34 193.68L349.86 192.4C350.98 193.12 352.18 193.6 353.38 193.84L353.54 195.84H357.38L357.54 193.84C358.82 193.6 360.02 193.12 361.06 192.4L362.58 193.68L365.3 190.96L364.02 189.44C364.74 188.32 365.22 187.12 365.46 185.92L367.46 185.76V181.92L365.46 181.76C365.22 180.48 364.74 179.28 364.02 178.24L365.3 176.72L362.58 174L361.06 175.28C359.94 174.56 358.74 174.08 357.54 173.84L357.38 171.84H353.54L353.38 173.84C352.1 174.08 350.9 174.56 349.86 175.28L348.34 174L345.62 176.72L346.9 178.24ZM359.22 180.16C361.22 182.16 361.22 185.44 359.22 187.52C357.22 189.52 353.94 189.52 351.86 187.52C349.86 185.52 349.86 182.24 351.86 180.16C353.86 178.16 357.14 178.16 359.22 180.16Z" fill="#F5F5F5"/>
<path d="M370.74 206.96C370.02 208.08 369.46 209.36 369.22 210.64L367.22 210.8V214.72L369.22 214.88C369.46 216.16 370.02 217.44 370.74 218.56L369.46 220.16L372.26 222.96L373.86 221.68C374.98 222.4 376.26 222.96 377.54 223.2L377.7 225.2H381.62L381.78 223.2C383.06 222.96 384.34 222.4 385.46 221.68L387.06 222.96L389.86 220.16L388.58 218.56C389.3 217.44 389.86 216.16 390.1 214.88L392.1 214.72V210.8L390.1 210.64C389.86 209.36 389.3 208.08 388.58 206.96L389.86 205.36L387.06 202.56L385.46 203.84C384.34 203.12 383.06 202.56 381.78 202.32L381.62 200.32H377.7L377.54 202.32C376.26 202.56 374.98 203.12 373.86 203.84L372.26 202.56L369.46 205.36L370.74 206.96ZM383.38 209.04C385.46 211.12 385.46 214.48 383.38 216.56C381.3 218.64 377.94 218.64 375.86 216.56C373.78 214.48 373.78 211.12 375.86 209.04C377.94 206.96 381.3 206.96 383.38 209.04Z" fill="#E0E0E0"/>
<path d="M80.82 223.76C79.06 226.4 77.86 229.36 77.3 232.32L72.5 232.8V242.08L77.3 242.56C77.94 245.6 79.06 248.48 80.82 251.12L77.78 254.8L84.34 261.36L88.02 258.32C90.66 260.08 93.62 261.28 96.58 261.84L97.06 266.64H106.34L106.82 261.84C109.86 261.2 112.74 260 115.38 258.32L119.06 261.36L125.62 254.8L122.58 251.12C124.34 248.48 125.54 245.52 126.1 242.56L130.9 242.08V232.8L126.1 232.32C125.46 229.28 124.26 226.4 122.58 223.76L125.62 220.08L119.06 213.52L115.38 216.56C112.74 214.8 109.78 213.6 106.82 213.04L106.34 208.24H97.06L96.58 213.04C93.54 213.68 90.66 214.8 88.02 216.56L84.34 213.52L77.78 220.08L80.82 223.76ZM110.58 228.56C115.46 233.44 115.46 241.44 110.58 246.32C105.7 251.2 97.7 251.2 92.82 246.32C87.94 241.44 87.94 233.44 92.82 228.56C97.7 223.68 105.7 223.68 110.58 228.56Z" fill="#F5F5F5"/>
<path d="M468.42 228.8C467.3 230.48 466.58 232.4 466.1 234.32L462.98 234.64V240.64L466.1 240.96C466.5 242.88 467.22 244.8 468.42 246.48L466.42 248.88L470.66 253.12L473.06 251.12C474.74 252.24 476.66 252.96 478.58 253.44L478.9 256.56H484.9L485.22 253.44C487.14 253.04 489.06 252.32 490.74 251.12L493.14 253.12L497.38 248.88L495.38 246.48C496.5 244.8 497.22 242.88 497.7 240.96L500.82 240.64V234.64L497.7 234.32C497.3 232.4 496.58 230.48 495.38 228.8L497.38 226.4L493.14 222.16L490.74 224.16C489.06 223.04 487.14 222.32 485.22 221.84L484.9 218.72H478.9L478.58 221.84C476.66 222.24 474.74 222.96 473.06 224.16L470.66 222.16L466.42 226.4L468.42 228.8ZM487.54 231.84C490.66 235.04 490.74 240.16 487.54 243.28C484.34 246.4 479.22 246.48 476.1 243.28C472.98 240.08 472.9 234.96 476.1 231.84C479.3 228.64 484.42 228.64 487.54 231.84Z" fill="#F5F5F5"/>
<path d="M72.58 276.96C71.7 278.32 71.06 279.76 70.74 281.36L68.34 281.6V286.32L70.74 286.56C71.06 288.08 71.62 289.6 72.58 290.96L71.06 292.8L74.42 296.16L76.26 294.64C77.62 295.52 79.06 296.16 80.66 296.48L80.9 298.88H85.62L85.86 296.48C87.38 296.16 88.9 295.6 90.26 294.64L92.1 296.16L95.46 292.8L93.94 290.88C94.82 289.52 95.46 288.08 95.78 286.48L98.18 286.24V281.52L95.78 281.28C95.46 279.76 94.9 278.24 93.94 276.88L95.46 274.96L92.1 271.6L90.26 273.12C88.9 272.24 87.46 271.6 85.86 271.28L85.62 268.88H80.9L80.66 271.28C79.14 271.6 77.62 272.16 76.26 273.12L74.34 271.6L70.98 274.96L72.5 276.88L72.58 276.96ZM87.7 279.36C90.18 281.84 90.18 285.92 87.7 288.4C85.22 290.88 81.14 290.88 78.66 288.4C76.18 285.92 76.18 281.84 78.66 279.36C81.14 276.88 85.22 276.88 87.7 279.36Z" fill="#E0E0E0"/>
<path d="M376.98 169.68C375.94 171.28 375.22 173.12 374.82 174.96L371.86 175.2V180.96L374.82 181.2C375.22 183.04 375.94 184.88 376.98 186.48L375.06 188.8L379.14 192.88L381.46 190.96C383.06 192 384.9 192.72 386.74 193.12L386.98 196.08H392.74L392.98 193.12C394.82 192.72 396.66 192 398.26 190.96L400.58 192.88L404.66 188.8L402.74 186.48C403.78 184.88 404.5 183.04 404.9 181.2L407.86 180.96V175.2L404.9 174.96C404.5 173.12 403.78 171.28 402.74 169.68L404.66 167.36L400.58 163.28L398.26 165.2C396.66 164.16 394.82 163.44 392.98 163.04L392.74 160.08H386.98L386.74 163.04C384.9 163.44 383.06 164.16 381.46 165.2L379.14 163.28L375.06 167.36L376.98 169.68ZM395.38 172.64C398.42 175.68 398.42 180.56 395.38 183.6C392.34 186.64 387.46 186.64 384.42 183.6C381.38 180.56 381.38 175.68 384.42 172.64C387.46 169.6 392.34 169.6 395.38 172.64Z" fill="#E0E0E0"/>
<path d="M576.5 358.08C576.5 361.04 451.54 363.44 297.3 363.44C143.06 363.44 18.1 361.04 18.1 358.08C18.1 355.12 143.06 352.72 297.3 352.72C451.54 352.72 576.5 355.12 576.5 358.08Z" fill="#F5F5F5"/>
<path d="M84.74 319.28L81.22 318.8C81.86 314.4 85.54 306.08 94.9 306.08C104.26 306.08 111.62 312.48 112.18 318.88L108.66 319.2C108.26 314.4 103.86 309.6 94.9 309.6C85.94 309.6 84.82 318.88 84.74 319.28Z" fill="#263238"/>
<path d="M126.1 316.16H68.74C65.603 316.16 63.06 318.703 63.06 321.84V351.52C63.06 354.657 65.603 357.2 68.74 357.2H126.1C129.237 357.2 131.78 354.657 131.78 351.52V321.84C131.78 318.703 129.237 316.16 126.1 316.16Z" fill="#263238"/>
<path opacity="0.2" d="M126.1 316.16H68.74C65.603 316.16 63.06 318.703 63.06 321.84V351.52C63.06 354.657 65.603 357.2 68.74 357.2H126.1C129.237 357.2 131.78 354.657 131.78 351.52V321.84C131.78 318.703 129.237 316.16 126.1 316.16Z" fill="white"/>
<path d="M112.18 357.76C63.62 357.76 61.3 324.48 61.3 324.08L63.3 320.24C63.38 321.44 67.22 354.24 112.26 354.24C157.3 354.24 146.82 354.24 148.42 350.72C149.86 347.6 142.9 339.6 131.7 326.72V321.76C145.94 338.16 153.94 346.96 151.62 352.08C149.14 357.52 138.42 357.76 112.18 357.76Z" fill="#263238"/>
<path d="M524.18 331.28H519.7V346H524.18V331.28Z" fill="#263238"/>
<path d="M521.86 333.68C514.9 333.68 508.02 331.92 501.86 328.64L503.94 324.72C522.42 334.64 545.46 327.6 555.3 309.12C560.1 300.08 561.06 289.52 558.02 279.84C556.82 276 554.98 272.32 552.66 269.04C549.3 264.32 544.82 260.48 539.78 257.76L541.86 253.84C544.18 255.12 546.42 256.56 548.5 258.24C551.46 260.64 554.02 263.36 556.26 266.48C558.9 270.16 560.98 274.24 562.26 278.56C569.3 300.88 556.9 324.72 534.58 331.84C530.42 333.12 526.1 333.84 521.78 333.84L521.86 333.68Z" fill="#263238"/>
<g opacity="0.3">
<path d="M521.86 333.68C514.9 333.68 508.02 331.92 501.86 328.64L503.94 324.72C522.42 334.64 545.46 327.6 555.3 309.12C560.1 300.08 561.06 289.52 558.02 279.84C556.82 276 554.98 272.32 552.66 269.04C549.3 264.32 544.82 260.48 539.78 257.76L541.86 253.84C544.18 255.12 546.42 256.56 548.5 258.24C551.46 260.64 554.02 263.36 556.26 266.48C558.9 270.16 560.98 274.24 562.26 278.56C569.3 300.88 556.9 324.72 534.58 331.84C530.42 333.12 526.1 333.84 521.78 333.84L521.86 333.68Z" fill="white"/>
</g>
<path d="M500.42 332.4C500.26 332.4 500.02 332.4 499.86 332.24C499.3 331.92 499.14 331.28 499.38 330.72L542.34 250.64C542.66 250.08 543.3 249.92 543.86 250.16C544.42 250.48 544.58 251.12 544.34 251.68L501.38 331.76C501.22 332.16 500.82 332.32 500.42 332.4Z" fill="#263238"/>
<g opacity="0.4">
<path d="M500.42 332.4C500.26 332.4 500.02 332.4 499.86 332.24C499.3 331.92 499.14 331.28 499.38 330.72L542.34 250.64C542.66 250.08 543.3 249.92 543.86 250.16C544.42 250.48 544.58 251.12 544.34 251.68L501.38 331.76C501.22 332.16 500.82 332.32 500.42 332.4Z" fill="white"/>
</g>
<path d="M513.7 344.96H530.1C531.22 344.96 532.1 345.84 532.1 346.96V350.64H511.78V346.96C511.78 345.84 512.66 344.96 513.78 344.96H513.7Z" fill="#263238"/>
<path d="M523.62 258.48C541.7 259.44 555.54 274.8 554.66 292.88C553.7 310.96 538.34 324.8 520.26 323.92C502.18 322.96 488.34 307.6 489.22 289.52C490.18 271.44 505.54 257.6 523.62 258.48Z" fill="#22295C"/>
<path opacity="0.2" d="M554.66 292.88C553.7 310.96 538.34 324.8 520.34 323.84C502.26 322.88 488.42 307.52 489.38 289.52C490.34 271.44 505.7 257.6 523.7 258.56C526.58 258.72 529.46 259.28 532.26 260.16C535.54 261.28 538.66 262.88 541.46 264.96C550.26 271.44 555.3 282 554.74 292.96L554.66 292.88Z" fill="white"/>
<path opacity="0.5" d="M540.98 264.64C540.98 264.64 540.9 264.64 540.82 264.56C540.74 264.56 540.66 264.4 540.5 264.32C539.14 263.6 539.54 266.24 538.26 266.8C536.98 267.36 534.74 266.32 535.06 265.52C535.38 264.72 532.74 262.56 532.1 262.24C530.98 261.84 529.7 262.4 529.3 263.52C529.22 263.76 529.14 264 529.14 264.24C529.06 266.48 530.26 267.84 529.94 268.48C529.62 269.12 529.62 269.36 527.38 270.48C525.14 271.6 523.46 270.16 522.1 271.44C520.74 272.64 522.5 273.36 521.94 276.32C521.38 279.28 520.58 277.2 518.98 277.52C517.38 277.84 518.26 275.84 518.5 274.72C518.74 273.6 516.98 273.2 516.26 273.12C515.54 273.04 513.62 272.8 513.86 270.48C514.1 268.16 513.94 266 510.82 266.16C509.22 266.24 508.26 263.92 507.86 261.6C499.46 265.6 493.22 272.96 490.5 281.84C490.66 281.84 490.82 282.08 491.06 282.64C491.78 284.48 492.5 286.4 493.46 287.52C494.34 288.4 494.58 289.76 494.18 290.96C493.78 291.84 491.86 292.48 491.86 293.12C491.86 293.76 490.02 294.64 489.7 295.2C489.7 295.36 489.54 295.44 489.38 295.44C490.5 304.4 495.38 312.56 502.66 317.84C503.46 315.76 504.9 314.08 505.86 314C507.86 313.92 514.02 312.88 511.78 310.16C509.54 307.44 507.06 304.96 507.06 304.96C507.54 304.24 508.1 303.6 508.66 302.96C509.06 302.72 507.86 302.08 509.94 301.84C512.02 301.6 512.18 301.6 511.3 300.64C510.42 299.68 508.98 300.4 509.94 299.12C510.9 297.84 511.94 296.88 512.98 298.24C514.02 299.6 513.38 300.4 513.7 300.8C514.02 301.2 517.14 300.56 517.14 300.56C517.14 300.56 517.94 301.68 517.62 301.92C517.06 302.56 516.5 303.28 516.1 304C515.86 304.72 515.46 305.36 514.9 305.84C514.26 306.24 516.58 308.56 517.3 308.96C518.02 309.36 518.26 309.6 518.9 309.44C519.54 309.28 520.66 308 521.14 307.68C521.54 307.28 524.1 308.24 524.1 308.24C525.06 308.8 525.94 309.44 526.82 310.16C527.7 311.04 528.98 311.12 530.02 310.48C530.58 310 530.5 308.72 531.54 309.12C532.5 309.6 532.9 310 533.54 312.48C534.26 314.88 538.34 318.4 537.78 319.92C540.82 318.24 543.54 316.16 545.86 313.6C542.98 312.64 541.86 311.52 541.46 310.88C540.9 310.08 541.22 310.08 541.54 308.64C541.86 307.2 544.5 306.4 544.9 306C545.3 305.6 547.38 303.04 548.42 302.8C549.46 302.56 549.38 301.2 549.38 301.2C549.38 301.2 549.54 301.52 549.94 300.64C550.34 299.76 549.94 298.88 551.3 297.6C552.18 296.96 553.22 296.48 554.26 296.24C554.42 295.12 554.58 294 554.58 292.88C554.66 290.88 554.58 288.88 554.34 286.88L550.82 288.24C550.02 288.24 549.14 288.24 548.34 288C547.94 287.76 546.1 286.56 544.66 287.28C543.22 288 543.06 286.8 540.42 286.32C537.7 285.84 541.78 282.08 542.34 281.52C542.98 280.96 543.06 281.28 544.9 280.32C546.74 279.44 546.42 278 546.42 278C545.3 276.4 544.02 274.96 542.58 273.68C540.82 272.32 543.3 272.16 547.7 270.88C545.78 268.48 543.54 266.32 541.06 264.56L540.98 264.64ZM529.06 306C528.42 306.96 527.54 305.84 527.54 305.84C524.98 305.12 524.74 303.04 525.62 302.24C526.5 301.44 526.9 298.8 528.26 299.84C529.38 300.64 530.5 301.44 531.7 302.08C531.7 302.08 533.22 298.24 533.22 301.84C533.22 305.44 535.3 304.32 533.22 305.44C531.14 306.56 529.62 305.12 528.98 306H529.06ZM538.98 306.96C538.98 307.84 538.9 308.8 538.66 309.68L536.74 310.64C535.3 309.44 535.86 307.68 536.66 307.52C537.46 307.36 538.9 305.92 538.98 306.96ZM535.54 279.36C536.02 280.32 534.5 280.96 532.82 283.44C531.14 285.92 530.1 283.92 530.1 283.92C530.1 283.92 526.66 281.2 527.78 280C528.9 278.8 528.02 277.2 529.7 276.32C530.74 275.76 531.7 276.32 532.66 277.28C533.62 278.24 534.98 278.4 535.54 279.36Z" fill="white"/>
<path opacity="0.2" d="M532.18 260.16C532.66 270 529.46 280.64 522.58 289.76C514.9 299.84 504.26 306 493.62 307.6C484.58 291.92 490.02 271.92 505.7 262.88C513.78 258.24 523.38 257.28 532.18 260.16Z" fill="white"/>
<g opacity="0.3">
<path d="M513.7 344.96H530.1C531.22 344.96 532.1 345.84 532.1 346.96V350.64H511.78V346.96C511.78 345.84 512.66 344.96 513.78 344.96H513.7Z" fill="white"/>
</g>
<path d="M504.9 349.52H538.9C540.18 349.52 541.22 350.56 541.22 351.84V355.6H502.58V351.84C502.58 350.56 503.62 349.52 504.9 349.52Z" fill="#263238"/>
<g opacity="0.4">
<path d="M504.9 349.52H538.9C540.18 349.52 541.22 350.56 541.22 351.84V355.6H502.58V351.84C502.58 350.56 503.62 349.52 504.9 349.52Z" fill="white"/>
</g>
<path d="M505.3 135.68C511.86 144.56 509.94 156.96 501.06 163.52C494.26 168.56 485.22 168.56 478.5 164.24L472.74 165.84L473.46 159.52C473.46 159.44 473.3 159.36 473.22 159.28C466.66 150.4 468.58 138 477.46 131.44C486.34 124.88 498.74 126.8 505.3 135.68Z" fill="#22295C"/>
<path opacity="0.7" d="M505.3 135.68C511.86 144.56 509.94 156.96 501.06 163.52C494.26 168.56 485.22 168.56 478.5 164.24L472.74 165.84L473.46 159.52C473.46 159.44 473.3 159.36 473.22 159.28C466.66 150.4 468.58 138 477.46 131.44C486.34 124.88 498.74 126.8 505.3 135.68Z" fill="white"/>
<path d="M506.66 133.76C506.66 133.76 506.5 133.76 506.5 133.68C502.98 128.56 496.82 125.28 490.58 125.28C484.34 125.28 490.26 125.28 490.1 125.28C490.02 125.28 489.86 125.2 489.86 125.12C489.86 125.04 489.94 124.88 490.02 124.88C496.5 124.72 503.14 128.08 506.74 133.44C506.74 133.52 506.74 133.68 506.74 133.68C506.74 133.68 506.74 133.68 506.66 133.68V133.76ZM484.26 125.92C485.14 125.6 486.1 125.44 487.06 125.44C487.14 125.44 487.3 125.36 487.3 125.28C487.3 125.2 487.22 125.04 487.14 125.04C486.1 125.04 485.06 125.2 484.18 125.52C484.1 125.52 484.02 125.68 484.1 125.76C484.1 125.76 484.18 125.92 484.26 125.92Z" fill="#22295C"/>
<path opacity="0.7" d="M506.66 133.76C506.66 133.76 506.5 133.76 506.5 133.68C502.98 128.56 496.82 125.28 490.58 125.28C484.34 125.28 490.26 125.28 490.1 125.28C490.02 125.28 489.86 125.2 489.86 125.12C489.86 125.04 489.94 124.88 490.02 124.88C496.5 124.72 503.14 128.08 506.74 133.44C506.74 133.52 506.74 133.68 506.74 133.68C506.74 133.68 506.74 133.68 506.66 133.68V133.76ZM484.26 125.92C485.14 125.6 486.1 125.44 487.06 125.44C487.14 125.44 487.3 125.36 487.3 125.28C487.3 125.2 487.22 125.04 487.14 125.04C486.1 125.04 485.06 125.2 484.18 125.52C484.1 125.52 484.02 125.68 484.1 125.76C484.1 125.76 484.18 125.92 484.26 125.92Z" fill="white"/>
<path d="M484.82 146.88C484.82 148.32 483.62 149.52 482.18 149.52C480.74 149.52 479.54 148.32 479.54 146.88C479.54 145.44 480.74 144.24 482.18 144.24C483.62 144.24 484.82 145.44 484.82 146.88Z" fill="#22295C"/>
<path d="M490.34 149.52C491.798 149.52 492.98 148.338 492.98 146.88C492.98 145.422 491.798 144.24 490.34 144.24C488.882 144.24 487.7 145.422 487.7 146.88C487.7 148.338 488.882 149.52 490.34 149.52Z" fill="#22295C"/>
<path d="M498.5 149.52C499.958 149.52 501.14 148.338 501.14 146.88C501.14 145.422 499.958 144.24 498.5 144.24C497.042 144.24 495.86 145.422 495.86 146.88C495.86 148.338 497.042 149.52 498.5 149.52Z" fill="#22295C"/>
<path d="M204.1 118.96C197.94 111.12 186.42 109.6 178.26 115.6C172.02 120.24 169.7 127.92 171.78 134.8L168.82 139.36L174.58 140.32C174.58 140.32 174.66 140.48 174.74 140.56C180.9 148.4 192.42 149.92 200.58 143.92C208.66 138 210.26 126.8 204.1 118.96Z" fill="#22295C"/>
<path opacity="0.7" d="M204.1 118.96C197.94 111.12 186.42 109.6 178.26 115.6C172.02 120.24 169.7 127.92 171.78 134.8L168.82 139.36L174.58 140.32C174.58 140.32 174.66 140.48 174.74 140.56C180.9 148.4 192.42 149.92 200.58 143.92C208.66 138 210.26 126.8 204.1 118.96Z" fill="white"/>
<path d="M209.54 134.96C209.46 134.96 209.38 134.8 209.38 134.72C211.22 129.28 209.94 122.96 206.18 118.56C206.18 118.48 206.18 118.32 206.18 118.24C206.26 118.24 206.42 118.24 206.5 118.24C210.34 122.72 211.62 129.2 209.78 134.8C209.78 134.88 209.7 134.96 209.62 134.96H209.54ZM207.54 139.76C208.1 139.04 208.5 138.16 208.74 137.28C208.74 137.2 208.74 137.04 208.58 137.04C208.5 137.04 208.34 137.04 208.34 137.2C208.1 138 207.7 138.8 207.22 139.52C207.22 139.6 207.22 139.76 207.22 139.84C207.22 139.84 207.3 139.84 207.38 139.84C207.46 139.84 207.46 139.84 207.54 139.84V139.76Z" fill="#22295C"/>
<path opacity="0.7" d="M209.54 134.96C209.46 134.96 209.38 134.8 209.38 134.72C211.22 129.28 209.94 122.96 206.18 118.56C206.18 118.48 206.18 118.32 206.18 118.24C206.26 118.24 206.42 118.24 206.5 118.24C210.34 122.72 211.62 129.2 209.78 134.8C209.78 134.88 209.7 134.96 209.62 134.96H209.54ZM207.54 139.76C208.1 139.04 208.5 138.16 208.74 137.28C208.74 137.2 208.74 137.04 208.58 137.04C208.5 137.04 208.34 137.04 208.34 137.2C208.1 138 207.7 138.8 207.22 139.52C207.22 139.6 207.22 139.76 207.22 139.84C207.22 139.84 207.3 139.84 207.38 139.84C207.46 139.84 207.46 139.84 207.54 139.84V139.76Z" fill="white"/>
<path d="M193.86 129.36C193.86 130.64 194.98 131.76 196.34 131.76C197.7 131.76 198.82 130.72 198.82 129.36C198.82 128 197.7 126.96 196.34 126.96C194.98 126.96 193.86 128 193.86 129.36Z" fill="#22295C"/>
<path d="M186.26 129.36C186.26 130.64 187.38 131.76 188.74 131.76C190.1 131.76 191.22 130.72 191.22 129.36C191.22 128 190.1 126.96 188.74 126.96C187.38 126.96 186.26 128 186.26 129.36Z" fill="#22295C"/>
<path d="M178.66 129.36C178.66 130.64 179.78 131.76 181.14 131.76C182.5 131.76 183.62 130.72 183.62 129.36C183.62 128 182.5 126.96 181.14 126.96C179.78 126.96 178.66 128 178.66 129.36Z" fill="#22295C"/>
<path d="M341.22 43.68C327.38 43.52 316.02 54.64 315.86 68.48C315.78 76 319.06 83.12 324.82 88C325.86 88.88 327.46 89.92 327.46 92.16L327.54 97.68H353.94C353.94 97.68 354.02 92.08 354.02 92C354.02 90.08 355.54 89.2 356.58 88.4C362.42 83.76 365.86 76.64 365.94 69.2C366.1 55.36 354.98 44 341.14 43.84L341.22 43.68Z" fill="#FEB101"/>
<path opacity="0.4" d="M341.22 43.68C327.38 43.52 316.02 54.64 315.86 68.48C315.78 76 319.06 83.12 324.82 88C325.86 88.88 327.46 89.92 327.46 92.16L327.54 97.68H353.94C353.94 97.68 354.02 92.08 354.02 92C354.02 90.08 355.54 89.2 356.58 88.4C362.42 83.76 365.86 76.64 365.94 69.2C366.1 55.36 354.98 44 341.14 43.84L341.22 43.68Z" fill="#FEB101"/>
<path opacity="0.2" d="M353.7 54.56C353.7 59.44 348.02 63.44 340.9 63.44C333.78 63.44 328.1 59.44 328.1 54.56C328.1 49.68 333.78 45.68 340.9 45.68C348.02 45.68 353.7 49.68 353.7 54.56Z" fill="white"/>
<path d="M321.7 78.4C319.46 74.56 318.58 70.08 319.22 65.76C319.86 61.44 322.02 57.36 325.22 54.32L325.46 54.64C322.34 57.6 320.26 61.52 319.62 65.84C318.98 70.08 319.86 74.48 322.02 78.24L321.7 78.48V78.4Z" fill="white"/>
<path d="M348.26 92.24C346.98 88.88 345.94 85.36 345.06 81.84C343.78 82.96 342.34 83.52 340.98 83.52C339.86 83.52 338.74 83.04 337.62 82.08C337.46 85.52 336.9 88.96 335.94 92.24L335.14 92C336.18 88.56 336.74 85.04 336.82 81.44C336.66 81.28 336.42 81.12 336.26 80.88C333.46 77.92 332.18 74.32 332.74 71.2C332.98 70 333.7 68.88 334.82 68.88C335.78 68.88 336.58 69.92 336.9 71.6C337.46 74.72 337.78 77.92 337.7 81.12C338.9 82.16 339.94 82.64 341.06 82.72C342.66 82.8 344.02 81.76 344.9 80.96C344.26 78.24 343.78 75.52 343.46 72.8C343.3 71.84 343.22 70.8 343.46 69.84C343.7 68.64 344.5 67.84 345.38 67.6C346.9 67.28 348.18 68.88 348.58 70.72C349.46 74.32 348.34 78.4 345.86 81.12C346.74 84.8 347.78 88.4 349.14 91.84L348.42 92.16L348.26 92.24ZM334.82 69.68C334.26 69.68 333.78 70.56 333.62 71.36C333.06 74.24 334.26 77.6 336.9 80.32C336.9 77.44 336.66 74.56 336.1 71.76C336.02 71.28 335.62 69.68 334.82 69.68ZM345.7 68.4C345.7 68.4 345.54 68.4 345.46 68.4C344.82 68.56 344.34 69.28 344.18 70C344.02 70.8 344.1 71.68 344.18 72.64C344.5 75.2 344.98 77.76 345.46 80.24C347.54 77.76 348.42 74 347.7 70.88C347.38 69.6 346.58 68.32 345.62 68.32L345.7 68.4Z" fill="#263238"/>
<path d="M355.62 96H325.94C325.233 96 324.66 96.5731 324.66 97.28V97.92C324.66 98.6269 325.233 99.2 325.94 99.2H355.62C356.327 99.2 356.9 98.6269 356.9 97.92V97.28C356.9 96.5731 356.327 96 355.62 96Z" fill="#263238"/>
<path opacity="0.3" d="M355.62 96H325.94C325.233 96 324.66 96.5731 324.66 97.28V97.92C324.66 98.6269 325.233 99.2 325.94 99.2H355.62C356.327 99.2 356.9 98.6269 356.9 97.92V97.28C356.9 96.5731 356.327 96 355.62 96Z" fill="white"/>
<path d="M355.14 98.88H326.5C325.793 98.88 325.22 99.4531 325.22 100.16V100.72C325.22 101.427 325.793 102 326.5 102H355.14C355.847 102 356.42 101.427 356.42 100.72V100.16C356.42 99.4531 355.847 98.88 355.14 98.88Z" fill="#263238"/>
<path opacity="0.3" d="M355.14 98.88H326.5C325.793 98.88 325.22 99.4531 325.22 100.16V100.72C325.22 101.427 325.793 102 326.5 102H355.14C355.847 102 356.42 101.427 356.42 100.72V100.16C356.42 99.4531 355.847 98.88 355.14 98.88Z" fill="white"/>
<path d="M330.9 106.4C332.9 110 337.06 113.84 341.14 113.6C345.22 113.36 349.14 109.84 350.66 106L330.9 106.4Z" fill="#263238"/>
<path d="M353.3 104.48H328.42C327.713 104.48 327.14 105.053 327.14 105.76V106.32C327.14 107.027 327.713 107.6 328.42 107.6H353.3C354.007 107.6 354.58 107.027 354.58 106.32V105.76C354.58 105.053 354.007 104.48 353.3 104.48Z" fill="#263238"/>
<path opacity="0.3" d="M353.3 104.48H328.42C327.713 104.48 327.14 105.053 327.14 105.76V106.32C327.14 107.027 327.713 107.6 328.42 107.6H353.3C354.007 107.6 354.58 107.027 354.58 106.32V105.76C354.58 105.053 354.007 104.48 353.3 104.48Z" fill="white"/>
<path d="M354.74 101.6H326.9C326.193 101.6 325.62 102.173 325.62 102.88V103.44C325.62 104.147 326.193 104.72 326.9 104.72H354.74C355.447 104.72 356.02 104.147 356.02 103.44V102.88C356.02 102.173 355.447 101.6 354.74 101.6Z" fill="#263238"/>
<path opacity="0.3" d="M354.74 101.6H326.9C326.193 101.6 325.62 102.173 325.62 102.88V103.44C325.62 104.147 326.193 104.72 326.9 104.72H354.74C355.447 104.72 356.02 104.147 356.02 103.44V102.88C356.02 102.173 355.447 101.6 354.74 101.6Z" fill="white"/>
<path d="M327.06 34.64C328.98 36.56 330.9 38.48 332.74 40.32C332.98 40.56 333.46 40.16 333.14 39.92C331.22 38 329.3 36.08 327.46 34.24C327.22 34 326.74 34.4 327.06 34.64Z" fill="#263238"/>
<path d="M341.94 38.08V27.28C341.94 26.88 341.38 26.88 341.38 27.28V38.08C341.38 38.48 341.94 38.48 341.94 38.08Z" fill="#263238"/>
<path d="M349.86 40.8C351.94 38.72 354.02 36.64 356.02 34.64C356.26 34.4 355.86 33.92 355.62 34.24C353.54 36.32 351.46 38.4 349.46 40.4C349.22 40.64 349.62 41.12 349.86 40.8Z" fill="#263238"/>
<path d="M474.42 318.64H126.42V355.92H474.42V318.64Z" fill="#22295C"/>
<path d="M246.02 322.56H126.42V352H246.02V322.56Z" fill="white"/>
<path d="M126.42 329.84C162.82 329.44 203.62 329.44 239.94 329.84C203.54 330.24 162.74 330.24 126.42 329.84Z" fill="#263238"/>
<path d="M126.42 333.28C162.82 332.88 203.62 332.88 239.94 333.28C203.54 333.68 162.74 333.68 126.42 333.28Z" fill="#263238"/>
<path d="M126.42 336.8C162.82 336.4 203.62 336.4 239.94 336.8C203.54 337.2 162.74 337.2 126.42 336.8Z" fill="#263238"/>
<path d="M126.42 340.32C162.82 339.92 203.62 339.92 239.94 340.32C203.54 340.72 162.74 340.72 126.42 340.32Z" fill="#263238"/>
<path d="M126.42 343.76C162.82 343.36 203.62 343.36 239.94 343.76C203.54 344.16 162.74 344.16 126.42 343.76Z" fill="#263238"/>
<path d="M126.42 347.28C162.82 346.88 203.62 346.88 239.94 347.28C203.54 347.68 162.74 347.68 126.42 347.28Z" fill="#263238"/>
<path d="M126.42 326.32C162.82 325.92 203.62 325.92 239.94 326.32C203.54 326.72 162.74 326.72 126.42 326.32Z" fill="#263238"/>
<path opacity="0.3" d="M287.22 318.64H276.58V355.92H287.22V318.64Z" fill="white"/>
<path opacity="0.3" d="M449.94 318.64H439.3V355.92H449.94V318.64Z" fill="white"/>
<path opacity="0.2" d="M252.74 318.64H126.42V355.92H252.74V318.64Z" fill="black"/>
<path d="M381.22 240H178.98V266.56H381.22V240Z" fill="#22295C"/>
<path d="M264.18 242.8H178.98V263.76H264.18V242.8Z" fill="white"/>
<path d="M178.98 248C204.9 247.6 233.94 247.6 259.86 248C233.94 248.4 204.9 248.4 178.98 248Z" fill="#263238"/>
<path d="M178.98 250.48C204.9 250.08 233.94 250.08 259.86 250.48C233.94 250.88 204.9 250.88 178.98 250.48Z" fill="#263238"/>
<path d="M178.98 252.96C204.9 252.56 233.94 252.56 259.86 252.96C233.94 253.36 204.9 253.36 178.98 252.96Z" fill="#263238"/>
<path d="M178.98 255.44C204.9 255.04 233.94 255.04 259.86 255.44C233.94 255.84 204.9 255.84 178.98 255.44Z" fill="#263238"/>
<path d="M178.98 257.92C204.9 257.52 233.94 257.52 259.86 257.92C233.94 258.32 204.9 258.32 178.98 257.92Z" fill="#263238"/>
<path d="M178.98 260.4C204.9 260 233.94 260 259.86 260.4C233.94 260.8 204.9 260.8 178.98 260.4Z" fill="#263238"/>
<path d="M178.98 245.52C204.9 245.12 233.94 245.12 259.86 245.52C233.94 245.92 204.9 245.92 178.98 245.52Z" fill="#263238"/>
<path opacity="0.3" d="M372.98 240H365.38V266.56H372.98V240Z" fill="black"/>
<path opacity="0.3" d="M292.1 240H284.5V266.56H292.1V240Z" fill="black"/>
<path opacity="0.2" d="M268.98 240H178.98V266.56H268.98V240Z" fill="black"/>
<path opacity="0.3" d="M357.62 249.44H298.82V257.2H357.62V249.44Z" fill="black"/>
<path d="M389.06 303.04H105.22V318.64H389.06V303.04Z" fill="#263238"/>
<path d="M224.5 305.04H105.22V316.64H224.5V305.04Z" fill="white"/>
<path d="M106.02 307.36C142.42 306.96 183.22 306.96 219.54 307.36C183.14 307.76 142.34 307.76 106.02 307.36Z" fill="#263238"/>
<path d="M106.02 310.88C142.42 310.48 183.22 310.48 219.54 310.88C183.14 311.28 142.34 311.28 106.02 310.88Z" fill="#263238"/>
<path d="M106.02 314.32C142.42 313.92 183.22 313.92 219.54 314.32C183.14 314.72 142.34 314.72 106.02 314.32Z" fill="#263238"/>
<path opacity="0.3" d="M258.34 303.04H255.38V318.64H258.34V303.04Z" fill="white"/>
<path opacity="0.3" d="M263.86 303.04H260.9V318.64H263.86V303.04Z" fill="white"/>
<path opacity="0.3" d="M369.86 303.04H366.9V318.64H369.86V303.04Z" fill="white"/>
<path opacity="0.3" d="M375.46 303.04H372.5V318.64H375.46V303.04Z" fill="white"/>
<path opacity="0.2" d="M227.38 303.04H105.22V318.64H227.38V303.04Z" fill="black"/>
<path d="M444.1 266.4H160.26V282H444.1V266.4Z" fill="#263238"/>
<path d="M279.54 268.48H160.26V280.08H279.54V268.48Z" fill="white"/>
<path d="M161.14 270.72C197.54 270.32 238.34 270.32 274.66 270.72C238.26 271.12 197.46 271.12 161.14 270.72Z" fill="#263238"/>
<path d="M161.14 274.24C197.54 273.84 238.34 273.84 274.66 274.24C238.26 274.64 197.46 274.64 161.14 274.24Z" fill="#263238"/>
<path d="M161.14 277.76C197.54 277.36 238.34 277.36 274.66 277.76C238.26 278.16 197.46 278.16 161.14 277.76Z" fill="#263238"/>
<path opacity="0.3" d="M313.38 266.4H310.42V282H313.38V266.4Z" fill="white"/>
<path opacity="0.3" d="M318.98 266.4H316.02V282H318.98V266.4Z" fill="white"/>
<path opacity="0.3" d="M424.98 266.4H422.02V282H424.98V266.4Z" fill="white"/>
<path opacity="0.3" d="M430.58 266.4H427.62V282H430.58V266.4Z" fill="white"/>
<path opacity="0.2" d="M282.42 266.4H160.26V282H282.42V266.4Z" fill="black"/>
<path d="M116.98 303.2L400.82 303.2V281.92L116.98 281.92V303.2Z" fill="#22295C"/>
<path opacity="0.4" d="M116.98 303.2L400.82 303.2V281.92L116.98 281.92V303.2Z" fill="white"/>
<path d="M281.46 301.2H400.74V284.4H281.46V301.2Z" fill="white"/>
<path d="M399.94 291.92C363.54 292.32 322.74 292.32 286.42 291.92C322.82 291.52 363.62 291.52 399.94 291.92Z" fill="#263238"/>
<path d="M399.94 295.36C363.54 295.76 322.74 295.76 286.42 295.36C322.82 294.96 363.62 294.96 399.94 295.36Z" fill="#263238"/>
<path d="M399.94 298.88C363.54 299.28 322.74 299.28 286.42 298.88C322.82 298.48 363.62 298.48 399.94 298.88Z" fill="#263238"/>
<path d="M399.94 288.24C363.54 288.64 322.74 288.64 286.42 288.24C322.82 287.84 363.62 287.84 399.94 288.24Z" fill="#263238"/>
<path opacity="0.2" d="M278.66 303.12H400.82V281.84H278.66V303.12Z" fill="black"/>
<path opacity="0.4" d="M254.34 288.24H142.34V295.36H254.34V288.24Z" fill="white"/>
<path d="M446.74 282.56C446.74 282.56 363.46 265.6 360.02 282.96C355.14 307.76 415.3 322.48 447.06 320.56C478.82 318.64 446.74 282.56 446.74 282.56Z" fill="#263238"/>
<path opacity="0.2" d="M446.74 282.56C446.74 282.56 363.46 265.6 360.02 282.96C355.14 307.76 415.3 322.48 447.06 320.56C478.82 318.64 446.74 282.56 446.74 282.56Z" fill="black"/>
<path opacity="0.2" d="M387.38 287.52L426.98 311.04L422.02 318.56C422.02 318.56 424.9 322.56 429.7 309.92L405.22 294.72C405.22 294.72 412.74 293.76 412.5 292.56C412.1 290.64 395.46 287.44 387.94 286C387.54 285.84 387.14 286.08 386.98 286.48C386.82 286.88 387.06 287.28 387.46 287.44L387.38 287.52Z" fill="black"/>
<path opacity="0.2" d="M428.26 308.24L421.86 319.36C430.18 320.56 438.66 320.96 447.14 320.64C449.94 320.56 452.66 320 455.22 318.96L457.46 314.56L452.1 304.48L428.34 308.32L428.26 308.24Z" fill="black"/>
<path d="M415.22 304.24L432.82 314.72L430.02 323.2L409.46 314.64L415.22 304.24Z" fill="#EBB373"/>
<path d="M442.42 317.28L440.9 323.36C440.9 323.36 439.62 323.68 439.3 324.96C439.06 325.68 439.7 327.6 439.7 327.6L435.62 344.32C435.62 344.32 434.5 344.08 434.02 343.76C433.46 343.36 432.98 343.04 432.66 342.64C431.38 341.28 431.22 339.2 431.14 337.68C430.98 335.12 429.3 327.76 429.3 327.76C429.3 327.76 428.66 325.84 426.58 324.16C425.38 323.28 424.82 322.08 424.9 321.28C425.06 319.76 426.18 319.12 427.54 319.28L429.22 319.44C430.34 318.56 430.66 317.04 429.94 315.6C429.94 315.6 428.82 312 430.42 312.56C431.3 312.88 435.14 314.48 438.26 315.6C438.98 315.84 439.7 316.16 440.26 316.32C441.62 316.8 442.5 317.2 442.5 317.2L442.42 317.28Z" fill="#263238"/>
<path d="M430.02 331.68C430.02 331.6 430.02 331.44 430.02 331.36C430.34 331.04 430.82 330.8 431.3 330.64C431.54 330.64 431.7 330.96 431.46 331.04C431.06 331.12 430.66 331.36 430.34 331.68C430.26 331.76 430.1 331.68 430.02 331.68Z" fill="#22295C"/>
<path d="M429.62 330.16C429.62 330.08 429.62 329.92 429.62 329.84C429.94 329.52 430.42 329.28 430.9 329.12C431.14 329.12 431.3 329.44 431.06 329.52C430.66 329.6 430.26 329.84 429.94 330.16C429.86 330.24 429.7 330.16 429.62 330.16Z" fill="#22295C"/>
<path d="M429.3 328.72C429.3 328.64 429.3 328.48 429.3 328.4C429.62 328.08 430.1 327.84 430.58 327.68C430.82 327.68 430.98 328 430.74 328.08C430.34 328.16 429.94 328.4 429.62 328.72C429.54 328.8 429.38 328.72 429.3 328.72Z" fill="#22295C"/>
<path opacity="0.2" d="M440.18 316.4C441.54 316.88 442.42 317.28 442.42 317.28L440.9 323.36C440.9 323.36 439.62 323.68 439.3 324.96C439.06 325.68 439.7 327.6 439.7 327.6L435.62 344.32C435.62 344.32 434.5 344.08 434.02 343.76C433.78 343.6 433.54 343.44 433.3 343.2L439.86 316.24C439.94 316.24 440.1 316.32 440.18 316.4Z" fill="white"/>
<path d="M426.98 330C426.58 330 426.18 329.92 425.86 329.68C425.62 329.52 425.38 329.2 425.38 328.88C425.38 328.56 425.78 328.32 426.02 328.24C426.58 328 427.14 328 427.86 328.08C428.5 328.16 429.06 328.4 429.62 328.56H429.78L429.62 328.72C429.3 328.96 428.18 329.84 427.54 329.92C427.38 329.92 427.14 329.92 426.98 329.92V330ZM427.22 328.16C426.82 328.16 426.42 328.16 426.1 328.32C425.94 328.32 425.62 328.56 425.62 328.8C425.62 329.04 425.78 329.28 426.02 329.44C426.42 329.68 426.98 329.84 427.54 329.68C428.02 329.6 428.98 328.88 429.38 328.56C428.9 328.4 428.34 328.24 427.86 328.16C427.62 328.16 427.46 328.16 427.22 328.16Z" fill="#22295C"/>
<path d="M429.7 328.72H429.54C429.54 328.64 429.54 328.56 429.54 328.56C429.06 328.32 428.58 327.92 428.18 327.44C427.7 326.96 427.38 326.4 427.3 325.84C427.3 325.6 427.22 325.2 427.46 324.96C427.7 324.72 428.1 324.72 428.42 324.88C428.9 325.12 429.38 325.52 429.62 326.16C429.86 326.72 429.78 328.16 429.78 328.56V328.72H429.7ZM427.86 324.96C427.7 324.96 427.62 324.96 427.54 325.12C427.38 325.28 427.38 325.6 427.46 325.84C427.54 326.32 427.86 326.88 428.34 327.36C428.74 327.76 429.14 328.08 429.54 328.4C429.54 327.6 429.54 326.64 429.38 326.24C429.14 325.68 428.74 325.28 428.34 325.12C428.26 325.12 428.1 325.12 427.94 325.12L427.86 324.96Z" fill="#22295C"/>
<path d="M411.06 230.96C411.06 230.96 408.82 257.92 408.1 259.44C405.54 264.4 387.7 273.28 387.7 273.28L378.42 271.6L371.94 277.28L376.42 280.56L381.46 278.48C384.26 278.88 387.14 279.04 389.94 278.96C394.74 278.8 418.42 272.88 422.1 266.4C425.78 259.92 425.7 229.6 425.7 229.6L411.14 230.96H411.06Z" fill="#EBB373"/>
<path d="M426.34 241.12C426.34 241.12 432.74 217.28 423.7 210.96C414.66 204.64 408.58 237.36 408.58 237.36L426.34 241.12Z" fill="#22295C"/>
<path opacity="0.5" d="M426.34 241.12C426.34 241.12 432.74 217.28 423.7 210.96C414.66 204.64 408.58 237.36 408.58 237.36L426.34 241.12Z" fill="#0093D1"/>
<path d="M422.02 284.48L421.14 253.2L420.58 210.32L438.98 205.76L451.86 205.6L473.62 212.4L474.34 222.88C474.34 222.88 473.7 271.2 473.86 272.72C474.02 274.48 479.62 285.52 479.62 285.52C456.66 291.44 421.78 286.08 422.1 284.48H422.02Z" fill="#0093D1"/>
<path opacity="0.2" d="M421.06 240L420.74 221.28L417.46 239.2L421.06 240Z" fill="black"/>
<path opacity="0.2" d="M460.26 241.76C459.7 241.68 457.38 240.96 457.38 240.96L462.66 222.8L454.42 242.8L459.78 244.72L460.26 241.76Z" fill="black"/>
<path d="M462.34 226.88C462.34 226.88 458.74 256.88 456.26 259.76C452.02 264.64 430.66 277.76 430.66 277.76L419.7 274.32C418.9 274.08 418.1 274.32 417.46 274.72L410.26 280.56L410.98 281.12C411.3 281.36 411.7 281.44 412.1 281.2L413.22 280.56L411.94 281.84L412.34 282.16C412.74 282.48 413.3 282.56 413.86 282.48L417.14 281.52L414.18 283.68C414.9 284.24 415.86 284.4 416.66 284.16L421.46 282.64C424.82 283.28 428.18 283.68 431.54 283.76C437.22 283.92 463.94 273.76 468.74 266.72C473.54 259.68 477.86 230.96 477.86 230.96L462.26 226.96L462.34 226.88Z" fill="#EBB373"/>
<path d="M477.22 246.32C477.22 246.32 483.14 219.04 474.1 212.8C465.06 206.48 457.38 240.96 457.38 240.96L477.22 246.32Z" fill="#22295C"/>
<path opacity="0.5" d="M477.22 246.32C477.22 246.32 483.14 219.04 474.1 212.8C465.06 206.48 457.38 240.96 457.38 240.96L477.22 246.32Z" fill="#0093D1"/>
<path d="M406.02 282.88L422.66 282.4L440.34 281.84C440.34 283.12 438.9 284.24 437.14 284.32L419.46 284.88L409.38 285.2L381.3 286C379.54 286 378.02 285.04 378.02 283.76L406.1 282.96L406.02 282.88Z" fill="#263238"/>
<path d="M380.66 285.84L412.02 284.88C412.58 284.88 412.98 284.48 412.98 284.08C412.98 284 412.98 283.92 412.98 283.84L398.1 252.24C397.7 251.36 396.66 250.72 395.46 250.8L364.1 251.76C363.54 251.76 363.14 252.16 363.14 252.56C363.14 252.64 363.14 252.72 363.14 252.8L378.02 284.4C378.42 285.28 379.46 285.92 380.66 285.84Z" fill="#263238"/>
<path opacity="0.7" d="M364.02 251.76L395.38 250.8C396.58 250.8 397.62 251.36 398.02 252.24L412.34 282.64L422.58 282.32L440.26 281.76C440.26 283.04 438.82 284.16 437.06 284.24L419.38 284.8L409.3 285.12L381.22 285.92C380.66 285.92 380.1 285.84 379.7 285.68C378.98 285.44 378.34 284.96 378.1 284.4L363.22 252.8C363.22 252.72 363.22 252.64 363.22 252.56C363.22 252.16 363.62 251.76 364.18 251.76H364.02Z" fill="white"/>
<path d="M383.38 268.24C384.1 269.76 385.54 270.8 386.5 270.56C387.54 270.32 387.78 268.88 387.06 267.36C386.34 265.84 384.9 264.88 383.94 265.12C382.9 265.36 382.66 266.72 383.38 268.24Z" fill="white"/>
<g opacity="0.3">
<path d="M398.02 252.32L412.34 282.72H410.9L395.38 250.88C396.58 250.88 397.62 251.44 398.02 252.32Z" fill="black"/>
</g>
<path d="M452.42 207.84C452.42 207.84 449.06 201.28 451.22 190.32C449.86 189.68 451.62 186.96 451.62 185.92L437.86 196.16C438.5 199.52 437.86 206.24 437.38 209.04L442.66 213.84L452.42 207.76V207.84Z" fill="#EBB373"/>
<path opacity="0.2" d="M438.18 198.24L446.18 197.6C444.82 200 443.86 202.08 438.02 202.32C438.02 202.32 438.02 199.36 438.18 198.24Z" fill="black"/>
<path d="M432.66 165.68C430.18 168.56 429.14 176.96 434.74 176.64C440.34 176.4 436.9 160.72 432.66 165.68Z" fill="#263238"/>
<path d="M455.7 181.28C452.58 190.08 451.06 195.12 445.22 198.32C420.82 208.24 423.54 166.48 442.34 164.08C451.94 163.12 458.82 172.48 455.7 181.28Z" fill="#EBB373"/>
<path d="M462.9 170.08C461.62 161.52 447.7 161.92 443.54 163.44C442.9 163.68 449.22 169.44 448.82 169.12L451.94 171.28C456.34 173.52 448.42 180.56 452.18 188.24C460.5 187.2 463.54 176.32 462.9 170.08Z" fill="#263238"/>
<path d="M457.14 189.68C454.74 194.16 446.02 195.36 448.26 188.4C450.02 181.6 460.66 181.6 457.14 189.68Z" fill="#EBB373"/>
<path d="M442.34 180.24C441.78 182.4 439.54 181.76 440.18 179.6C440.74 177.44 442.98 178.08 442.34 180.24Z" fill="#263238"/>
<path d="M433.06 177.76C432.5 179.92 430.26 179.28 430.9 177.12C431.46 174.96 433.7 175.6 433.06 177.76Z" fill="#263238"/>
<path d="M436.18 178.16C436.18 178.16 432.02 181.92 430.5 183.44C431.46 184.96 433.78 185.04 433.78 185.04L436.1 178.16H436.18Z" fill="#E4873E"/>
<path d="M445.62 176.48C445.46 176.48 445.3 176.48 445.22 176.32C444.02 174.72 442.42 174.8 442.42 174.8C440.66 173.6 444.34 173.36 445.94 175.84C446.18 176.08 445.94 176.48 445.62 176.56V176.48Z" fill="#263238"/>
<path opacity="0.2" d="M450.9 188.4C450.82 188.4 450.74 188.24 450.74 188.16C451.14 186.8 452.74 185.52 454.02 185.44C454.66 185.44 455.46 185.6 455.94 186.64C455.94 186.72 455.94 186.88 455.86 186.88C455.78 186.88 455.62 186.88 455.62 186.8C455.3 186.08 454.74 185.76 454.1 185.84C452.98 185.92 451.54 187.12 451.14 188.32C451.14 188.4 451.06 188.48 450.98 188.48L450.9 188.4Z" fill="black"/>
<path d="M430.26 172.8C429.94 172.64 429.94 172.16 430.26 172C432.42 170.8 434.18 171.76 434.34 171.84C434.82 172.08 434.42 172.88 433.94 172.64C433.7 172.24 431.94 172.32 430.34 172.8H430.26Z" fill="#263238"/>
<path d="M459.3 183.84C459.3 183.84 453.14 175.04 445.62 170.88C437.3 166.32 431.14 167.68 431.14 167.68C431.14 167.68 429.7 166.24 430.66 165.52C431.54 164.72 432.42 165.44 432.42 165.44C432.42 165.44 441.38 155.92 452.1 158.96C462.82 162 466.34 168.64 465.94 169.12C463.78 171.52 462.5 167.76 462.5 167.76C462.5 167.76 465.06 171.2 462.1 178.32L461.22 181.12C461.22 181.12 461.94 184.32 459.38 183.92L459.3 183.84Z" fill="#263238"/>
<path opacity="0.7" d="M459.3 183.84C459.3 183.84 453.14 175.04 445.62 170.88C437.3 166.32 431.14 167.68 431.14 167.68C431.14 167.68 429.7 166.24 430.66 165.52C431.54 164.72 432.42 165.44 432.42 165.44C432.42 165.44 441.38 155.92 452.1 158.96C462.82 162 466.34 168.64 465.94 169.12C463.78 171.52 462.5 167.76 462.5 167.76C462.5 167.76 465.06 171.2 462.1 178.32L461.22 181.12C461.22 181.12 461.94 184.32 459.38 183.92L459.3 183.84Z" fill="white"/>
<path d="M445.46 170.48C444.34 170.08 443.46 168.96 443.46 167.76C443.46 166.96 443.7 166.24 443.94 165.44C444.18 164.64 444.26 163.84 443.94 163.12C443.62 162.48 442.98 162.08 442.34 162.08C441.7 162.08 440.98 162.4 440.66 163.04C440.9 162.56 440.66 161.92 440.42 161.52C440.1 161.12 439.54 160.88 439.06 160.64C438.18 160.24 437.22 159.76 436.26 160.08C435.3 160.32 434.74 161.28 434.42 162.16C434.02 163.36 433.86 164.64 434.34 165.84C434.9 167.44 436.34 168.56 437.94 169.12C439.54 169.68 441.22 169.76 442.9 169.92" fill="#263238"/>
<path opacity="0.2" d="M462.74 168.32C462.74 168.32 461.54 164.24 456.5 162.24L462.74 168.32Z" fill="black"/>
<path opacity="0.3" d="M460.5 180.8C457.46 174.88 451.14 168.88 444.82 165.92V165.76C451.3 168.72 457.62 174.8 460.66 180.72H460.5V180.8Z" fill="black"/>
<path d="M434.58 188.4C435.22 189.52 435.78 190.72 436.26 192C436.5 192 436.74 191.92 436.98 191.84C440.1 191.12 441.3 189.84 441.7 188.48C441.86 187.84 441.94 187.2 441.78 186.56C441.78 186.16 441.62 185.84 441.46 185.52C440.02 186.88 437.22 187.76 435.7 188.16C435.06 188.32 434.66 188.4 434.66 188.4H434.58Z" fill="#263238"/>
<path d="M435.54 188.08L436.1 189.12C438.98 188.48 440.98 187.6 441.7 186.48C441.7 186.08 441.54 185.76 441.38 185.44C439.94 186.8 437.14 187.68 435.62 188.08H435.54Z" fill="white"/>
<path d="M436.9 191.84C440.02 191.12 441.22 189.84 441.62 188.48C440.42 188.8 439.3 189.28 438.34 189.92C437.7 190.4 437.22 191.04 436.9 191.76V191.84Z" fill="#C15854"/>
<path d="M398.34 318.64L378.26 322.48L374.82 314.24L395.86 306.96L398.34 318.64Z" fill="#EBB373"/>
<path d="M369.38 326.88L366.5 321.36C366.5 321.36 367.22 320.32 366.66 319.12C366.34 318.48 364.58 317.36 364.58 317.36L356.5 302.16C356.5 302.16 357.54 301.6 358.1 301.52C358.74 301.44 359.38 301.44 359.86 301.52C361.7 301.68 363.22 303.12 364.34 304.16C366.18 306 372.34 310.4 372.34 310.4C372.34 310.4 374.1 311.44 376.74 311.28C378.26 311.2 379.46 311.68 379.86 312.32C380.74 313.6 380.34 314.72 379.22 315.6L377.86 316.56C377.62 318 378.34 319.36 379.86 319.84C379.86 319.84 383.06 321.84 381.54 322.4C380.66 322.72 376.74 324.08 373.62 325.28C372.9 325.52 372.26 325.84 371.62 326.08C370.26 326.56 369.38 326.96 369.38 326.96V326.88Z" fill="#263238"/>
<path d="M369.14 307.92C369.22 307.92 369.3 308.08 369.3 308.16C369.3 308.64 369.14 309.12 368.82 309.52C368.66 309.76 368.26 309.52 368.42 309.28C368.66 308.88 368.82 308.48 368.82 308.08C368.82 307.92 368.98 307.84 369.06 307.92H369.14Z" fill="#22295C"/>
<path d="M370.42 308.72C370.5 308.72 370.58 308.88 370.58 308.96C370.58 309.44 370.42 309.92 370.1 310.32C369.94 310.56 369.54 310.32 369.7 310.08C369.94 309.68 370.1 309.28 370.1 308.88C370.1 308.72 370.26 308.64 370.34 308.72H370.42Z" fill="#22295C"/>
<path d="M371.62 309.6C371.7 309.6 371.78 309.76 371.78 309.84C371.78 310.32 371.62 310.8 371.3 311.2C371.14 311.44 370.74 311.2 370.9 310.96C371.14 310.56 371.3 310.16 371.3 309.76C371.3 309.6 371.46 309.52 371.54 309.6H371.62Z" fill="#22295C"/>
<path opacity="0.2" d="M366.66 319.12C366.34 318.48 364.58 317.36 364.58 317.36L356.5 302.16C356.5 302.16 357.54 301.6 358.1 301.52C358.42 301.52 358.66 301.52 358.98 301.52L371.94 326C371.86 326 371.7 326.08 371.62 326.16C370.26 326.64 369.38 327.04 369.38 327.04L366.5 321.52C366.5 321.52 367.22 320.48 366.66 319.28V319.12Z" fill="white"/>
<path d="M371.38 310V309.84C371.46 309.44 371.78 308 372.18 307.52C372.58 307.04 373.06 306.64 373.62 306.56C373.94 306.56 374.34 306.56 374.5 306.88C374.66 307.12 374.58 307.44 374.5 307.76C374.26 308.24 373.86 308.72 373.22 309.12C372.74 309.44 372.18 309.68 371.62 309.92H371.46L371.38 310ZM373.78 306.8C373.78 306.8 373.7 306.8 373.62 306.8C373.14 306.8 372.66 307.2 372.34 307.68C372.1 308 371.86 308.96 371.7 309.76C372.18 309.52 372.66 309.36 373.14 309.04C373.7 308.72 374.1 308.24 374.34 307.76C374.42 307.6 374.58 307.28 374.34 307.04C374.26 306.88 374.02 306.8 373.78 306.8Z" fill="#22295C"/>
<path d="M374.26 311.92C373.94 311.92 373.54 311.84 373.22 311.68C372.66 311.44 371.78 310.32 371.46 310V309.84C372.02 309.84 372.66 309.76 373.3 309.84C374.02 309.84 374.58 310.08 375.06 310.4C375.38 310.64 375.54 310.88 375.54 311.2C375.54 311.52 375.22 311.76 374.9 311.92C374.66 311.92 374.5 312 374.26 312V311.92ZM371.78 310C372.26 310.64 372.98 311.28 373.3 311.52C373.86 311.76 374.42 311.84 374.9 311.68C375.14 311.6 375.38 311.44 375.38 311.2C375.38 310.96 375.14 310.72 374.98 310.64C374.58 310.32 374.02 310.16 373.38 310.08C372.82 310.08 372.34 310.08 371.78 310.08V310Z" fill="#22295C"/>
<path d="M474.02 307.12C478.18 300.08 487.46 280.96 467.38 277.92C447.3 274.88 381.46 308.56 381.46 308.56L386.1 321.2L447.94 309.6C447.94 309.6 439.78 321.2 450.1 320.4C465.06 318.48 468.58 314.8 474.1 307.28L474.02 307.12Z" fill="#263238"/>
<path opacity="0.2" d="M446.42 309.92L463.3 304.08C463.3 304.08 449.22 313.28 444.02 314.48L446.42 310V309.92Z" fill="black"/>
<path d="M323.3 140.8L329.38 133.84L335.54 136L331.3 144.16L323.3 140.8Z" fill="#EEC1BB"/>
<path d="M328.42 133.2C328.42 133.2 327.86 130 329.46 127.92C331.06 125.76 331.7 123.68 332.98 122.16C334.26 120.64 334.26 123.28 334.02 124.72C333.78 126.16 333.46 127.76 334.58 127.76C335.7 127.76 344.02 123.28 345.54 123.52C347.06 123.76 345.94 124.88 345.94 124.88C345.94 124.88 348.02 123.84 348.66 124.56C348.82 124.72 348.9 125.44 348.02 126.08C346.1 127.44 341.86 130.16 341.86 130.16C342.1 130 347.54 127.04 348.42 126.72C349.54 126.24 350.34 126.72 350.58 127.36C350.9 128.32 344.26 132.24 344.1 132.56C344.1 132.56 347.86 130.16 348.98 130.8C350.1 131.44 347.86 133.04 345.54 134.08C343.46 135.04 339.62 137.52 337.38 138.24C334.66 139.2 332.58 139.2 330.74 137.28C328.9 135.28 328.42 133.2 328.42 133.2Z" fill="#EEC1BB"/>
<path opacity="0.3" d="M340.98 128C340.98 128 340.98 128 340.9 128C340.9 128 340.9 127.92 340.9 127.84C342.42 126.8 344.02 125.84 345.7 125.04C345.7 125.04 345.78 125.04 345.86 125.04C345.86 125.04 345.86 125.12 345.86 125.2C344.26 126.08 342.66 127.04 341.14 128H340.98Z" fill="black"/>
<path opacity="0.3" d="M342.74 133.68H342.66C342.1 131.36 340.9 129.2 339.22 127.6C339.22 127.6 339.22 127.52 339.22 127.44C339.22 127.44 339.3 127.44 339.38 127.44C341.14 129.12 342.34 131.28 342.9 133.6V133.68H342.74Z" fill="black"/>
<path opacity="0.3" d="M332.58 134.16C332.58 134.16 332.58 134.16 332.5 134.16C332.5 134.16 332.5 134.08 332.5 134C333.3 133.52 333.94 132.72 334.26 131.84C334.58 130.96 334.58 129.92 334.26 129.04C334.26 129.04 334.26 128.96 334.26 128.88C334.26 128.88 334.34 128.88 334.42 128.88C334.74 129.84 334.74 130.88 334.42 131.84C334.1 132.8 333.38 133.6 332.58 134.08V134.16Z" fill="black"/>
<path d="M349.7 254.56L352.82 245.2L330.18 232.56L325.22 246.8L349.7 254.56Z" fill="#EEC1BB"/>
<path d="M350.02 241.92L348.34 245.04C347.94 245.76 347.94 246.56 348.34 247.28C349.78 250.4 348.18 251.2 344.82 251.92C344.02 253.04 345.22 254.16 345.54 254.48L352.74 261.28C353.3 261.84 354.26 261.84 354.9 261.28C354.98 261.2 355.06 261.04 355.14 260.96C357.14 257.2 358.1 255.44 360.66 250.8L368.34 236.48C370.42 232.56 366.98 229.68 365.7 231.04C360.26 237.36 355.38 241.36 352.1 242.48C351.54 242.72 351.46 242.16 350.1 242L350.02 241.92Z" fill="#263238"/>
<path d="M356.02 236.48C356.02 236 355.7 235.6 355.3 235.44C355.06 235.28 354.82 235.28 354.58 235.44C353.38 236 353.14 240.88 353.06 241.44C353.06 241.44 353.06 241.52 353.06 241.6C353.06 241.6 353.22 241.68 353.3 241.6C354.02 240.8 354.66 239.84 355.22 238.88C355.7 238.16 355.94 237.36 355.86 236.56L356.02 236.48ZM354.74 235.84C354.82 235.84 354.98 235.84 355.06 235.84C355.38 236 355.54 236.32 355.62 236.64C355.78 237.84 354.42 239.84 353.54 240.88C353.7 238.88 354.1 236.16 354.82 235.84H354.74Z" fill="#0093D1"/>
<path d="M353.54 241.44C353.7 240 353.06 236.56 352.02 236.16C351.78 236.08 351.46 236.16 351.14 236.56C349.78 238.56 353.06 241.52 353.22 241.6C353.22 241.6 353.38 241.6 353.46 241.6C353.46 241.6 353.46 241.6 353.46 241.44H353.54ZM351.38 236.8C351.62 236.4 351.78 236.48 351.86 236.56C352.5 236.8 353.14 239.36 353.14 241.04C352.42 240.32 350.58 238.32 351.3 236.96V236.8H351.38Z" fill="#0093D1"/>
<path d="M353.78 244.8C353.78 244.8 353.62 244.8 353.62 244.72C352.98 243.6 352.9 242.24 353.3 241.04C353.3 240.96 353.46 240.88 353.54 240.96C353.62 240.96 353.7 241.12 353.62 241.2C353.22 242.32 353.3 243.52 353.86 244.56C353.86 244.64 353.86 244.8 353.86 244.8C353.86 244.8 353.86 244.8 353.78 244.8Z" fill="#0093D1"/>
<path d="M356.26 243.68C356.26 243.68 356.1 243.68 356.1 243.6C355.46 242.48 355.38 241.12 355.78 239.92C355.78 239.84 355.94 239.76 356.02 239.84C356.1 239.84 356.18 240 356.1 240.08C355.7 241.2 355.78 242.4 356.34 243.44C356.34 243.52 356.34 243.68 356.34 243.68C356.34 243.68 356.34 243.68 356.26 243.68Z" fill="#0093D1"/>
<path d="M358.82 241.92C358.82 241.92 358.66 241.92 358.66 241.84C358.02 240.72 357.94 239.36 358.34 238.16C358.34 238.08 358.5 238 358.58 238.08C358.66 238.08 358.74 238.24 358.66 238.32C358.26 239.44 358.34 240.64 358.9 241.68C358.9 241.76 358.9 241.92 358.9 241.92C358.9 241.92 358.9 241.92 358.82 241.92Z" fill="#0093D1"/>
<path opacity="0.3" d="M342.1 239.28L344.9 240.8L340.58 251.68L337.3 250.64L342.1 239.28Z" fill="black"/>
<path d="M279.22 191.76L290.5 198.64C304.98 199.36 354.02 199.76 354.1 217.2C358.9 237.76 314.58 235.76 285.06 236.08C284.9 236.08 284.66 236.24 284.58 236.4C284.34 236.8 281.46 238.24 277.78 238.88C273.3 239.6 262.98 240.24 256.34 239.2C244.9 237.36 241.62 226.56 243.86 211.28C244.74 205.04 248.18 199.92 249.3 192.08L279.22 191.76Z" fill="#263238"/>
<path opacity="0.2" d="M248.26 214.96V215.68C248.26 215.68 285.62 209.52 308.34 224.48C308.34 224.48 332.98 218.4 337.94 213.84C310.66 228.16 286.26 211.6 286.26 211.6L274.26 206.24C264.42 201.84 254.5 205.2 248.26 215.04V214.96Z" fill="black"/>
<path d="M290.5 239.12L294.82 248L319.86 241.2L313.46 227.6L290.5 239.12Z" fill="#EEC1BB"/>
<path d="M300.34 247.76L298.26 244.96C297.78 244.32 297.06 244 296.26 243.92C292.82 243.92 292.82 242.08 293.62 238.72C292.9 237.52 291.38 238.16 290.98 238.32L281.7 241.84C280.9 242.16 280.5 242.96 280.82 243.76C280.82 243.92 280.98 244 281.06 244.16C283.54 247.6 284.74 249.2 287.86 253.52L297.38 266.64C300.02 270.24 304.1 268.32 303.38 266.64C300.02 258.96 298.58 252.88 298.98 249.44C298.98 248.8 299.54 249.04 300.34 247.84V247.76Z" fill="#263238"/>
<path d="M302.66 255.52C303.06 255.68 303.54 255.52 303.94 255.36C304.18 255.28 304.26 255.04 304.26 254.8C304.26 253.44 300.02 251.12 299.54 250.88C299.54 250.88 299.46 250.88 299.38 250.88C299.3 250.88 299.22 251.04 299.22 251.12C299.62 252.16 300.18 253.12 300.82 254C301.22 254.72 301.86 255.28 302.66 255.6V255.52ZM303.78 254.72C303.78 254.8 303.78 254.96 303.62 254.96C303.38 255.12 302.98 255.2 302.66 255.12C301.46 254.72 300.34 252.64 299.78 251.44C301.46 252.48 303.78 254 303.78 254.72Z" fill="#0093D1"/>
<path d="M299.3 251.2C300.5 251.92 303.86 252.88 304.74 252.08C304.9 251.92 305.06 251.6 304.74 251.12C303.54 249.04 299.46 250.72 299.3 250.8C299.3 250.8 299.14 250.88 299.14 250.96C299.14 250.96 299.14 251.04 299.22 251.04L299.3 251.2ZM304.42 251.2C304.66 251.6 304.5 251.68 304.42 251.68C303.94 252.16 301.3 251.68 299.86 250.88C300.82 250.56 303.38 249.76 304.34 250.96V251.12L304.42 251.2Z" fill="#0093D1"/>
<path d="M299.62 251.52C299.62 251.52 299.54 251.52 299.46 251.52C298.66 250.64 297.46 250.24 296.34 250.32C296.26 250.32 296.1 250.32 296.1 250.16C296.1 250.08 296.1 249.92 296.26 249.92C297.54 249.84 298.82 250.32 299.7 251.28C299.7 251.28 299.7 251.52 299.7 251.6C299.7 251.6 299.62 251.6 299.54 251.6L299.62 251.52Z" fill="#0093D1"/>
<path d="M299.54 254.24C299.54 254.24 299.46 254.24 299.38 254.24C298.58 253.36 297.38 252.96 296.26 253.04C296.18 253.04 296.02 253.04 296.02 252.88C296.02 252.8 296.02 252.64 296.18 252.64C297.46 252.56 298.74 253.04 299.62 254C299.62 254 299.62 254.24 299.62 254.32C299.62 254.32 299.54 254.32 299.46 254.32L299.54 254.24Z" fill="#0093D1"/>
<path d="M300.02 257.28C300.02 257.28 299.94 257.28 299.86 257.28C299.06 256.4 297.86 256 296.74 256.08C296.66 256.08 296.5 256.08 296.5 255.92C296.5 255.84 296.5 255.68 296.66 255.68C297.94 255.6 299.22 256.08 300.1 257.04C300.1 257.04 300.1 257.28 300.1 257.36C300.1 257.36 300.02 257.36 299.94 257.36L300.02 257.28Z" fill="#0093D1"/>
<path d="M342.9 238.48C342.9 238.48 285.46 206.32 265.7 205.68C245.94 205.04 243.7 219.92 250.98 231.44C258.26 242.88 276.42 237.36 276.42 237.36C276.42 237.36 262.02 233.68 263.78 229.84C265.54 225.92 270.9 232 270.9 232C270.9 232 305.78 246.32 336.9 251.44L342.82 238.56L342.9 238.48Z" fill="#263238"/>
<path opacity="0.2" d="M313.3 222.56L331.78 233.2L333.78 232.96L316.26 222L313.3 222.56Z" fill="black"/>
<path opacity="0.2" d="M283.94 236.8C283.94 236.8 265.3 229.44 265.54 229.44C265.78 229.44 277.3 238.08 281.06 238.08L283.94 236.88V236.8Z" fill="black"/>
<path d="M287.94 136.16C287.94 136.16 290.18 135.68 298.42 145.28C304.02 151.84 312.5 156.56 312.5 156.56C313.22 154.96 326.1 136.16 326.1 136.16L334.26 140.8C334.26 140.8 322.26 171.84 314.5 173.04C306.74 174.24 288.5 158.56 288.5 158.56L287.94 136.16Z" fill="#0093D1"/>
<path d="M243.06 147.6C246.58 158.24 246.74 182.4 245.54 195.68H289.46C296.42 169.12 290.42 150.24 289.78 144C289.06 136.4 287.86 136.16 287.86 136.16C287.86 136.16 279.62 135.36 272.5 135.44C266.98 135.68 261.46 136.24 256.02 137.2C251.94 137.84 247.94 138.8 244.02 139.92C242.34 140.4 241.3 142.16 241.86 143.84C241.86 143.84 241.86 143.92 241.86 144C242.26 145.2 242.66 146.4 243.06 147.6Z" fill="#0093D1"/>
<path opacity="0.2" d="M245.54 195.68C246.58 183.28 254.66 168.96 253.38 156.56C257.14 161.84 258.34 172.32 259.86 183.92C260.34 187.68 274.1 191.52 274.74 195.44L245.54 195.6V195.68Z" fill="black"/>
<path d="M252.5 138.64C250.42 141.6 275.62 146.32 275.62 146.32C275.62 146.32 290.34 136.72 273.14 135.28C269.62 134.96 255.7 134.08 252.5 138.72V138.64Z" fill="#CD877B"/>
<path d="M276.5 151.68C276.5 151.68 290.1 140.48 283.06 133.76C276.02 127.04 242.98 124.08 245.78 139.36C245.78 139.36 250.02 138.08 254.34 142.16C263.38 150.8 276.5 151.68 276.5 151.68Z" fill="#0093D1"/>
<path opacity="0.2" d="M275.3 148.48C275.3 148.48 282.98 142.48 280.26 137.12C277.54 131.76 261.54 125.84 250.1 133.28C252.82 134.72 255.38 136.48 257.7 138.48C262.26 142.4 275.3 148.48 275.3 148.48Z" fill="black"/>
<path opacity="0.2" d="M272.42 149.2C272.42 149.6 272.1 150 271.7 150C271.3 150 270.9 149.68 270.9 149.28C270.9 148.88 271.22 148.48 271.62 148.48C272.02 148.48 272.34 148.8 272.34 149.2H272.42Z" fill="black"/>
<path opacity="0.2" d="M280.1 147.04C280.1 147.44 279.78 147.84 279.38 147.84C278.98 147.84 278.58 147.6 278.5 147.2C278.5 146.8 278.74 146.4 279.14 146.32H279.3C279.7 146.32 280.02 146.64 280.02 147.04H280.1Z" fill="black"/>
<path d="M287.22 154.72C287.22 155.12 286.9 155.52 286.5 155.52C286.1 155.52 285.7 155.2 285.7 154.8C285.7 154.4 286.02 154 286.42 154C286.82 154 287.22 154.32 287.22 154.72Z" fill="#263238"/>
<path d="M270.66 158.64C270.66 159.04 270.34 159.36 269.94 159.36C269.54 159.36 269.22 159.04 269.22 158.64C269.22 158.24 269.54 157.92 269.94 157.92C270.34 157.92 270.66 158.24 270.66 158.64Z" fill="#263238"/>
<path d="M286.26 155.04C286.26 155.04 283.3 154.64 282.74 150.88C282.74 149.04 281.14 147.6 279.3 147.6C279.14 147.6 278.98 147.52 278.98 147.36C278.98 147.2 279.06 147.12 279.22 147.04C281.3 147.04 283.06 148.72 283.22 150.8C283.7 154.16 286.18 154.48 286.18 154.56C286.34 154.56 286.42 154.72 286.42 154.88C286.42 155.04 286.26 155.12 286.1 155.12L286.26 155.04Z" fill="#263238"/>
<path d="M269.94 158.64C269.78 158.64 269.7 158.56 269.7 158.4C269.7 156.48 270.34 154.56 271.7 153.12C272.26 152.64 272.5 152 272.58 151.28C272.58 150.56 272.26 149.92 271.7 149.44C271.54 149.36 271.54 149.2 271.7 149.04C271.78 148.88 271.94 148.88 272.1 149.04C272.74 149.6 273.06 150.4 273.14 151.28C273.14 152.16 272.74 152.96 272.1 153.52C270.9 154.8 270.26 156.56 270.26 158.4C270.26 158.56 270.18 158.72 270.02 158.72L269.94 158.64Z" fill="#263238"/>
<path d="M299.46 216.16L301.7 216.56C301.7 216.56 301.06 214.56 308.9 212C316.74 209.44 324.5 208 324.5 208C324.5 208 310.34 207.28 309.94 207.28C309.54 207.28 296.5 211.92 296.5 211.92L299.46 216.16Z" fill="#0093D1"/>
<path d="M293.86 201.76C294.26 201.76 324.5 208 324.5 208C324.5 208 303.46 207.2 299.46 216.16L274.98 206.08C274.98 206.08 281.86 201.52 293.86 201.68V201.76Z" fill="#EBEBEB"/>
<path d="M344.9 201.76V203.12C344.9 203.12 331.3 201.52 324.5 208.08L324.1 204.96L333.14 200.8L344.9 201.84V201.76Z" fill="#0093D1"/>
<path d="M317.38 195.6C317.38 195.6 300.98 191.28 294.9 201.92L324.5 208C324.5 208 325.86 199.84 344.9 201.76L317.38 195.68V195.6Z" fill="#EBEBEB"/>
<path d="M242.74 140.56C242.02 140.8 237.54 144.56 237.78 153.44C238.1 166.4 241.3 193.2 242.74 195.68C244.18 198.16 283.38 209.2 284.02 209.84C284.58 210.48 286.66 203.04 286.66 203.04L256.5 183.92C256.5 183.92 254.74 156.96 254.02 152.88C253.3 148.8 251.22 137.6 242.82 140.56H242.74Z" fill="#0093D1"/>
<path d="M286.26 204.24L287.94 204.96C287.94 204.96 295.94 204.32 297.94 206.32C299.94 208.32 301.06 217.52 301.06 217.52L283.94 209.76L286.18 204.16L286.26 204.24Z" fill="#EEC1BB"/>
<path d="M258.58 139.44C258.58 139.44 262.26 141.84 267.38 144.96C268.42 145.6 273.94 148 275.06 148.4L277.3 146.48C277.38 146.16 277.46 145.76 277.54 145.44C277.78 142.96 276.98 139.68 274.74 138.48C272.26 137.12 270.98 135.84 270.98 133.44C270.98 132.08 271.22 130.64 271.54 129.2L268.82 128.08L258.42 120.56C260.34 125.92 262.74 135.36 258.58 139.44Z" fill="#EEC1BB"/>
<path opacity="0.2" d="M271.06 134C268.34 132.96 265.22 130.88 265.14 127.92C265.14 126.72 265.14 125.52 265.3 124.72L271.38 130.48C271.14 131.6 271.14 132.32 271.06 134Z" fill="black"/>
<path d="M255.06 110.8C257.46 119.84 258.26 123.68 263.78 127.68C272.1 133.68 282.58 129.44 282.98 120.08C283.3 111.6 279.38 98.32 269.78 95.92C260.26 93.6 252.74 101.76 255.06 110.8Z" fill="#EEC1BB"/>
<path d="M267.86 111.68C268.1 112.64 268.74 113.36 269.3 113.28C269.94 113.2 270.26 112.32 270.02 111.36C269.78 110.4 269.14 109.68 268.58 109.76C267.94 109.84 267.62 110.72 267.86 111.68Z" fill="#263238"/>
<path d="M277.14 110.16C277.38 111.12 278.02 111.76 278.58 111.68C279.22 111.6 279.54 110.8 279.3 109.84C279.06 108.88 278.42 108.24 277.86 108.32C277.22 108.4 276.9 109.2 277.14 110.16Z" fill="#263238"/>
<path d="M264.9 108.72C264.98 108.72 265.14 108.72 265.22 108.56C266.42 107.04 268.1 107.2 268.1 107.2C268.34 107.2 268.58 107.04 268.58 106.8C268.58 106.56 268.42 106.32 268.18 106.32C268.1 106.32 266.02 106.08 264.5 108C264.34 108.16 264.42 108.48 264.58 108.64C264.66 108.64 264.82 108.72 264.9 108.72Z" fill="#263238"/>
<path d="M278.66 105.12C278.74 105.12 278.82 104.96 278.82 104.88C278.82 104.64 278.74 104.4 278.5 104.32C276.18 103.52 274.82 104.64 274.74 104.72C274.58 104.88 274.58 105.12 274.74 105.28C274.9 105.44 275.14 105.52 275.3 105.36C275.3 105.36 276.42 104.4 278.26 105.12C278.34 105.12 278.5 105.12 278.58 105.12H278.66Z" fill="#263238"/>
<path d="M273.86 110.24C273.86 110.24 275.86 113.44 277.86 115.28C278.18 115.6 278.1 116.16 277.7 116.4C276.66 117.04 275.22 116.88 275.22 116.88L273.86 110.24Z" fill="#D4827D"/>
<path d="M268.26 109.92L270.26 109.04C270.26 109.04 269.38 110.8 268.26 109.92Z" fill="#263238"/>
<path d="M277.54 108.4L279.54 107.52C279.54 107.52 278.66 109.28 277.54 108.4Z" fill="#263238"/>
<path d="M258.98 122.8C228.26 103.76 262.58 90.88 262.58 90.88C276.34 81.2 276.82 95.92 276.82 95.92C283.7 103.12 273.94 109.44 273.94 109.44C278.02 103.52 271.7 100 271.7 100C272.66 107.84 264.98 110.96 264.98 110.96C268.02 103.84 266.1 100.16 266.1 100.16C263.86 112.8 257.54 115.36 257.54 115.36L258.9 122.8H258.98Z" fill="#263238"/>
<path d="M253.46 118.72C254.82 120.4 256.82 121.28 258.5 121.44C261.06 121.68 261.62 117.52 260.42 115.28C259.3 113.2 256.66 112.16 254.42 113.04C252.18 113.92 251.94 116.8 253.54 118.72H253.46Z" fill="#EEC1BB"/>
<path opacity="0.2" d="M259.54 117.44C259.46 117.44 259.38 117.44 259.38 117.28C259.22 116.56 258.82 115.92 258.26 115.36C257.94 115.04 257.38 114.56 256.66 114.48C256.02 114.48 255.38 114.72 255.14 115.2C255.14 115.28 254.98 115.36 254.9 115.28C254.82 115.28 254.74 115.12 254.82 115.04C255.14 114.4 255.94 114.08 256.74 114.16C257.54 114.24 258.18 114.72 258.58 115.12C259.14 115.68 259.54 116.4 259.78 117.2C259.78 117.28 259.78 117.44 259.62 117.44H259.54Z" fill="black"/>
<path d="M275.06 120.16C274.34 121.04 273.78 122 273.22 122.96C273.06 122.96 272.82 122.8 272.66 122.72C270.1 121.76 269.3 120.48 269.14 119.36C269.14 118.8 269.14 118.24 269.3 117.68C269.38 117.36 269.54 117.12 269.7 116.8C270.74 118.08 272.98 119.2 274.26 119.68C274.82 119.92 275.14 120 275.14 120L275.06 120.16Z" fill="#263238"/>
<path d="M274.26 119.84L273.7 120.64C271.3 119.76 269.78 118.8 269.3 117.76C269.38 117.44 269.54 117.2 269.7 116.88C270.74 118.24 272.98 119.28 274.26 119.76V119.84Z" fill="white"/>
<path d="M272.66 122.8C270.1 121.84 269.3 120.56 269.14 119.44C270.1 119.84 270.98 120.4 271.7 121.04C272.18 121.52 272.5 122.08 272.66 122.8Z" fill="#C15854"/>
<path d="M207.86 311.52L218.18 330.32L227.14 327.68L218.98 305.84L207.86 311.52Z" fill="#895555"/>
<path d="M220.42 340.48L226.82 339.12C226.82 339.12 227.22 337.84 228.5 337.44C229.3 337.28 231.3 337.92 231.3 337.92L248.98 334.32C248.98 334.32 248.74 333.12 248.42 332.64C248.02 332.08 247.7 331.6 247.3 331.2C245.94 329.84 243.78 329.52 242.18 329.36C239.54 329.12 231.86 327.04 231.86 327.04C231.86 327.04 229.86 326.32 228.26 324.08C227.38 322.8 226.1 322.16 225.3 322.24C223.7 322.4 223.06 323.44 223.14 324.96V326.72C222.26 327.92 220.66 328.16 219.22 327.28C219.22 327.28 215.54 326 216.02 327.68C216.34 328.64 217.86 332.72 218.98 336C219.22 336.8 219.46 337.52 219.7 338.16C220.18 339.6 220.5 340.56 220.5 340.56L220.42 340.48Z" fill="#263238"/>
<path d="M236.02 328C235.94 328 235.78 328 235.7 328C235.3 328.32 235.06 328.8 234.9 329.28C234.9 329.52 235.22 329.68 235.3 329.44C235.46 328.96 235.7 328.56 236.02 328.32C236.1 328.24 236.1 328.08 236.02 328Z" fill="#22295C"/>
<path d="M234.5 327.6C234.42 327.6 234.26 327.6 234.18 327.6C233.78 327.92 233.54 328.4 233.38 328.88C233.38 329.12 233.7 329.28 233.78 329.04C233.94 328.56 234.18 328.16 234.5 327.92C234.58 327.84 234.58 327.68 234.5 327.6Z" fill="#22295C"/>
<path d="M232.9 327.2C232.82 327.2 232.66 327.2 232.58 327.2C232.18 327.52 231.94 328 231.78 328.48C231.78 328.72 232.1 328.88 232.18 328.64C232.34 328.16 232.58 327.76 232.9 327.52C232.98 327.44 232.98 327.28 232.9 327.2Z" fill="#22295C"/>
<path opacity="0.2" d="M228.58 337.44C229.38 337.28 231.38 337.92 231.38 337.92L249.06 334.32C249.06 334.32 248.82 333.12 248.5 332.64C248.34 332.4 248.18 332.16 247.94 331.92L219.46 337.76C219.46 337.84 219.54 338 219.54 338.08C220.02 339.52 220.34 340.48 220.34 340.48L226.74 339.12C226.74 339.12 227.14 337.84 228.42 337.44H228.58Z" fill="white"/>
<path d="M232.74 327.6V327.44C232.5 326.88 232.34 326.24 232.26 325.6C232.18 324.88 232.26 324.24 232.5 323.68C232.66 323.28 232.9 323.04 233.22 323.04C233.54 323.04 233.86 323.28 234.1 323.52C234.42 324 234.5 324.64 234.34 325.28C234.18 325.92 233.22 327.04 232.98 327.44V327.6H232.74ZM233.3 323.28C233.06 323.28 232.82 323.6 232.74 323.84C232.5 324.32 232.42 324.96 232.5 325.6C232.5 326.16 232.74 326.72 232.9 327.2C233.46 326.56 234.02 325.76 234.1 325.28C234.26 324.72 234.18 324.08 233.94 323.68C233.78 323.44 233.62 323.28 233.38 323.28H233.3Z" fill="#22295C"/>
<path d="M232.58 327.52C232.02 327.52 230.74 327.52 230.26 327.28C229.62 327.04 229.22 326.56 228.98 326C228.9 325.68 228.82 325.28 229.14 325.04C229.38 324.88 229.7 324.8 230.1 324.88C230.66 325.04 231.22 325.36 231.7 325.92C232.18 326.4 232.5 326.88 232.9 327.44V327.6C232.98 327.6 232.82 327.6 232.82 327.6C232.82 327.6 232.74 327.6 232.66 327.6L232.58 327.52ZM229.62 325.04C229.46 325.04 229.3 325.04 229.22 325.2C229.06 325.36 229.06 325.68 229.14 325.92C229.3 326.4 229.7 326.88 230.26 327.12C230.66 327.28 231.62 327.36 232.5 327.36C232.18 326.88 231.86 326.48 231.46 326.08C230.98 325.6 230.42 325.28 229.94 325.12C229.86 325.12 229.7 325.12 229.62 325.12V325.04Z" fill="#22295C"/>
<path d="M165.38 325.36L160.66 346.24L169.22 350.16L177.46 328.4L165.38 325.36Z" fill="#895555"/>
<path d="M155.7 355.36L161.46 358.56C161.46 358.56 162.58 357.84 163.86 358.48C164.58 358.88 165.62 360.72 165.62 360.72L181.3 369.68C181.3 369.68 181.94 368.64 182.02 368.08C182.1 367.36 182.18 366.8 182.1 366.24C181.94 364.32 180.5 362.64 179.46 361.52C177.62 359.6 173.22 352.96 173.22 352.96C173.22 352.96 172.18 351.12 172.42 348.32C172.58 346.8 172.1 345.52 171.46 345.04C170.18 344.08 168.98 344.48 168.02 345.6L166.98 346.96C165.46 347.2 164.1 346.32 163.62 344.72C163.62 344.72 161.7 341.28 160.98 342.88C160.58 343.76 159.06 347.84 157.7 351.04C157.38 351.76 157.06 352.48 156.82 353.12C156.26 354.48 155.86 355.44 155.86 355.44L155.7 355.36Z" fill="#263238"/>
<path d="M175.62 356.24C175.62 356.16 175.46 356.08 175.38 356.08C174.9 356.08 174.34 356.24 173.94 356.56C173.7 356.72 173.94 357.12 174.18 356.96C174.58 356.72 174.98 356.56 175.46 356.56C175.62 356.56 175.7 356.4 175.7 356.32L175.62 356.24Z" fill="#22295C"/>
<path d="M174.74 354.96C174.74 354.88 174.58 354.8 174.5 354.8C174.02 354.8 173.46 354.96 173.06 355.28C172.82 355.44 173.06 355.84 173.3 355.68C173.7 355.44 174.1 355.28 174.58 355.28C174.74 355.28 174.82 355.12 174.82 355.04L174.74 354.96Z" fill="#22295C"/>
<path d="M173.86 353.6C173.86 353.52 173.7 353.44 173.62 353.44C173.14 353.44 172.58 353.6 172.18 353.92C171.94 354.08 172.18 354.48 172.42 354.32C172.82 354.08 173.22 353.92 173.7 353.92C173.86 353.92 173.94 353.76 173.94 353.68L173.86 353.6Z" fill="#22295C"/>
<path opacity="0.2" d="M163.78 358.48C164.5 358.88 165.54 360.72 165.54 360.72L181.22 369.68C181.22 369.68 181.86 368.64 181.94 368.08C181.94 367.76 182.02 367.44 182.02 367.2L156.82 352.8C156.82 352.88 156.74 353.04 156.66 353.12C156.1 354.48 155.7 355.44 155.7 355.44L161.46 358.64C161.46 358.64 162.58 357.92 163.86 358.56L163.78 358.48Z" fill="white"/>
<path d="M173.46 353.84V353.68C173.78 353.12 174.1 352.56 174.42 352C174.82 351.44 175.3 350.96 175.86 350.72C176.26 350.56 176.58 350.56 176.82 350.72C177.14 350.96 177.14 351.36 177.14 351.68C177.06 352.24 176.66 352.8 176.1 353.2C175.54 353.6 174.1 353.84 173.7 353.92H173.54L173.46 353.84ZM176.42 350.8C176.26 350.8 176.1 350.8 175.94 350.88C175.46 351.12 174.98 351.52 174.58 352.08C174.26 352.56 174.02 353.04 173.78 353.52C174.58 353.36 175.54 353.12 175.94 352.88C176.42 352.56 176.82 352.08 176.9 351.52C176.9 351.28 176.9 350.96 176.66 350.8C176.58 350.8 176.5 350.8 176.42 350.8Z" fill="#22295C"/>
<path d="M173.62 353.84L173.46 353.68C173.14 353.36 172.02 352.4 171.78 351.84C171.54 351.2 171.46 350.56 171.7 350.08C171.86 349.76 172.1 349.44 172.42 349.44C172.66 349.44 172.98 349.6 173.22 349.92C173.54 350.4 173.7 351.04 173.78 351.76C173.78 352.4 173.78 353.04 173.7 353.68V353.84H173.62ZM172.42 349.6C172.18 349.6 171.94 349.84 171.86 350.08C171.7 350.56 171.7 351.2 171.94 351.76C172.1 352.16 172.82 352.88 173.46 353.44C173.46 352.88 173.54 352.32 173.54 351.76C173.54 351.04 173.3 350.48 172.98 350C172.9 349.84 172.66 349.6 172.42 349.6Z" fill="#22295C"/>
<path d="M173.62 188.72C173.62 188.72 176.58 215.12 177.38 216.56C180.1 221.36 197.86 229.6 197.86 229.6L206.9 227.68L213.38 233.12L209.14 236.48L204.1 234.56C201.38 235.04 198.58 235.28 195.78 235.28C191.14 235.28 168.58 229.6 164.74 223.28C160.98 216.96 159.22 187.84 159.22 187.84L173.54 188.72H173.62Z" fill="#895555"/>
<path d="M158.9 199.12C158.9 199.12 151.94 175.92 160.58 169.52C169.22 163.12 176.18 194.96 176.18 194.96L158.9 199.12Z" fill="#0093D1"/>
<path d="M164.34 241.52V210.8L163.62 168.72L146.34 166.24L131.62 166.08L111.7 172.24L111.3 182.56C111.3 182.56 113.38 230 113.22 231.44C113.06 233.2 112.66 246.24 112.66 246.24C135.38 251.44 164.74 243.12 164.42 241.52H164.34Z" fill="#0093D1"/>
<path opacity="0.2" d="M164.02 197.84L163.14 178L167.54 197.04L164.02 197.84Z" fill="black"/>
<path opacity="0.2" d="M125.54 200.72C126.1 200.64 128.9 199.68 128.9 199.68L122.58 182.16L131.22 201.52L126.02 203.6L125.46 200.72H125.54Z" fill="black"/>
<path d="M123.14 186.24C123.14 186.24 127.54 215.6 130.1 218.32C134.42 222.96 155.7 235.28 155.7 235.28L166.34 231.52C167.06 231.28 167.94 231.44 168.5 231.84L175.78 237.36L175.06 237.92C174.74 238.16 174.34 238.24 173.94 238.08L172.82 237.52L174.1 238.72L173.7 239.04C173.3 239.36 172.74 239.52 172.26 239.36L168.98 238.48L172.02 240.48C171.38 241.04 170.42 241.28 169.54 240.96L164.82 239.6C161.54 240.32 158.26 240.8 154.98 241.04C149.38 241.36 122.9 232.16 118.02 225.36C113.06 218.56 108.02 190.48 108.02 190.48L123.22 186.08L123.14 186.24Z" fill="#895555"/>
<path d="M109.06 205.76C109.06 205.76 102.5 179.2 111.14 172.72C119.78 166.32 128.42 199.92 128.42 199.92L109.06 205.76Z" fill="#0093D1"/>
<path d="M180.02 239.52H146.34C146.34 240.8 147.78 241.84 149.54 241.84H176.82H204.42C206.18 241.84 207.54 240.8 207.54 239.52H179.94H180.02Z" fill="#263238"/>
<path d="M204.98 241.68H174.18C173.62 241.68 173.22 241.36 173.22 240.88C173.22 240.8 173.22 240.72 173.22 240.64L186.9 209.2C187.22 208.32 188.26 207.68 189.46 207.68H220.26C220.82 207.68 221.22 208 221.22 208.4C221.22 208.48 221.22 208.56 221.22 208.64L207.54 240.08C207.22 240.96 206.18 241.6 204.98 241.6V241.68Z" fill="#263238"/>
<path opacity="0.7" d="M220.34 207.76H189.54C188.34 207.76 187.3 208.4 186.98 209.28L173.78 239.52H146.34C146.34 240.8 147.78 241.84 149.54 241.84H176.82H204.42C204.98 241.84 205.46 241.68 205.94 241.52C206.66 241.28 207.22 240.8 207.46 240.16L221.14 208.72C221.14 208.64 221.14 208.56 221.14 208.48C221.14 208.08 220.74 207.76 220.18 207.76H220.34Z" fill="white"/>
<path d="M201.86 224.48C201.22 226 199.86 227.04 198.82 226.8C197.78 226.56 197.54 225.2 198.18 223.68C198.82 222.16 200.18 221.12 201.22 221.36C202.26 221.6 202.5 222.88 201.86 224.4V224.48Z" fill="white"/>
<g opacity="0.3">
<path d="M186.98 209.28L173.78 239.52H175.22L189.54 207.76C188.34 207.76 187.3 208.4 186.98 209.28Z" fill="black"/>
</g>
<path d="M155.38 129.6L156.34 130.16C157.46 130.16 158.58 131.04 158.82 132.16C159.06 133.28 158.5 134.56 157.54 135.04C157.38 135.12 157.22 135.2 157.14 135.36C157.06 135.6 157.3 135.84 157.54 136C158.58 136.88 158.42 138.64 157.54 139.6C156.58 140.56 155.14 140.88 153.78 140.8C153.46 136.96 155.7 133.28 155.38 129.52V129.6Z" fill="#263238"/>
<path d="M126.34 140.32C124.9 140.32 123.46 139.52 122.82 138.16C122.66 137.76 122.58 137.36 122.66 136.96C122.82 135.92 124.1 135.36 125.14 135.12C123.94 134.8 123.22 133.68 122.98 132.48C122.9 131.92 122.9 131.36 122.98 130.88C123.3 130 124.02 129.36 124.9 129.04C125.78 128.72 126.66 128.64 127.62 128.48L132.9 145.28C131.7 145.52 130.5 145.68 129.3 145.52C128.1 145.28 126.9 144.72 126.26 143.68C125.62 142.64 125.54 141.2 126.26 140.24L126.34 140.32Z" fill="#263238"/>
<path d="M129.38 166.8C134.26 162.64 134.02 151.04 133.14 144.72L147.06 156.8C146.74 157.52 146.42 158.24 146.18 158.96C145.7 160.32 145.62 161.76 145.86 163.12C146.1 164.24 147.38 167.52 147.38 167.52C147.38 167.52 148.1 171.12 138.58 170.96C134.42 171.36 129.3 166.72 129.3 166.72L129.38 166.8Z" fill="#895555"/>
<path opacity="0.2" d="M135.62 151.12C134.82 158.48 142.18 162 145.86 163.2C145.62 161.76 145.7 160.32 146.18 159.04L135.54 151.12H135.62Z" fill="black"/>
<path d="M130.74 139.28C132.5 148 133.22 152.88 138.42 156.8C146.18 162.64 156.5 157.28 157.54 148.24C158.42 140.08 155.46 127.28 146.18 124.96C137.06 122.72 129.06 130.56 130.82 139.28H130.74Z" fill="#895555"/>
<path d="M128.18 128.88C128.74 123.92 141.22 122.24 144.98 124.24C145.54 124.56 138.66 129.12 139.06 128.88L135.78 130.48C135.22 130.48 134.26 131.2 133.94 132.88C133.94 132.88 136.1 146.24 132.74 150.64C129.38 149.52 128.5 144.24 127.06 141.2C124.98 136.64 122.26 130 128.18 128.88Z" fill="#263238"/>
<path d="M128.18 147.04C129.22 149.2 131.14 150.72 133.06 151.36C135.94 152.32 136.58 149.36 135.94 146.64C135.38 144.16 134.26 141.28 131.3 141.52C128.42 141.76 127.06 144.64 128.26 147.12L128.18 147.04Z" fill="#895555"/>
<path d="M142.82 139.68C142.9 140.56 143.54 141.2 144.1 141.12C144.74 141.04 145.06 140.24 144.98 139.36C144.9 138.48 144.26 137.84 143.7 137.92C143.06 138 142.74 138.8 142.82 139.68Z" fill="#263238"/>
<path d="M151.94 139.2C152.02 140.08 152.66 140.72 153.22 140.64C153.78 140.56 154.18 139.76 154.1 138.88C154.02 138 153.38 137.36 152.82 137.44C152.18 137.52 151.86 138.32 151.94 139.2Z" fill="#263238"/>
<path d="M150.02 139.04C150.02 139.04 153.54 143.12 154.74 144.8C153.62 146.08 151.3 145.84 151.3 145.84L150.02 139.04Z" fill="#6D3939"/>
<path d="M141.14 136.16C141.3 136.16 141.46 136.16 141.54 136.08C142.9 134.72 144.5 135.04 144.5 135.04C144.74 135.04 144.98 134.96 144.98 134.72C144.98 134.48 144.9 134.24 144.66 134.24C144.58 134.24 142.58 133.84 140.9 135.52C140.74 135.68 140.74 135.92 140.9 136.08L141.06 136.16H141.14Z" fill="#263238"/>
<path opacity="0.2" d="M134.34 146.64C134.26 146.64 134.18 146.64 134.18 146.48C134.02 145.76 133.62 145.12 133.14 144.56C132.82 144.24 132.26 143.76 131.54 143.68C130.9 143.68 130.34 143.92 130.1 144.32C130.1 144.4 129.94 144.48 129.86 144.4C129.78 144.4 129.7 144.24 129.78 144.16C130.1 143.52 130.9 143.2 131.62 143.28C132.42 143.36 133.06 143.84 133.46 144.24C134.02 144.8 134.42 145.52 134.66 146.32C134.66 146.4 134.66 146.56 134.5 146.56L134.34 146.64Z" fill="black"/>
<path d="M156.5 134.8C156.5 134.8 156.66 134.8 156.74 134.64C156.9 134.48 156.82 134.16 156.66 134.08C154.74 132.64 152.9 133.36 152.74 133.36C152.5 133.44 152.42 133.68 152.5 133.92C152.58 134.16 152.82 134.24 153.06 134.16C153.06 134.16 154.58 133.6 156.1 134.8C156.26 134.88 156.34 134.88 156.5 134.8Z" fill="#263238"/>
<path d="M125.3 124.88C125.78 122.8 128.42 122 130.5 122.24C130.1 119.76 133.3 118 135.38 117.76C137.54 117.6 138.42 118.32 138.42 118.32C138.26 118.32 138.9 117.04 139.38 116.48C141.06 114.4 144.02 113.52 146.5 114.32C148.98 115.12 150.98 117.52 151.22 120.16C152.42 118.64 154.82 118.48 156.26 119.68C157.7 120.96 157.86 123.44 156.66 124.88C158.26 124.8 159.78 126.32 159.78 127.92C159.78 129.6 158.26 131.04 156.66 130.96C156.74 132.8 156.82 135.12 156.98 136.96L153.7 130.48C152.34 130.16 152.02 129.6 151.62 128.24C150.9 130.08 149.38 130.08 147.38 130.24C145.46 130.4 143.46 129.36 142.42 127.6C141.62 129.52 139.86 131.12 137.86 131.28C135.86 131.44 133.7 129.92 133.46 127.84C132.5 129.76 130.02 130.72 128.02 129.92C126.02 129.2 124.82 126.8 125.22 124.72L125.3 124.88Z" fill="#263238"/>
<path d="M150.98 148.8C150.26 149.76 149.54 150.8 148.98 151.84C148.74 151.84 148.58 151.68 148.34 151.6C145.62 150.56 144.66 149.2 144.5 147.92C144.42 147.36 144.5 146.72 144.66 146.16C144.74 145.84 144.9 145.52 145.14 145.28C146.26 146.72 148.74 147.84 150.1 148.4C150.66 148.64 151.06 148.8 151.06 148.8H150.98Z" fill="#263238"/>
<path d="M150.1 148.4L149.46 149.28C146.9 148.32 145.22 147.28 144.74 146.16C144.82 145.84 144.98 145.52 145.22 145.28C146.34 146.72 148.82 147.84 150.18 148.4H150.1Z" fill="white"/>
<path d="M148.42 151.6C145.7 150.56 144.74 149.2 144.58 147.92C145.62 148.32 146.58 148.96 147.38 149.68C147.94 150.16 148.26 150.88 148.42 151.6Z" fill="#C15854"/>
<path d="M198.58 271.44C198.26 274.8 197.54 279.36 196.66 282.64C194.26 291.84 191.54 300.64 188.18 309.76C181.62 327.76 176.26 344.48 176.26 344.48L159.54 339.44C159.54 339.44 170.66 287.28 178.1 281.92H132.26C131.38 281.92 130.58 281.92 129.7 281.76C137.62 280.72 149.86 275.84 161.3 271.04C171.38 266.72 180.82 262.4 185.94 260.8C192.18 263.44 199.14 266.16 198.66 271.44H198.58Z" fill="#263238"/>
<path opacity="0.6" d="M185.86 260.88C180.74 262.56 171.3 266.8 161.22 271.12C149.78 276 137.54 280.88 129.62 281.84C116.34 280.08 111.3 264.24 125.22 245.92C134.26 245.92 143.3 254.56 143.3 254.56C143.3 254.56 170.58 254.4 185.86 260.8V260.88Z" fill="black"/>
<path d="M223.14 317.04L212.02 323.76C212.02 323.76 202.74 304.32 193.94 282.4C194.82 279.12 195.46 275.84 195.78 272.48C196.26 267.2 192.1 263.52 185.86 260.88C180.74 262.56 171.3 266.8 161.22 271.12C149.78 276 137.54 280.88 129.62 281.84C128.74 282 127.78 282 126.9 282C111.7 282 106.5 268.72 112.58 246.16C121.62 246.16 137.06 245.2 137.06 245.2C137.06 245.2 166.9 238 188.34 240.48C198.82 241.68 207.22 249.52 209.3 259.84C214.82 287.2 223.14 316.88 223.14 316.88V317.04Z" fill="#263238"/>
<path d="M224.9 317.84L212.1 323.76C212.1 323.76 202.82 304.32 194.02 282.4C194.9 279.12 195.54 275.84 195.86 272.48C196.34 267.2 192.18 263.52 185.94 260.88C180.82 262.56 171.38 266.8 161.3 271.12C149.86 276 137.62 280.88 129.7 281.84C128.82 282 127.86 282 126.98 282C111.78 282 106.58 268.72 112.66 246.16C121.7 246.16 137.14 245.2 137.14 245.2C137.14 245.2 166.98 238 188.42 240.48C198.9 241.68 207.3 249.52 209.38 259.84C214.9 287.2 224.98 317.76 224.98 317.76L224.9 317.84Z" fill="#263238"/>
<path opacity="0.2" d="M198.58 271.44C198.26 274.8 197.54 279.36 196.66 282.64C194.26 291.84 191.54 300.64 188.18 309.76C181.62 327.76 176.26 344.48 176.26 344.48L159.54 339.44C159.54 339.44 170.66 287.28 178.1 281.92H132.26C131.38 281.92 130.58 281.92 129.7 281.76C137.62 280.72 149.86 275.84 161.3 271.04C171.38 266.72 180.82 262.4 185.94 260.8C192.18 263.44 199.14 266.16 198.66 271.44H198.58Z" fill="black"/>
<path d="M147.46 216.32C149.713 216.32 151.54 210.518 151.54 203.36C151.54 196.202 149.713 190.4 147.46 190.4C145.207 190.4 143.38 196.202 143.38 203.36C143.38 210.518 145.207 216.32 147.46 216.32Z" fill="white"/>
</svg>
