<svg width="604" height="381" viewBox="0 0 604 381" fill="none" xmlns="http://www.w3.org/2000/svg">
<g clip-path="url(#clip0_5_28927)">
<path d="M358.4 11.6885C401.882 -11.5849 457.069 0.616124 486.327 41.883L485.332 42.5898C456.434 1.83238 401.922 -10.215 358.975 12.7659C355.327 14.7188 351.805 16.8997 348.43 19.2957C304.266 50.6304 293.82 112.065 325.144 156.244L324.148 156.951C292.435 112.223 303.01 50.0234 347.723 18.2994C351.14 15.8741 354.706 13.6661 358.4 11.6885Z" fill="#E6E6E6"/>
<path d="M588.749 111.167L445.733 100.038C443.513 99.8622 441.453 98.8132 440.005 97.1205C438.557 95.4278 437.84 93.2298 438.01 91.0085L444.21 21.4984C444.385 19.2776 445.434 17.2169 447.126 15.7686C448.818 14.3203 451.015 13.6025 453.236 13.7728L596.252 24.9027C598.472 25.078 600.531 26.127 601.979 27.8197C603.427 29.5124 604.145 31.7104 603.974 33.9317L597.774 103.442C597.599 105.663 596.55 107.723 594.858 109.172C593.166 110.62 590.969 111.338 588.749 111.167Z" fill="#E6E6E6"/>
<path d="M554.966 95.464C553.881 95.464 552.791 95.4216 551.698 95.3367L459.272 88.1438C457.424 88.0001 455.622 87.4936 453.97 86.6533C452.317 85.813 450.847 84.6554 449.642 83.2465C448.437 81.8376 447.521 80.205 446.946 78.442C446.372 76.679 446.15 74.8201 446.294 72.9714L448.402 45.8699C448.696 42.1378 450.458 38.6749 453.302 36.241C456.145 33.807 459.838 32.6008 463.569 32.887L583.087 42.1882C586.818 42.4829 590.28 44.2458 592.713 47.0902C595.146 49.9346 596.351 53.6283 596.066 57.3609C595.259 67.7181 590.582 77.3913 582.965 84.4529C575.348 91.5144 565.351 95.446 554.966 95.464Z" fill="white"/>
<path d="M580.228 63.733L463.064 54.615C462.82 54.596 462.582 54.5291 462.363 54.4181C462.145 54.3071 461.951 54.1542 461.792 53.9681C461.633 53.782 461.512 53.5664 461.436 53.3335C461.36 53.1007 461.331 52.8552 461.35 52.611C461.369 52.3668 461.435 52.1288 461.546 51.9104C461.657 51.6921 461.81 51.4978 461.996 51.3386C462.182 51.1793 462.398 51.0583 462.631 50.9824C462.863 50.9065 463.109 50.8772 463.353 50.8962L580.517 60.0142C580.761 60.0332 580.999 60.1001 581.217 60.2111C581.435 60.3221 581.63 60.475 581.789 60.6611C581.948 60.8472 582.069 61.0629 582.145 61.2957C582.221 61.5286 582.25 61.7741 582.231 62.0183C582.212 62.2625 582.145 62.5005 582.034 62.7188C581.923 62.9372 581.77 63.1315 581.584 63.2907C581.398 63.4499 581.183 63.571 580.95 63.6468C580.717 63.7227 580.472 63.752 580.228 63.733Z" fill="#E6E6E6"/>
<path d="M531.578 67.3388L462.492 61.9624C462 61.9238 461.542 61.6909 461.221 61.3151C460.9 60.9393 460.741 60.4513 460.779 59.9584C460.818 59.4654 461.05 59.0078 461.426 58.6862C461.801 58.3647 462.289 58.2054 462.782 58.2435L531.867 63.6199C532.112 63.6388 532.35 63.7056 532.568 63.8165C532.786 63.9275 532.981 64.0804 533.14 64.2665C533.299 64.4526 533.421 64.6683 533.496 64.9013C533.572 65.1342 533.602 65.3799 533.583 65.6241C533.564 65.8684 533.497 66.1066 533.386 66.325C533.275 66.5434 533.122 66.7377 532.936 66.897C532.749 67.0562 532.534 67.1772 532.301 67.253C532.068 67.3289 531.822 67.358 531.578 67.3388Z" fill="#E6E6E6"/>
<path d="M546.797 75.915L461.921 69.3097C461.677 69.2909 461.439 69.2241 461.22 69.1131C461.002 69.0022 460.808 68.8493 460.648 68.6632C460.489 68.477 460.368 68.2613 460.292 68.0284C460.216 67.7954 460.187 67.5498 460.206 67.3055C460.225 67.0612 460.292 66.8231 460.403 66.6047C460.514 66.3863 460.667 66.1919 460.853 66.0327C461.039 65.8734 461.255 65.7524 461.488 65.6766C461.72 65.6008 461.966 65.5716 462.21 65.5908L547.086 72.1961C547.579 72.2347 548.036 72.4675 548.357 72.8433C548.679 73.2191 548.837 73.7071 548.799 74.2001C548.761 74.6931 548.528 75.1506 548.153 75.4722C547.777 75.7938 547.29 75.9531 546.797 75.915Z" fill="#E6E6E6"/>
<path d="M579.179 205.526L436.163 194.397C433.943 194.221 431.883 193.172 430.435 191.479C428.987 189.787 428.27 187.589 428.44 185.368L434.64 115.857C434.815 113.637 435.864 111.576 437.556 110.128C439.248 108.679 441.445 107.962 443.666 108.132L586.681 119.262C588.902 119.437 590.961 120.486 592.409 122.179C593.857 123.871 594.575 126.069 594.404 128.291L588.204 197.801C588.029 200.022 586.98 202.082 585.288 203.531C583.596 204.979 581.399 205.697 579.179 205.526Z" fill="#E6E6E6"/>
<path d="M545.36 189.822C544.289 189.822 543.212 189.78 542.128 189.696L449.702 182.503C447.854 182.359 446.052 181.853 444.4 181.012C442.747 180.172 441.277 179.014 440.072 177.606C438.866 176.197 437.951 174.564 437.376 172.801C436.802 171.038 436.58 169.179 436.724 167.33L438.831 140.229C438.975 138.38 439.482 136.578 440.322 134.925C441.162 133.272 442.319 131.801 443.728 130.595C445.136 129.39 446.768 128.473 448.531 127.899C450.293 127.324 452.151 127.102 454 127.246L573.517 136.547C575.365 136.691 577.167 137.198 578.819 138.038C580.472 138.878 581.942 140.036 583.148 141.445C584.353 142.854 585.269 144.487 585.843 146.25C586.417 148.013 586.639 149.872 586.495 151.72C585.677 162.079 580.991 171.75 573.368 178.81C565.746 185.87 555.747 189.801 545.36 189.822Z" fill="white"/>
<path d="M570.658 158.092L453.494 148.974C453.25 148.955 453.012 148.888 452.793 148.777C452.575 148.666 452.381 148.513 452.222 148.327C452.063 148.141 451.942 147.925 451.866 147.693C451.79 147.46 451.761 147.214 451.78 146.97C451.799 146.726 451.865 146.488 451.976 146.269C452.087 146.051 452.24 145.857 452.426 145.698C452.612 145.538 452.828 145.417 453.061 145.341C453.293 145.266 453.539 145.236 453.783 145.255L570.947 154.373C571.191 154.392 571.429 154.459 571.647 154.57C571.865 154.681 572.06 154.834 572.219 155.02C572.378 155.206 572.499 155.422 572.575 155.655C572.651 155.888 572.68 156.133 572.661 156.377C572.642 156.621 572.575 156.86 572.464 157.078C572.353 157.296 572.2 157.491 572.014 157.65C571.828 157.809 571.613 157.93 571.38 158.006C571.147 158.082 570.902 158.111 570.658 158.092Z" fill="#E6E6E6"/>
<path d="M522.008 161.698L452.922 156.321C452.678 156.303 452.44 156.236 452.222 156.125C452.003 156.014 451.809 155.861 451.65 155.675C451.49 155.489 451.369 155.273 451.293 155.04C451.217 154.807 451.188 154.562 451.207 154.317C451.226 154.073 451.293 153.835 451.404 153.616C451.515 153.398 451.668 153.204 451.854 153.044C452.04 152.885 452.256 152.764 452.489 152.688C452.722 152.613 452.967 152.583 453.212 152.603L522.297 157.979C522.79 158.018 523.247 158.25 523.569 158.626C523.89 159.002 524.049 159.49 524.01 159.983C523.972 160.476 523.74 160.934 523.364 161.255C522.989 161.577 522.501 161.736 522.008 161.698Z" fill="#E6E6E6"/>
<path d="M537.227 170.274L452.351 163.669C451.858 163.63 451.4 163.398 451.079 163.022C450.757 162.646 450.598 162.158 450.637 161.665C450.675 161.171 450.908 160.714 451.283 160.392C451.659 160.071 452.147 159.911 452.64 159.95L537.516 166.555C538.009 166.593 538.466 166.826 538.788 167.202C539.109 167.578 539.269 168.066 539.23 168.559C539.192 169.052 538.959 169.51 538.583 169.832C538.208 170.153 537.72 170.312 537.227 170.274Z" fill="#E6E6E6"/>
<path d="M215.388 169.209C213.572 165.094 212.585 160.661 212.482 156.164C212.379 151.667 213.163 147.193 214.788 142.999C216.414 138.805 218.849 134.972 221.955 131.72C225.061 128.467 228.777 125.858 232.891 124.042C237.005 122.226 241.437 121.239 245.932 121.136C250.428 121.033 254.899 121.817 259.092 123.443C263.285 125.069 267.116 127.505 270.368 130.612C273.619 133.719 276.227 137.436 278.043 141.552L276.925 142.045C275.175 138.077 272.66 134.492 269.524 131.495C266.389 128.499 262.694 126.15 258.651 124.582C254.608 123.014 250.295 122.258 245.96 122.357C241.625 122.456 237.352 123.409 233.385 125.16C229.417 126.911 225.834 129.427 222.838 132.564C219.843 135.7 217.495 139.396 215.927 143.441C214.36 147.485 213.604 151.799 213.703 156.136C213.802 160.473 214.754 164.747 216.505 168.716L215.388 169.209Z" fill="#E6E6E6"/>
<path d="M570.321 360.237C584.302 353.609 594.716 340.275 593.091 325.621C580.548 335.782 563.471 341.455 545.842 341.319C538.976 341.267 531.286 340.568 526.296 344.422C523.192 346.82 521.791 350.628 521.614 354.423C521.437 358.219 522.357 362.06 523.272 365.851L522.993 366.749C539.409 367.795 556.339 366.864 570.321 360.237Z" fill="#F2F2F2"/>
<path d="M592.747 325.585C587.339 336.14 577.964 344.937 566.313 350.086C563.76 351.278 561.042 352.077 558.251 352.456C555.408 352.753 552.535 352.378 549.864 351.359C547.332 350.45 544.836 349.267 542.15 348.907C540.835 348.723 539.497 348.807 538.215 349.152C536.933 349.498 535.734 350.099 534.69 350.919C532.209 352.849 530.728 355.52 529.387 358.185C527.898 361.144 526.406 364.243 523.489 366.259C523.136 366.503 523.628 367.012 523.981 366.768C529.055 363.259 529.787 356.915 533.818 352.666C534.767 351.593 535.945 350.749 537.266 350.197C538.587 349.645 540.015 349.399 541.445 349.477C544.185 349.679 546.76 350.898 549.317 351.838C551.917 352.865 554.706 353.322 557.498 353.18C560.312 352.932 563.068 352.231 565.658 351.104C571.292 348.759 576.507 345.513 581.099 341.494C586.173 337.104 590.361 331.785 593.439 325.823C593.626 325.458 592.932 325.223 592.747 325.585Z" fill="white"/>
<path d="M570.216 348.599C571.688 350.336 573.664 351.571 575.87 352.132C578.076 352.693 580.402 352.552 582.525 351.729C582.932 351.557 582.599 350.961 582.192 351.132C580.217 351.902 578.051 352.033 575.998 351.507C573.945 350.981 572.109 349.825 570.747 348.201C570.461 347.853 569.932 348.253 570.216 348.599Z" fill="white"/>
<path d="M551.094 351.967C551.365 349.905 552.069 347.924 553.16 346.154C554.251 344.384 555.705 342.866 557.425 341.698C557.777 341.453 557.285 340.945 556.934 341.19C555.146 342.408 553.637 343.992 552.506 345.836C551.375 347.68 550.647 349.743 550.371 351.889C550.321 352.298 551.044 352.373 551.094 351.967Z" fill="white"/>
<path d="M585.343 336.656C584.671 336.139 584.141 335.459 583.806 334.68C583.47 333.901 583.338 333.049 583.424 332.205C583.48 331.798 582.756 331.722 582.701 332.127C582.61 333.06 582.757 334 583.126 334.861C583.495 335.722 584.075 336.476 584.812 337.054C584.878 337.12 584.965 337.161 585.058 337.171C585.151 337.181 585.244 337.159 585.323 337.109C585.357 337.083 585.385 337.049 585.405 337.011C585.425 336.973 585.437 336.93 585.439 336.887C585.44 336.844 585.433 336.801 585.416 336.761C585.4 336.721 585.375 336.685 585.343 336.656Z" fill="white"/>
<path d="M546.963 294.639C546.92 294.892 546.876 295.145 546.828 295.4C546.23 298.794 545.316 302.125 544.098 305.348C544.008 305.599 543.913 305.852 543.815 306.099C540.735 313.904 536.052 320.976 530.068 326.857C527.63 329.259 525.001 331.459 522.206 333.435C518.31 336.193 513.813 338.887 511.348 342.603C511.086 342.986 510.852 343.387 510.647 343.803L521.755 366.285C521.808 366.327 521.856 366.371 521.909 366.413L522.308 367.326C522.462 367.232 522.62 367.132 522.774 367.039C522.864 366.985 522.952 366.927 523.041 366.873C523.101 366.835 523.16 366.798 523.216 366.767C523.235 366.755 523.255 366.742 523.269 366.732C523.325 366.701 523.373 366.667 523.424 366.638C524.307 366.082 525.186 365.519 526.063 364.949C526.068 364.947 526.068 364.947 526.071 364.94C532.734 360.582 539 355.658 544.149 349.975C544.304 349.804 544.464 349.632 544.614 349.451C546.902 346.897 548.952 344.139 550.737 341.211C551.698 339.619 552.567 337.972 553.339 336.28C555.319 331.907 556.492 327.212 556.802 322.421C557.429 312.825 554.584 302.903 547.509 295.221C547.328 295.025 547.149 294.833 546.963 294.639Z" fill="#F2F2F2"/>
<path d="M546.679 294.792C549.773 306.661 548.707 319.179 543.468 329.83C542.378 332.195 540.877 334.348 539.035 336.188C537.062 337.998 534.636 339.239 532.014 339.781C529.503 340.376 526.833 340.718 524.579 341.861C523.473 342.415 522.514 343.223 521.78 344.219C521.046 345.215 520.557 346.37 520.355 347.591C519.804 350.567 520.503 353.631 521.302 356.615C522.19 359.928 523.169 363.36 522.35 366.644C522.251 367.041 522.963 367.207 523.063 366.81C524.487 361.098 520.742 355.322 520.885 349.543C520.952 346.847 521.934 344.22 524.437 342.725C526.626 341.419 529.378 341.064 531.928 340.482C534.505 339.981 536.919 338.858 538.962 337.209C540.907 335.472 542.504 333.381 543.667 331.047C546.332 325.904 548.046 320.321 548.724 314.567C549.537 307.892 549.074 301.122 547.358 294.62C547.251 294.21 546.572 294.384 546.679 294.792Z" fill="white"/>
<path d="M545.383 326.463C549.953 327.895 554.801 326.182 556.717 322.48C556.905 322.115 556.253 321.788 556.064 322.154C554.269 325.622 549.783 327.178 545.511 325.839C545.062 325.698 544.936 326.323 545.383 326.463Z" fill="white"/>
<path d="M533.346 339.633C532.176 337.867 531.377 335.882 530.997 333.798C530.618 331.714 530.665 329.574 531.138 327.509C531.235 327.111 530.523 326.945 530.425 327.343C529.939 329.494 529.894 331.721 530.294 333.889C530.694 336.057 531.53 338.122 532.752 339.957C532.991 340.331 533.584 340.005 533.346 339.633Z" fill="white"/>
<path d="M548.627 308.175C547.73 308.074 546.866 307.776 546.097 307.302C545.328 306.829 544.673 306.191 544.179 305.436C543.944 305.06 543.352 305.386 543.585 305.759C544.134 306.592 544.859 307.296 545.707 307.82C546.556 308.345 547.508 308.68 548.499 308.8C548.696 308.823 548.879 308.754 548.919 308.571C548.93 308.48 548.906 308.388 548.851 308.315C548.797 308.241 548.717 308.191 548.627 308.175Z" fill="white"/>
<path d="M570.543 200.607L562.046 155.353L545.363 133.388L533.001 141.474C534.747 150.952 547.962 168.646 547.962 168.646L559.674 203.644C559.627 203.826 559.584 204.01 559.553 204.198C559.367 205.306 559.47 206.442 559.851 207.498C560.233 208.554 560.88 209.493 561.731 210.226C562.582 210.958 563.607 211.458 564.707 211.679C565.808 211.899 566.946 211.831 568.013 211.483C569.08 211.134 570.039 210.516 570.797 209.688C571.556 208.861 572.088 207.851 572.342 206.758C572.596 205.664 572.564 204.524 572.249 203.446C571.934 202.369 571.347 201.391 570.543 200.607Z" fill="#FFB8B8"/>
<path d="M533.333 146.255L547.329 134.891L547.356 134.831C549.973 128.897 544.161 118.721 538.824 111.231C537.062 108.762 534.429 107.055 531.457 106.454C528.485 105.853 525.396 106.404 522.814 107.994C520.918 109.18 519.39 110.873 518.405 112.882C517.42 114.891 517.016 117.135 517.239 119.362L518.417 130.698L533.333 146.255Z" fill="#915BA4"/>
<path d="M483.866 371.464L474.553 371.463L470.123 335.53L483.868 335.53L483.866 371.464Z" fill="#FFB8B8"/>
<path d="M486.241 368.422L483.62 368.422L473.386 364.258L467.901 368.421H467.9C464.801 368.421 461.828 369.653 459.636 371.846C457.444 374.038 456.213 377.012 456.213 380.113V380.493L486.241 380.494L486.241 368.422Z" fill="#2F2E41"/>
<path d="M525.188 371.464L515.875 371.463L511.445 335.53L525.19 335.53L525.188 371.464Z" fill="#FFB8B8"/>
<path d="M527.564 368.422L524.942 368.422L514.709 364.258L509.224 368.421H509.223C506.123 368.421 503.15 369.653 500.959 371.846C498.767 374.038 497.535 377.012 497.535 380.113V380.493L527.563 380.494L527.564 368.422Z" fill="#2F2E41"/>
<path d="M539.388 216.687C539.388 216.687 540.476 229.741 537.757 242.25C535.039 254.76 535.039 289.992 535.039 289.992L529.058 358.646L511.115 357.014L506.222 242.25L488.823 280.868L490.454 286.307L488.281 287.666C488.281 287.666 489.91 298.272 488.823 298.272C487.735 298.272 485.017 299.904 485.017 299.904L487.192 355.926L468.705 355.382L462.181 276.516L469.249 231.372L469.793 222.67L472.239 222.771L473.485 219.135L475.774 212.88L539.388 216.687Z" fill="#2F2E41"/>
<path d="M540.328 219.429L540.425 219.293C545.6 212.045 537.817 194.628 536.643 192.103L541.587 190.498L540.474 181.029L539.946 176.808L543.725 173.028L543.736 172.934L545.911 153.897L549.073 141.253C550.265 136.473 550.163 131.462 548.779 126.735C547.395 122.007 544.778 117.733 541.197 114.351L533.888 107.457L525.004 94.3087H510.679L505.768 103.59C501.006 104.691 496.781 107.428 493.829 111.325C490.877 115.221 489.385 120.03 489.613 124.914L490.726 149.255L486.368 179.562L486.365 185.047L481.461 190.499L482.532 195.856L478.8 197.456L477.151 205.149C476.469 206.049 471.968 212.054 471.968 213.696C471.968 213.942 472.149 214.18 472.54 214.444C475.608 216.523 492.565 220.759 500.07 217.755C508.064 214.558 539.843 219.354 540.163 219.403L540.328 219.429Z" fill="#915BA4"/>
<path d="M415.756 380.273C415.755 380.465 415.831 380.65 415.966 380.786C416.102 380.922 416.286 380.999 416.478 381H587.607C587.799 381 587.984 380.923 588.12 380.787C588.256 380.651 588.333 380.466 588.333 380.273C588.333 380.08 588.256 379.896 588.12 379.759C587.984 379.623 587.799 379.546 587.607 379.546H416.482C416.29 379.546 416.106 379.622 415.969 379.757C415.833 379.893 415.756 380.077 415.756 380.269V380.273Z" fill="#CCCCCC"/>
<path d="M515.991 90.0642C526.469 90.0642 534.963 81.5673 534.963 71.0859C534.963 60.6044 526.469 52.1075 515.991 52.1075C505.514 52.1075 497.02 60.6044 497.02 71.0859C497.02 81.5673 505.514 90.0642 515.991 90.0642Z" fill="#FFB8B8"/>
<path d="M514.174 90.3714C517.112 90.3414 520.042 90.0604 522.933 89.5314C525.794 88.872 532.107 83.9885 533.828 81.1036C535.106 78.9601 535.873 75.6446 536.292 73.2409C536.857 70.0597 536.748 66.7952 535.972 63.6588C535.196 60.5224 533.77 57.584 531.787 55.0339C531.022 53.9656 529.983 53.1239 528.78 52.5978C528.673 52.5593 528.564 52.5256 528.453 52.4971C526.709 52.0858 525.127 51.1623 523.911 49.8451C523.675 49.5784 523.42 49.3291 523.148 49.099C521.784 48.0064 520.18 47.2522 518.469 46.8982C515.704 46.234 511.749 47.0663 506.714 49.3742C504.185 50.5337 501.377 50.2102 499.213 49.7988C499.092 49.7787 498.967 49.7906 498.852 49.8334C498.737 49.8763 498.635 49.9486 498.556 50.0432C497.663 50.9266 496.468 51.4391 495.213 51.4776C494.444 51.5312 493.665 52.6174 492.725 54.0319C492.512 54.353 492.263 54.7277 492.083 54.9564L492.047 54.5269L491.624 55.018C490.96 55.7897 490.501 56.7171 490.292 57.7138C490.082 58.7105 490.128 59.7441 490.425 60.7183C490.722 61.6925 491.261 62.5756 491.991 63.2854C492.721 63.9952 493.619 64.5087 494.601 64.7779C495.38 64.9639 496.176 65.0698 496.977 65.094C497.462 65.125 497.964 65.1572 498.446 65.2281C499.995 65.5039 501.445 66.1766 502.656 67.1807C503.868 68.1848 504.798 69.4858 505.356 70.9569C505.488 71.2968 505.696 71.6019 505.965 71.8486C506.233 72.0953 506.554 72.277 506.904 72.3797C507.254 72.4823 507.623 72.5032 507.982 72.4407C508.341 72.3782 508.681 72.234 508.975 72.0192C509.465 71.6168 510.045 71.3389 510.666 71.2092C511.286 71.0796 511.929 71.102 512.539 71.2745C513.07 71.5519 513.489 72.0033 513.726 72.553C514.013 73.1648 514.475 73.6773 515.055 74.0251C517.03 74.9801 517.279 79.4304 516.675 83.1612C516.092 86.7574 514.825 89.3808 513.593 89.5407C512.645 89.6636 512.538 89.734 512.474 89.904L512.416 90.0562L512.526 90.1943C513.056 90.3712 513.618 90.4316 514.174 90.3714Z" fill="#2F2E41"/>
<path d="M305.675 188.194C326.509 188.194 343.399 171.299 343.399 150.457C343.399 129.616 326.509 112.72 305.675 112.72C284.84 112.72 267.951 129.616 267.951 150.457C267.951 171.299 284.84 188.194 305.675 188.194Z" fill="#0093D1"/>
<path d="M509.804 144.842L497.361 136.881C489.437 142.364 478.728 161.678 478.728 161.678L451.625 186.726C450.496 186.92 449.438 187.408 448.558 188.141C447.677 188.873 447.005 189.826 446.609 190.901C446.213 191.976 446.107 193.137 446.302 194.266C446.497 195.395 446.986 196.453 447.72 197.333C448.454 198.214 449.406 198.885 450.482 199.28C451.557 199.674 452.718 199.779 453.846 199.582C454.975 199.386 456.032 198.895 456.911 198.16C457.79 197.425 458.46 196.471 458.853 195.395L496.625 169.072L509.804 144.842Z" fill="#FFB8B8"/>
<path d="M508.618 148.072L516.906 128.174L513.908 117.178C513.312 115.022 512.124 113.075 510.48 111.558C508.836 110.041 506.8 109.014 504.603 108.594C501.621 108.044 498.542 108.648 495.987 110.283C493.433 111.917 491.595 114.461 490.844 117.4C488.574 126.314 486.831 137.903 491.416 142.489L491.462 142.536L508.618 148.072Z" fill="#915BA4"/>
<path d="M25.9827 369.487C9.75982 361.157 -2.01026 345.06 0.450513 327.858C14.8473 340.296 34.7525 347.618 55.5252 348.116C63.6159 348.311 72.701 347.775 78.435 352.502C82.0029 355.443 83.5106 359.981 83.5774 364.458C83.6441 368.936 82.4171 373.427 81.1982 377.859L81.4923 378.927C62.1151 379.545 42.2056 377.816 25.9827 369.487Z" fill="#F2F2F2"/>
<path d="M0.857419 327.828C6.83346 340.464 17.5493 351.178 31.0825 357.679C34.0454 359.178 37.2177 360.221 40.4919 360.772C43.8297 361.228 47.228 360.893 50.4124 359.793C53.4293 358.817 56.414 357.516 59.5911 357.192C61.1469 357.025 62.7204 357.173 64.2175 357.628C65.7146 358.084 67.1045 358.836 68.3042 359.841C71.1554 362.208 72.7994 365.41 74.28 368.599C75.924 372.141 77.5662 375.846 80.9263 378.331C81.3335 378.632 80.7348 379.212 80.3283 378.912C74.4823 374.589 73.8567 367.088 69.2659 361.932C67.1238 359.526 64.1016 357.735 60.4008 357.89C57.1647 358.026 54.0858 359.366 51.0388 360.377C47.938 361.49 44.6348 361.925 41.3518 361.653C38.0458 361.256 34.8256 360.327 31.8156 358.903C25.2669 355.929 19.2448 351.911 13.9848 347.004C8.17169 341.644 3.43612 335.221 0.0328603 328.083C-0.173571 327.646 0.652331 327.395 0.857419 327.828Z" fill="white"/>
<path d="M26.5403 355.781C22.9839 359.839 16.7246 361.211 11.9236 359.008C11.4506 358.791 11.8643 358.101 12.3379 358.318C14.6353 359.299 17.1821 359.534 19.6201 358.991C22.0582 358.448 24.2648 357.155 25.9297 355.292C26.2795 354.893 26.8881 355.384 26.5403 355.781Z" fill="white"/>
<path d="M48.9412 360.463C48.6991 358.024 47.9434 355.664 46.724 353.538C45.5045 351.413 43.8489 349.57 41.866 348.13C41.4602 347.828 42.0587 347.247 42.464 347.549C44.5242 349.051 46.2428 350.973 47.5065 353.188C48.7703 355.402 49.5505 357.86 49.7958 360.398C49.8395 360.882 48.9846 360.944 48.9412 360.463Z" fill="white"/>
<path d="M9.16632 341.147C9.97765 340.563 10.6264 339.781 11.0512 338.877C11.4759 337.972 11.6624 336.973 11.5932 335.976C11.5426 335.493 12.3975 335.432 12.4478 335.911C12.5194 337.013 12.3122 338.115 11.8454 339.115C11.3786 340.116 10.6672 340.983 9.77694 341.636C9.69616 341.71 9.59248 341.756 9.48276 341.764C9.37304 341.772 9.26373 341.743 9.17262 341.682C9.13326 341.649 9.10145 341.609 9.07942 341.563C9.05738 341.517 9.04565 341.466 9.04505 341.416C9.04445 341.365 9.055 341.314 9.07595 341.268C9.09689 341.221 9.12773 341.18 9.16632 341.147Z" fill="white"/>
<path d="M55.9479 293.083C55.9892 293.383 56.0305 293.683 56.0782 293.985C56.6562 298.006 57.6086 301.963 58.923 305.806C59.0192 306.105 59.1218 306.406 59.2276 306.701C62.5644 316.011 67.8177 324.517 74.6475 331.668C77.4296 334.589 80.445 337.279 83.6639 339.711C88.1505 343.105 93.3469 346.447 96.1126 350.916C96.4063 351.378 96.6671 351.859 96.8931 352.357L82.9683 378.427C82.9043 378.474 82.8466 378.524 82.7824 378.572L82.2783 379.632C82.0998 379.516 81.9179 379.392 81.7395 379.277C81.6356 379.21 81.5349 379.137 81.431 379.071C81.3628 379.024 81.2947 378.978 81.2298 378.94C81.207 378.924 81.1844 378.909 81.168 378.896C81.1032 378.858 81.048 378.816 80.9896 378.78C79.9702 378.092 78.955 377.396 77.944 376.692C77.9375 376.689 77.9375 376.689 77.9342 376.681C70.2479 371.298 63.0498 365.262 57.1969 358.377C57.0209 358.169 56.8382 357.96 56.6686 357.741C54.068 354.647 51.7566 351.322 49.7632 347.806C48.6897 345.894 47.7277 343.922 46.8819 341.899C44.7125 336.674 43.5057 331.099 43.3196 325.444C42.9388 314.116 46.6614 302.534 55.2822 293.749C55.503 293.524 55.7207 293.305 55.9479 293.083Z" fill="#F2F2F2"/>
<path d="M56.2768 293.274C52.1888 307.141 52.9774 321.927 58.751 334.67C59.9463 337.497 61.634 340.089 63.7357 342.326C65.9929 344.531 68.8045 346.084 71.8725 346.821C74.8082 347.615 77.9406 348.118 80.5535 349.549C81.8358 350.243 82.9358 351.23 83.7634 352.431C84.591 353.631 85.1228 355.011 85.3153 356.457C85.854 359.983 84.9155 363.566 83.8628 367.051C82.6938 370.921 81.4119 374.928 82.2539 378.827C82.3559 379.299 81.5106 379.467 81.4087 378.996C79.9438 372.214 84.571 365.549 84.6183 358.737C84.6403 355.558 83.5815 352.426 80.6887 350.572C78.1591 348.951 74.9297 348.43 71.9474 347.649C68.9311 346.963 66.1285 345.549 63.7842 343.531C61.5572 341.413 59.7541 338.889 58.4713 336.096C55.5232 329.938 53.7135 323.297 53.1297 316.494C52.4205 308.6 53.2191 300.642 55.4828 293.047C55.624 292.568 56.4171 292.798 56.2768 293.274Z" fill="white"/>
<path d="M56.6202 330.633C51.1837 332.149 45.5369 329.949 43.418 325.516C43.2093 325.08 43.99 324.719 44.1991 325.156C46.1841 329.309 51.4107 331.31 56.4927 329.892C57.0275 329.743 57.152 330.484 56.6202 330.633Z" fill="white"/>
<path d="M70.3093 346.597C71.7534 344.56 72.7688 342.251 73.2938 339.81C73.8187 337.369 73.8424 334.847 73.3633 332.397C73.2632 331.924 74.1084 331.755 74.2084 332.228C74.7014 334.779 74.671 337.404 74.119 339.944C73.5669 342.483 72.5048 344.884 70.997 347C70.7012 347.432 70.015 347.026 70.3093 346.597Z" fill="white"/>
<path d="M53.482 308.967C54.5427 308.881 55.5715 308.562 56.4949 308.033C57.4184 307.504 58.2138 306.778 58.8246 305.906C59.1144 305.472 59.8003 305.878 59.5123 306.31C58.8335 307.27 57.954 308.072 56.9347 308.658C55.9154 309.245 54.7808 309.603 53.6095 309.708C53.3769 309.728 53.1633 309.64 53.1232 309.422C53.1137 309.315 53.1455 309.208 53.2123 309.123C53.279 309.039 53.3755 308.983 53.482 308.967Z" fill="white"/>
<path d="M105.026 162.424L106.248 173.763L105.529 188.631L138.45 184.718L141.543 162.424L137.602 162.463L105.026 162.424Z" fill="#FFB6B6"/>
<path d="M87.9506 368.278H95.148L98.5737 340.506H87.9506V368.278Z" fill="#FFB6B6"/>
<path d="M85.6016 363.346L97.1005 362.66V367.588L108.033 375.141C108.573 375.514 108.979 376.05 109.193 376.67C109.407 377.291 109.418 377.964 109.222 378.59C109.027 379.217 108.637 379.765 108.108 380.154C107.579 380.543 106.94 380.753 106.284 380.753H92.5943L90.2347 375.878L89.3133 380.753H84.1517L85.6016 363.346Z" fill="#2F2E41"/>
<path d="M128.38 368.278H135.578L139.003 340.506H128.38V368.278Z" fill="#FFB6B6"/>
<path d="M126.031 363.346L137.53 362.66V367.588L148.462 375.141C149.002 375.514 149.409 376.05 149.623 376.67C149.837 377.291 149.847 377.964 149.652 378.59C149.456 379.217 149.066 379.765 148.538 380.154C148.009 380.543 147.37 380.753 146.714 380.753H133.024L130.664 375.878L129.743 380.753H124.581L126.031 363.346Z" fill="#2F2E41"/>
<path d="M84.8452 344.329H84.9234L86.3076 299.173C85.4118 297.445 84.9572 295.522 84.9842 293.575C85.0113 291.628 85.5191 289.718 86.4625 288.016L86.6607 287.657L86.1468 285.274C85.4868 282.213 85.7897 279.022 87.0138 276.14L88.3052 234.018C83.6917 204.109 105.678 184.603 105.678 184.603H138.614L145.685 208.905C150.359 254.463 149.511 298.858 142.093 341.869L142.296 341.972C143.024 342.223 143.336 343.232 142.993 344.226C142.651 345.219 141.782 345.82 141.054 345.569L123.66 344.964C122.932 344.712 122.62 343.703 122.963 342.71C123.305 341.717 124.174 341.115 124.902 341.367L126.084 341.965L123.562 298.392L123.842 290.433L123.265 281.404L120.599 240.79L110.507 290.733L100.199 344.831C100.483 345.089 100.683 345.427 100.771 345.8C100.86 346.173 100.833 346.565 100.695 346.923C100.556 347.28 100.312 347.588 99.9956 347.804C99.6789 348.02 99.304 348.136 98.9204 348.134H84.8452C84.5951 348.135 84.3474 348.086 84.1162 347.991C83.885 347.895 83.6749 347.755 83.4979 347.578C83.321 347.402 83.1805 347.192 83.0847 346.961C82.9889 346.729 82.9396 346.482 82.9396 346.232C82.9396 345.981 82.9889 345.734 83.0847 345.503C83.1805 345.272 83.321 345.062 83.4979 344.885C83.6749 344.708 83.885 344.568 84.1162 344.473C84.3474 344.377 84.5951 344.328 84.8452 344.329Z" fill="#2F2E41"/>
<path d="M110.774 104.404C120.531 104.404 128.44 96.4922 128.44 86.7323C128.44 76.9723 120.531 69.0603 110.774 69.0603C101.018 69.0603 93.1086 76.9723 93.1086 86.7323C93.1086 96.4922 101.018 104.404 110.774 104.404Z" fill="#FFB6B6"/>
<path d="M33.3637 168.376C35.8465 162.61 39.2559 157.289 43.4568 152.625C39.8995 158.296 37.8665 164.791 37.5547 171.479C38.8426 172.283 40.1901 172.988 41.5855 173.588C45.7791 175.347 50.2502 176.352 54.7931 176.556C57.2416 168.395 61.4678 160.879 67.1676 154.548C63.0599 161.101 60.9942 168.729 61.2335 176.46C66.3005 176.021 71.2929 174.951 76.0944 173.273C83.3038 170.793 90.3017 167.087 95.2874 161.324C100.683 155.087 103.343 146.856 104.201 138.65C105.06 130.451 104.253 122.175 103.439 113.969C103.054 110.059 106.31 105.559 105.925 101.648H105.669C103.958 99.302 102.215 96.898 101.375 94.1158C100.542 91.34 100.76 88.0643 102.676 85.8782C103.75 84.736 105.104 83.896 106.605 83.4422C106.746 83.2627 106.899 83.0896 107.06 82.9165C109.961 79.8334 113.376 77.2782 117.153 75.3649C114.429 77.4227 112.609 79.7497 111.763 82.1537C114.122 81.6344 116.48 81.1173 118.838 80.6023C119.626 79.766 120.456 78.9701 121.325 78.2176C122.587 77.1214 123.003 77.038 124.509 76.006C123.294 77.0759 122.351 78.421 121.76 79.9292C124.791 79.1664 127.823 78.0189 129.399 75.4098C132.014 71.0954 128.906 65.2747 124.567 62.6976C121.411 60.9142 117.775 60.1682 114.172 60.5651C110.569 60.962 107.182 62.4817 104.49 64.9093C98.216 60.2872 89.2828 60.3642 82.3041 63.8195C77.6969 66.2026 73.7282 69.6562 70.7307 73.8905C72.4695 73.6672 74.2197 73.5452 75.9727 73.5251C73.5051 73.8863 71.1554 74.8168 69.1093 76.2431C68.2042 77.649 67.3742 79.102 66.6229 80.5959C66.1295 81.5767 65.6638 82.5704 65.2259 83.5768C62.5408 89.6925 60.7913 96.2056 58.9778 102.642C56.863 110.142 54.5945 117.694 50.6341 124.406C44.5619 134.612 34.983 142.257 23.687 145.913C22.745 154.394 26.8848 162.69 33.3637 168.376Z" fill="#2F2E41"/>
<path d="M128.564 116.222L125.136 114.934L120.812 107.941L105.412 109.2L101.668 116.698L92.6508 123.587L96.5944 144.363L102.721 169.6L143.735 164.472L143.691 145.474C143.691 145.474 151.102 130.464 139.131 124.84L128.564 116.222Z" fill="#0093D1"/>
<path d="M191.782 182.121C190.986 182.44 190.13 182.582 189.273 182.534C188.416 182.487 187.581 182.253 186.824 181.847C186.068 181.442 185.41 180.876 184.896 180.188C184.383 179.501 184.026 178.709 183.851 177.869L138.121 150.189L146.48 140.541L188.802 170.784C190.233 170.584 191.687 170.915 192.889 171.716C194.092 172.517 194.959 173.731 195.326 175.128C195.693 176.526 195.536 178.009 194.882 179.298C194.229 180.587 193.126 181.591 191.782 182.121Z" fill="#FFB6B6"/>
<path d="M122.884 137.063C122.884 137.063 120.698 139.262 126.182 142.879C130.572 145.775 150.153 160.084 157.095 162.347C157.008 163.367 157.262 164.387 157.819 165.246C158.375 166.105 159.201 166.755 160.167 167.092L166.452 153.276C165.092 150.118 162.916 150.849 161.771 151.565L154.18 145.855L135.541 127.236L124.435 135.445L122.884 137.063Z" fill="#0093D1"/>
<path d="M104.602 65.39C102.478 68.5244 101.107 72.1066 100.593 75.858C100.08 79.6093 100.439 83.4286 101.642 87.0185" fill="#FD6584"/>
<path d="M14.9769 380.273C14.9766 380.369 14.9952 380.463 15.0316 380.552C15.068 380.64 15.1215 380.72 15.189 380.788C15.2566 380.855 15.3368 380.909 15.425 380.945C15.5133 380.982 15.6079 381 15.7034 381H186.828C187.02 381 187.205 380.923 187.341 380.787C187.478 380.651 187.554 380.466 187.554 380.273C187.554 380.08 187.478 379.896 187.341 379.759C187.205 379.623 187.02 379.546 186.828 379.546H15.7034C15.6079 379.546 15.5133 379.565 15.4251 379.601C15.3368 379.638 15.2566 379.691 15.189 379.759C15.1215 379.826 15.068 379.906 15.0316 379.995C14.9952 380.083 14.9766 380.178 14.9769 380.273Z" fill="#CCCCCC"/>
<path d="M80.1754 215.085C79.749 215.235 79.3995 215.548 79.2037 215.956C79.0079 216.364 78.9816 216.832 79.1308 217.259L102.972 285.998C103.122 286.425 103.435 286.774 103.843 286.97C104.25 287.166 104.719 287.192 105.146 287.043L243.87 238.354C244.296 238.204 244.646 237.89 244.841 237.483C245.037 237.075 245.063 236.606 244.914 236.179L221.073 167.44C220.923 167.014 220.609 166.664 220.202 166.468C219.794 166.272 219.326 166.246 218.899 166.396L80.1754 215.085Z" fill="#E6E6E6"/>
<path d="M115.288 277.122C112.558 277.121 109.895 276.275 107.666 274.699C105.436 273.123 103.749 270.895 102.836 268.322L89.7429 231.265C88.5768 227.964 88.769 224.335 90.2774 221.177C91.7857 218.018 94.4866 215.588 97.7859 214.422L167.898 189.632C181.023 185.008 195.445 185.781 208.001 191.781C220.556 197.781 230.22 208.518 234.872 221.637C236.038 224.938 235.846 228.566 234.337 231.725C232.829 234.884 230.128 237.313 226.829 238.48L119.672 276.367C118.264 276.866 116.782 277.122 115.288 277.122Z" fill="white"/>
<path d="M208.265 204.075L145.486 226.109C144.601 226.419 143.505 225.59 143.037 224.256C142.569 222.922 142.907 221.589 143.792 221.279L206.571 199.245C207.456 198.934 208.552 199.764 209.02 201.098C209.488 202.431 209.15 203.766 208.265 204.075Z" fill="#E6E6E6"/>
<path d="M213.121 217.92L150.342 239.954C149.457 240.264 148.361 239.435 147.893 238.101C147.425 236.767 147.763 235.434 148.648 235.124L211.427 213.09C212.311 212.779 213.408 213.609 213.876 214.943C214.343 216.276 214.005 217.609 213.121 217.92Z" fill="#E6E6E6"/>
<path d="M136.991 233.641C137.665 235.542 137.993 237.548 137.958 239.564C137.945 240.486 137.854 241.406 137.686 242.313C137.15 245.244 135.851 247.982 133.919 250.249C131.987 252.517 129.491 254.234 126.683 255.227C123.874 256.22 120.854 256.453 117.926 255.904C114.999 255.354 112.269 254.042 110.011 252.098C109.783 251.903 109.561 251.701 109.345 251.494C107.502 249.726 106.082 247.564 105.193 245.17C104.304 242.775 103.969 240.21 104.212 237.667C104.455 235.124 105.271 232.67 106.598 230.487C107.925 228.305 109.729 226.452 111.875 225.066C114.02 223.681 116.451 222.799 118.986 222.488C121.52 222.177 124.092 222.444 126.509 223.269C128.926 224.094 131.124 225.456 132.94 227.252C134.755 229.049 136.14 231.233 136.991 233.641Z" fill="#E4E4E4"/>
<path d="M121.751 241.863C123.536 241.863 124.983 240.415 124.983 238.629C124.983 236.843 123.536 235.395 121.751 235.395C119.965 235.395 118.518 236.843 118.518 238.629C118.518 240.415 119.965 241.863 121.751 241.863Z" fill="#FD6584"/>
<path d="M109.345 251.494C110.175 249.567 111.156 246.627 113.429 247.697C114.551 248.184 116.562 249.663 117.378 247.943L123.77 234.558C123.891 234.309 124.061 234.086 124.269 233.903C124.478 233.72 124.721 233.58 124.984 233.492C125.247 233.405 125.525 233.37 125.802 233.392C126.078 233.413 126.348 233.489 126.594 233.616L137.958 239.564C137.945 240.486 137.854 241.406 137.686 242.313L110.011 252.098L109.345 251.494Z" fill="#915BA4"/>
<path d="M112.644 211.965C111.845 211.654 111.123 211.172 110.53 210.552C109.937 209.931 109.487 209.189 109.212 208.376C108.937 207.563 108.843 206.699 108.938 205.847C109.033 204.994 109.313 204.172 109.76 203.439L95.2927 151.966L107.986 150.64L118.215 201.653C119.396 202.484 120.231 203.721 120.561 205.127C120.892 206.534 120.695 208.013 120.009 209.284C119.322 210.555 118.193 211.53 116.836 212.025C115.478 212.519 113.987 212.498 112.644 211.965Z" fill="#FFB6B6"/>
<path d="M93.1526 123.711C93.1526 123.711 90.0544 123.822 91.5858 130.212C92.8118 135.327 97.3144 167.416 100.835 173.814C100.074 174.499 99.5636 175.418 99.3826 176.425C99.2017 177.433 99.361 178.472 99.8355 179.379L113.863 173.591C115.028 170.355 114.126 167.418 112.801 167.158L111.162 157.799L108.747 126.405L95.3906 123.591L93.1526 123.711Z" fill="#0093D1"/>
<path d="M219.519 259.141L200.119 259.945C199.704 259.963 199.291 259.887 198.91 259.723C198.529 259.558 198.191 259.31 197.919 258.995C197.652 258.69 197.457 258.327 197.349 257.935C197.242 257.543 197.224 257.131 197.298 256.732C198.787 248.611 198.353 240.254 196.032 232.331C195.852 231.725 195.889 231.076 196.135 230.494C196.38 229.912 196.82 229.433 197.38 229.139C205.326 225.009 212.772 224.8 219.509 228.516C219.862 228.708 220.169 228.974 220.408 229.297C220.648 229.62 220.814 229.991 220.895 230.385C222.649 239.03 223.069 247.893 222.142 256.666C222.078 257.326 221.777 257.941 221.295 258.396C220.812 258.851 220.181 259.116 219.519 259.141Z" fill="#0093D1"/>
<path d="M218.698 246.439L203.864 247.054C203.681 247.062 203.499 247.033 203.327 246.97C203.155 246.908 202.997 246.811 202.863 246.688C202.728 246.564 202.619 246.414 202.542 246.248C202.465 246.082 202.421 245.903 202.414 245.72C202.406 245.537 202.435 245.354 202.498 245.182C202.561 245.011 202.657 244.853 202.781 244.718C202.905 244.584 203.054 244.475 203.22 244.398C203.386 244.321 203.566 244.278 203.749 244.27L218.583 243.655C218.765 243.648 218.948 243.676 219.12 243.739C219.291 243.802 219.449 243.899 219.583 244.022C219.718 244.146 219.827 244.296 219.904 244.462C219.981 244.628 220.024 244.807 220.032 244.99C220.039 245.173 220.011 245.355 219.948 245.527C219.885 245.699 219.789 245.856 219.665 245.991C219.541 246.126 219.392 246.234 219.226 246.311C219.06 246.388 218.881 246.432 218.698 246.439Z" fill="white"/>
<path d="M218.496 241.558L203.662 242.172C203.293 242.188 202.933 242.056 202.661 241.805C202.389 241.555 202.228 241.207 202.213 240.838C202.198 240.469 202.33 240.109 202.58 239.837C202.83 239.565 203.178 239.404 203.547 239.388L218.381 238.774C218.75 238.759 219.11 238.891 219.381 239.141C219.653 239.391 219.814 239.739 219.83 240.108C219.845 240.477 219.713 240.837 219.463 241.109C219.213 241.381 218.865 241.543 218.496 241.558Z" fill="white"/>
<path d="M574.331 107.329L555.078 104.803C554.667 104.75 554.273 104.604 553.926 104.377C553.579 104.15 553.287 103.847 553.074 103.491C552.863 103.144 552.732 102.753 552.694 102.348C552.655 101.944 552.708 101.535 552.849 101.154C555.704 93.4075 556.705 85.0995 555.771 76.8961C555.698 76.2685 555.845 75.6349 556.187 75.1034C556.528 74.5719 557.044 74.1754 557.645 73.9815C566.18 71.2714 573.552 72.3385 579.554 77.1521C579.869 77.4016 580.126 77.7168 580.307 78.0758C580.488 78.4347 580.588 78.8289 580.601 79.2306C580.852 88.0488 579.751 96.8534 577.338 105.338C577.162 105.978 576.76 106.532 576.207 106.898C575.654 107.264 574.988 107.417 574.331 107.329Z" fill="#0093D1"/>
<path d="M575.692 94.6734L560.972 92.742C560.791 92.7182 560.616 92.6589 560.457 92.5675C560.299 92.4761 560.16 92.3544 560.049 92.2093C559.937 92.0642 559.856 91.8986 559.808 91.7219C559.761 91.5452 559.749 91.3609 559.772 91.1795C559.796 90.9981 559.855 90.8232 559.947 90.6647C560.038 90.5062 560.16 90.3673 560.305 90.2558C560.45 90.1444 560.615 90.0626 560.792 90.0152C560.969 89.9677 561.153 89.9556 561.334 89.9794L576.055 91.9107C576.421 91.9588 576.753 92.1504 576.978 92.4434C577.203 92.7364 577.302 93.1069 577.254 93.4732C577.206 93.8396 577.015 94.1718 576.722 94.3969C576.429 94.622 576.059 94.7214 575.692 94.6734Z" fill="white"/>
<path d="M576.328 89.8289L561.607 87.8975C561.426 87.874 561.25 87.815 561.092 87.7237C560.933 87.6324 560.794 87.5107 560.682 87.3655C560.57 87.2204 560.488 87.0546 560.441 86.8777C560.393 86.7008 560.381 86.5163 560.405 86.3347C560.429 86.153 560.488 85.9779 560.58 85.8193C560.671 85.6606 560.793 85.5216 560.938 85.4102C561.084 85.2987 561.25 85.217 561.427 85.1698C561.603 85.1226 561.788 85.1107 561.969 85.1349L576.69 87.0662C576.871 87.0897 577.047 87.1488 577.205 87.2401C577.364 87.3313 577.503 87.453 577.615 87.5982C577.727 87.7434 577.809 87.9092 577.856 88.086C577.904 88.2629 577.916 88.4475 577.892 88.6291C577.868 88.8107 577.809 88.9859 577.718 89.1445C577.626 89.3031 577.504 89.4422 577.359 89.5536C577.213 89.665 577.048 89.7467 576.871 89.794C576.694 89.8412 576.509 89.8531 576.328 89.8289Z" fill="white"/>
<path d="M317.885 144.655H311.475V138.243C311.475 136.704 310.864 135.228 309.776 134.14C308.688 133.052 307.213 132.441 305.675 132.441C304.137 132.441 302.661 133.052 301.574 134.14C300.486 135.228 299.875 136.704 299.875 138.243V144.655H293.464C291.926 144.655 290.451 145.267 289.363 146.355C288.275 147.443 287.664 148.919 287.664 150.457C287.664 151.996 288.275 153.472 289.363 154.56C290.451 155.648 291.926 156.259 293.464 156.259H299.875V162.672C299.875 164.211 300.486 165.687 301.574 166.775C302.661 167.863 304.137 168.474 305.675 168.474C307.213 168.474 308.688 167.863 309.776 166.775C310.864 165.687 311.475 164.211 311.475 162.672V156.259H317.885C319.424 156.259 320.899 155.648 321.986 154.56C323.074 153.472 323.685 151.996 323.685 150.457C323.685 148.919 323.074 147.443 321.986 146.355C320.899 145.267 319.424 144.655 317.885 144.655Z" fill="white"/>
<path d="M525.485 25.9776C528.861 25.9776 531.598 23.2401 531.598 19.8633C531.598 16.4864 528.861 13.7489 525.485 13.7489C522.11 13.7489 519.373 16.4864 519.373 19.8633C519.373 23.2401 522.11 25.9776 525.485 25.9776Z" fill="#915BA4"/>
<path d="M150.012 198.816C153.388 198.816 156.124 196.079 156.124 192.702C156.124 189.325 153.388 186.588 150.012 186.588C146.636 186.588 143.9 189.325 143.9 192.702C143.9 196.079 146.636 198.816 150.012 198.816Z" fill="#915BA4"/>
</g>
<defs>
<clipPath id="clip0_5_28927">
<rect width="604" height="381" fill="white"/>
</clipPath>
</defs>
</svg>
