<svg width="300" height="199" viewBox="0 0 300 199" fill="none" xmlns="http://www.w3.org/2000/svg">
<g clip-path="url(#clip0_104_527)">
<path d="M69.1412 185.66L73.9592 183.953C74.5596 181.066 74.5198 178.058 73.8431 175.192C71.9075 179.998 66.2287 181.175 62.993 185.011C61.9921 186.216 61.2468 187.657 60.8124 189.227C60.378 190.798 60.2657 192.457 60.4837 194.082L59.47 197.922C61.8374 197.696 64.1329 196.9 66.1982 195.588C68.2635 194.276 70.0495 192.48 71.4333 190.323C72.1988 189.105 72.8239 187.783 73.2938 186.39C71.2391 186.161 69.1412 185.66 69.1412 185.66Z" fill="#F2F2F2"/>
<path d="M239.882 185.66L235.064 183.953C234.464 181.066 234.504 178.058 235.18 175.192C237.116 179.998 242.795 181.175 246.031 185.011C247.032 186.216 247.777 187.657 248.211 189.227C248.646 190.798 248.758 192.457 248.54 194.082L249.554 197.922C247.186 197.696 244.891 196.9 242.825 195.588C240.76 194.276 238.974 192.48 237.59 190.323C236.825 189.105 236.2 187.783 235.73 186.39C237.785 186.161 239.882 185.66 239.882 185.66Z" fill="#F2F2F2"/>
<path d="M63.9929 178.56L67.6236 174.633C67.0078 171.75 65.771 169.078 64.0206 166.85C64.2075 172.115 59.595 175.997 58.231 181.041C57.8164 182.618 57.7249 184.279 57.9633 185.901C58.2016 187.522 58.7638 189.064 59.6081 190.41L60.2344 194.351C62.2632 192.97 63.9996 191.114 65.3242 188.912C66.6488 186.709 67.53 184.212 67.9071 181.592C68.1056 180.121 68.1373 178.627 68.0015 177.146C66.0707 177.964 63.9929 178.56 63.9929 178.56Z" fill="#F2F2F2"/>
<path d="M73.6994 105.451C73.3027 105.51 72.8993 105.472 72.5175 105.338C72.1356 105.204 71.7846 104.979 71.4892 104.678C71.1938 104.376 70.9612 104.006 70.8078 103.593C70.6543 103.181 70.5838 102.735 70.6011 102.289L53.1012 82.4625L57.9865 78.6648L73.6522 99.3479C74.3219 99.4301 74.9413 99.7837 75.3931 100.342C75.8448 100.9 76.0976 101.624 76.1034 102.376C76.1092 103.128 75.8677 103.857 75.4246 104.423C74.9815 104.99 74.3677 105.356 73.6994 105.451Z" fill="#FFB6B6"/>
<path d="M47.7176 73.8865C47.7176 73.8865 46.4773 74.7166 48.5416 77.2443C50.1943 79.2679 57.4061 88.9972 60.2847 91.0285C60.1284 91.5321 60.1267 92.0794 60.2797 92.5842C60.4327 93.089 60.7317 93.5227 61.1297 93.8168L65.5556 87.6497C65.3028 85.8815 64.2351 85.9718 63.6353 86.1866L60.8585 82.3325L54.567 70.549L48.6045 73.2687L47.7176 73.8865Z" fill="#915BA4"/>
<path d="M33.8971 192.022H37.1964L38.7665 177.813H33.8971V192.022Z" fill="#FFB6B6"/>
<path d="M32.8205 189.499L38.0913 189.148V191.67L43.1024 195.534C43.35 195.725 43.5364 195.999 43.6345 196.316C43.7326 196.634 43.7372 196.978 43.6477 197.299C43.5581 197.619 43.3792 197.9 43.1369 198.099C42.8946 198.298 42.6017 198.405 42.3009 198.405H36.0258L34.9441 195.911L34.5218 198.405H32.1559L32.8205 189.499Z" fill="#005173"/>
<path d="M52.4291 192.022H55.7284L57.2985 177.813H52.4291V192.022Z" fill="#FFB6B6"/>
<path d="M51.3524 189.499L56.6233 189.148V191.67L61.6344 195.534C61.882 195.725 62.0684 195.999 62.1665 196.316C62.2645 196.634 62.2692 196.978 62.1797 197.299C62.0901 197.619 61.9112 197.9 61.6689 198.099C61.4266 198.298 61.1337 198.405 60.8329 198.405H54.5577L53.4761 195.911L53.0538 198.405H50.6878L51.3524 189.499Z" fill="#005173"/>
<path d="M32.4737 179.769H32.5096L33.1441 156.665C32.7335 155.781 32.5251 154.797 32.5375 153.801C32.5499 152.805 32.7826 151.827 33.2151 150.956L33.3059 150.773L33.0704 149.553C32.7678 147.987 32.9067 146.355 33.4678 144.88L34.0597 123.328C31.945 108.025 42.0231 98.045 42.0231 98.045L40.1814 89.3943L58.4145 87.3917L57.1201 98.045L60.3613 110.479C62.504 133.789 62.1152 156.504 58.715 178.511L58.8077 178.563C59.1415 178.692 59.2846 179.208 59.1275 179.716C58.9704 180.224 58.5725 180.532 58.2387 180.403L50.2657 180.094C49.932 179.965 49.7888 179.449 49.9459 178.941C50.103 178.432 50.501 178.125 50.8347 178.253L51.3769 178.559L50.2207 156.265L50.349 152.193L50.0847 147.573L48.8626 126.793L44.2367 152.347L39.5116 180.026C39.6419 180.158 39.7334 180.331 39.7739 180.522C39.8145 180.713 39.8022 180.913 39.7387 181.096C39.6752 181.279 39.5635 181.436 39.4183 181.547C39.2731 181.658 39.1013 181.717 38.9255 181.716H32.4737C32.2425 181.716 32.0207 181.613 31.8572 181.431C31.6937 181.248 31.6018 181.001 31.6018 180.742C31.6018 180.484 31.6937 180.237 31.8572 180.054C32.0207 179.871 32.2425 179.769 32.4737 179.769Z" fill="#005173"/>
<path d="M207.315 94.0239H94.5479C90.7564 94.0191 87.1214 92.3351 84.4404 89.3415C81.7594 86.3478 80.2513 82.289 80.2471 78.0554V23.9306C80.2513 19.7048 81.7537 15.6528 84.4259 12.6605C87.098 9.66812 90.7226 7.97887 94.507 7.96207C112.02 2.54927 130.616 -0.127957 149.785 0.00469798C168.026 0.130998 187.393 2.80823 207.349 7.96207C211.135 7.97713 214.761 9.66558 217.434 12.6581C220.108 15.6506 221.611 19.7036 221.616 23.9306V78.0554C221.611 82.289 220.103 86.3478 217.422 89.3415C214.741 92.3351 211.106 94.0191 207.315 94.0239ZM94.5479 8.6296C90.9149 8.6342 87.4318 10.2477 84.8629 13.1162C82.294 15.9848 80.849 19.874 80.8449 23.9306V78.0554C80.8489 82.112 82.294 86.0012 84.8629 88.8698C87.4318 91.7383 90.9148 93.3518 94.5479 93.3564H207.315C210.948 93.3518 214.431 91.7383 217 88.8698C219.569 86.0012 221.014 82.112 221.018 78.0554V23.9306C221.014 19.874 219.569 15.9848 217 13.1162C214.431 10.2477 210.948 8.6342 207.315 8.6296L207.247 8.62096C165.951 -2.04917 129.113 -2.05064 94.6277 8.61754L94.5479 8.6296Z" fill="#2EA0E1"/>
<path d="M92.5588 79.8984C92.5144 79.8985 92.4704 79.8887 92.4293 79.8697C92.3882 79.8507 92.3509 79.8229 92.3195 79.7878C92.2881 79.7527 92.2632 79.711 92.2462 79.6652C92.2292 79.6194 92.2204 79.5702 92.2204 79.5206V22.4653C92.2204 22.365 92.2561 22.2689 92.3195 22.1981C92.383 22.1272 92.4691 22.0874 92.5588 22.0874C92.6486 22.0874 92.7346 22.1272 92.7981 22.1981C92.8615 22.2689 92.8972 22.365 92.8972 22.4653V79.5206C92.8972 79.5702 92.8885 79.6194 92.8715 79.6652C92.8545 79.711 92.8295 79.7527 92.7981 79.7878C92.7667 79.8229 92.7294 79.8507 92.6883 79.8697C92.6473 79.8887 92.6033 79.8985 92.5588 79.8984Z" fill="#2EA0E1"/>
<path d="M122.15 79.8984C122.106 79.8985 122.062 79.8887 122.021 79.8697C121.98 79.8507 121.942 79.8229 121.911 79.7878C121.879 79.7527 121.855 79.711 121.838 79.6652C121.821 79.6194 121.812 79.5702 121.812 79.5206V22.4653C121.812 22.365 121.847 22.2689 121.911 22.1981C121.974 22.1272 122.06 22.0874 122.15 22.0874C122.24 22.0874 122.326 22.1272 122.389 22.1981C122.453 22.2689 122.489 22.365 122.489 22.4653V79.5206C122.489 79.5702 122.48 79.6194 122.463 79.6652C122.446 79.711 122.421 79.7527 122.39 79.7878C122.358 79.8229 122.321 79.8507 122.28 79.8697C122.239 79.8887 122.195 79.8985 122.15 79.8984Z" fill="#2EA0E1"/>
<path d="M151.742 79.8984C151.697 79.8985 151.653 79.8887 151.612 79.8697C151.571 79.8507 151.534 79.8229 151.502 79.7878C151.471 79.7527 151.446 79.711 151.429 79.6652C151.412 79.6194 151.403 79.5702 151.403 79.5206V22.4653C151.403 22.365 151.439 22.2689 151.502 22.1981C151.566 22.1272 151.652 22.0874 151.742 22.0874C151.831 22.0874 151.917 22.1272 151.981 22.1981C152.044 22.2689 152.08 22.365 152.08 22.4653V79.5206C152.08 79.5702 152.071 79.6194 152.054 79.6652C152.037 79.711 152.012 79.7527 151.981 79.7878C151.949 79.8229 151.912 79.8507 151.871 79.8697C151.83 79.8887 151.786 79.8985 151.742 79.8984Z" fill="#2EA0E1"/>
<path d="M181.333 79.8984C181.289 79.8985 181.245 79.8887 181.203 79.8697C181.162 79.8507 181.125 79.8229 181.094 79.7878C181.062 79.7527 181.037 79.711 181.02 79.6652C181.003 79.6194 180.995 79.5702 180.995 79.5206V22.4653C180.995 22.365 181.03 22.2689 181.094 22.1981C181.157 22.1272 181.243 22.0874 181.333 22.0874C181.423 22.0874 181.509 22.1272 181.572 22.1981C181.636 22.2689 181.671 22.365 181.671 22.4653V79.5206C181.671 79.5702 181.663 79.6194 181.646 79.6652C181.629 79.711 181.604 79.7527 181.572 79.7878C181.541 79.8229 181.504 79.8507 181.463 79.8697C181.421 79.8887 181.377 79.8985 181.333 79.8984Z" fill="#2EA0E1"/>
<path d="M89.9232 30.9676C89.9232 30.9179 89.932 30.8688 89.949 30.823C89.966 30.7771 89.9909 30.7355 90.0223 30.7004C90.0538 30.6653 90.0911 30.6374 90.1321 30.6185C90.1732 30.5995 90.2172 30.5897 90.2616 30.5897H211.601C211.645 30.5897 211.689 30.5995 211.73 30.6185C211.771 30.6375 211.809 30.6653 211.84 30.7004C211.872 30.7355 211.897 30.7771 211.914 30.823C211.931 30.8688 211.939 30.918 211.939 30.9676C211.939 31.0172 211.931 31.0663 211.914 31.1122C211.897 31.158 211.872 31.1997 211.84 31.2348C211.809 31.2698 211.771 31.2977 211.73 31.3167C211.689 31.3357 211.645 31.3454 211.601 31.3454H90.2616C90.2172 31.3454 90.1732 31.3357 90.1321 31.3167C90.0911 31.2977 90.0538 31.2699 90.0223 31.2348C89.9909 31.1997 89.966 31.158 89.949 31.1122C89.932 31.0663 89.9232 31.0172 89.9232 30.9676Z" fill="#2EA0E1"/>
<path d="M89.9232 73.0209C89.9232 72.9713 89.932 72.9221 89.949 72.8763C89.966 72.8305 89.9909 72.7888 90.0223 72.7537C90.0538 72.7186 90.0911 72.6908 90.1321 72.6718C90.1732 72.6528 90.2172 72.6431 90.2616 72.6431H211.601C211.691 72.6431 211.777 72.6829 211.84 72.7537C211.904 72.8246 211.939 72.9207 211.939 73.0209C211.939 73.1211 211.904 73.2172 211.84 73.2881C211.777 73.3589 211.691 73.3988 211.601 73.3988H90.2616C90.2172 73.3988 90.1732 73.389 90.1321 73.37C90.0911 73.351 90.0538 73.3232 90.0223 73.2881C89.9909 73.253 89.966 73.2114 89.949 73.1655C89.932 73.1197 89.9232 73.0705 89.9232 73.0209Z" fill="#2EA0E1"/>
<path d="M89.9232 51.9942C89.9232 51.9446 89.932 51.8954 89.949 51.8496C89.966 51.8037 89.9909 51.7621 90.0223 51.727C90.0538 51.6919 90.0911 51.6641 90.1321 51.6451C90.1732 51.6261 90.2172 51.6163 90.2616 51.6163H211.601C211.691 51.6163 211.777 51.6561 211.84 51.727C211.904 51.7979 211.939 51.894 211.939 51.9942C211.939 52.0944 211.904 52.1905 211.84 52.2614C211.777 52.3322 211.691 52.372 211.601 52.372H90.2616C90.2172 52.372 90.1732 52.3623 90.1321 52.3433C90.0911 52.3243 90.0538 52.2965 90.0223 52.2614C89.9909 52.2263 89.966 52.1846 89.949 52.1388C89.932 52.0929 89.9232 52.0438 89.9232 51.9942Z" fill="#2EA0E1"/>
<path d="M209.981 79.8984C210.025 79.8985 210.069 79.8887 210.11 79.8697C210.151 79.8507 210.188 79.8229 210.22 79.7878C210.251 79.7527 210.276 79.711 210.293 79.6652C210.31 79.6194 210.319 79.5702 210.319 79.5206V22.4653C210.319 22.365 210.283 22.2689 210.22 22.1981C210.156 22.1272 210.07 22.0874 209.981 22.0874C209.891 22.0874 209.805 22.1272 209.741 22.1981C209.678 22.2689 209.642 22.365 209.642 22.4653V79.5206C209.642 79.5702 209.651 79.6194 209.668 79.6652C209.685 79.711 209.71 79.7527 209.741 79.7878C209.773 79.8229 209.81 79.8507 209.851 79.8697C209.892 79.8887 209.936 79.8985 209.981 79.8984Z" fill="#2EA0E1"/>
<path d="M111.016 49.4342H102.493C102.024 49.4338 101.572 49.2445 101.218 48.9012C100.864 48.5579 100.633 48.0835 100.567 47.5653C100.041 43.241 100.041 38.8571 100.567 34.5329C100.632 34.0209 100.858 33.5515 101.205 33.209C101.552 32.8665 101.997 32.6734 102.461 32.6643C105.142 31.3221 108.03 31.3223 111.046 32.6642C111.327 32.6683 111.603 32.7411 111.856 32.8773C112.109 33.0135 112.332 33.21 112.51 33.4528C112.696 33.7054 112.828 34.0009 112.898 34.3179C112.969 34.6349 112.975 34.9653 112.916 35.2853C112.232 39.0898 112.232 43.0084 112.916 46.8128C112.975 47.1328 112.969 47.4633 112.898 47.7803C112.828 48.0973 112.696 48.3928 112.51 48.6454C112.329 48.8925 112.101 49.0915 111.843 49.2279C111.585 49.3644 111.302 49.4348 111.016 49.4342Z" fill="#915BA4"/>
<path d="M110.124 37.6329H102.95C102.831 37.6329 102.717 37.5801 102.633 37.4862C102.549 37.3923 102.502 37.265 102.502 37.1322C102.502 36.9995 102.549 36.8721 102.633 36.7782C102.717 36.6843 102.831 36.6316 102.95 36.6316H110.124C110.243 36.6316 110.357 36.6843 110.441 36.7782C110.525 36.8721 110.572 36.9995 110.572 37.1322C110.572 37.265 110.525 37.3923 110.441 37.4862C110.357 37.5801 110.243 37.6329 110.124 37.6329Z" fill="white"/>
<path d="M110.124 41.638H102.95C102.831 41.638 102.717 41.5853 102.633 41.4914C102.549 41.3975 102.502 41.2701 102.502 41.1374C102.502 41.0046 102.549 40.8772 102.633 40.7834C102.717 40.6895 102.831 40.6367 102.95 40.6367H110.124C110.243 40.6367 110.357 40.6895 110.441 40.7834C110.525 40.8772 110.572 41.0046 110.572 41.1374C110.572 41.2701 110.525 41.3975 110.441 41.4914C110.357 41.5853 110.243 41.638 110.124 41.638Z" fill="white"/>
<path d="M110.124 45.6431H102.95C102.831 45.6431 102.717 45.5904 102.633 45.4965C102.549 45.4026 102.502 45.2753 102.502 45.1425C102.502 45.0097 102.549 44.8824 102.633 44.7885C102.717 44.6946 102.831 44.6418 102.95 44.6418H110.124C110.243 44.6418 110.357 44.6946 110.441 44.7885C110.525 44.8824 110.572 45.0097 110.572 45.1425C110.572 45.2753 110.525 45.4026 110.441 45.4965C110.357 45.5904 110.243 45.6431 110.124 45.6431Z" fill="white"/>
<path d="M172.292 71.4622H163.768C163.3 71.4618 162.847 71.2726 162.493 70.9293C162.139 70.586 161.908 70.1116 161.842 69.5933C161.316 65.2691 161.316 60.8852 161.842 56.561C161.907 56.0489 162.133 55.5795 162.481 55.2371C162.828 54.8946 163.273 54.7015 163.736 54.6924C166.417 53.3502 169.305 53.3504 172.321 54.6922C172.602 54.6964 172.878 54.7692 173.131 54.9054C173.384 55.0416 173.607 55.238 173.785 55.4808C173.971 55.7334 174.103 56.0289 174.174 56.3459C174.244 56.6629 174.25 56.9934 174.192 57.3134C173.507 61.1179 173.507 65.0364 174.192 68.8409C174.25 69.1609 174.244 69.4914 174.174 69.8084C174.103 70.1254 173.971 70.4209 173.785 70.6735C173.604 70.9206 173.376 71.1196 173.118 71.256C172.86 71.3925 172.577 71.4629 172.292 71.4622Z" fill="#915BA4"/>
<path d="M171.399 59.6609H164.225C164.106 59.6609 163.992 59.6082 163.908 59.5143C163.824 59.4204 163.777 59.2931 163.777 59.1603C163.777 59.0275 163.824 58.9002 163.908 58.8063C163.992 58.7124 164.106 58.6597 164.225 58.6597H171.399C171.518 58.6597 171.632 58.7124 171.716 58.8063C171.8 58.9002 171.847 59.0275 171.847 59.1603C171.847 59.2931 171.8 59.4204 171.716 59.5143C171.632 59.6082 171.518 59.6609 171.399 59.6609Z" fill="white"/>
<path d="M171.399 63.6659H164.225C164.106 63.6659 163.992 63.6132 163.908 63.5193C163.824 63.4254 163.777 63.2981 163.777 63.1653C163.777 63.0325 163.824 62.9052 163.908 62.8113C163.992 62.7174 164.106 62.6647 164.225 62.6647H171.399C171.518 62.6647 171.632 62.7174 171.716 62.8113C171.8 62.9052 171.847 63.0325 171.847 63.1653C171.847 63.2981 171.8 63.4254 171.716 63.5193C171.632 63.6132 171.518 63.6659 171.399 63.6659Z" fill="white"/>
<path d="M198.296 49.4342H189.773C189.304 49.4338 188.851 49.2445 188.497 48.9012C188.143 48.5579 187.912 48.0835 187.847 47.5653C187.32 43.241 187.32 38.8571 187.847 34.5329C187.912 34.0209 188.138 33.5515 188.485 33.209C188.832 32.8665 189.277 32.6734 189.74 32.6643C192.422 31.3221 195.31 31.3223 198.325 32.6642C198.606 32.6683 198.883 32.7411 199.136 32.8773C199.389 33.0135 199.612 33.21 199.79 33.4528C199.975 33.7054 200.108 34.0009 200.178 34.3179C200.248 34.6349 200.255 34.9653 200.196 35.2853C199.512 39.0898 199.512 43.0084 200.196 46.8128C200.255 47.1328 200.248 47.4633 200.178 47.7803C200.108 48.0973 199.975 48.3928 199.79 48.6454C199.609 48.8925 199.381 49.0915 199.123 49.2279C198.864 49.3644 198.582 49.4348 198.296 49.4342Z" fill="#FD6584"/>
<path d="M197.403 41.638H190.23C190.111 41.638 189.997 41.5853 189.913 41.4914C189.829 41.3975 189.781 41.2701 189.781 41.1374C189.781 41.0046 189.829 40.8772 189.913 40.7834C189.997 40.6895 190.111 40.6367 190.23 40.6367H197.403C197.522 40.6367 197.636 40.6895 197.72 40.7834C197.805 40.8772 197.852 41.0046 197.852 41.1374C197.852 41.2701 197.805 41.3975 197.72 41.4914C197.636 41.5853 197.522 41.638 197.403 41.638Z" fill="white"/>
<path d="M197.403 45.6431H190.23C190.111 45.6431 189.997 45.5904 189.913 45.4965C189.829 45.4026 189.781 45.2753 189.781 45.1425C189.781 45.0097 189.829 44.8824 189.913 44.7885C189.997 44.6946 190.111 44.6418 190.23 44.6418H197.403C197.522 44.6418 197.636 44.6946 197.72 44.7885C197.805 44.8824 197.852 45.0097 197.852 45.1425C197.852 45.2753 197.805 45.4026 197.72 45.4965C197.636 45.5904 197.522 45.6431 197.403 45.6431Z" fill="white"/>
<path d="M54.4291 47.9611C52.7333 45.0595 49.9645 42.7792 46.881 42.5865C43.7974 42.3939 40.0916 45.326 38.5697 48.343C35.7859 53.8618 35.7494 60.1904 39.5836 64.0287C40.1043 63.8315 42.2701 63.5488 42.7995 63.3584L43.1352 62.6816L43.5493 63.0931C48.2877 63.621 49.7463 60.0237 57.3281 57.7555C56.8848 54.3247 56.1249 50.8627 54.4291 47.9611Z" fill="#005173"/>
<path d="M47.9201 61.628C51.3807 61.628 54.1861 58.4955 54.1861 54.6313C54.1861 50.7671 51.3807 47.6345 47.9201 47.6345C44.4594 47.6345 41.654 50.7671 41.654 54.6313C41.654 58.4955 44.4594 61.628 47.9201 61.628Z" fill="#FFB7B7"/>
<path d="M54.8633 67.6314L51.2776 65.2291L44.1061 64.4283L37.7676 68.0324L37.8311 79.0424L41.8522 90.4616L57.5178 94.0669L59.3454 84.0314C59.3454 84.0314 64.0069 77.0404 58.9869 73.0366L54.8633 67.6314Z" fill="#915BA4"/>
<path d="M50.2628 44.0053C48.9051 43.5803 47.47 43.5704 46.1077 43.9766C44.7453 44.3828 43.5057 45.1903 42.5185 46.3145C41.5313 47.4388 40.8327 48.8385 40.4958 50.3675C40.1589 51.8964 40.196 53.4983 40.6033 55.0057C44.4196 55.3458 48.1919 54.9479 51.1656 51.933L51.4302 49.3468L52.5152 51.511C53.6095 51.1673 54.7056 50.8214 55.8033 50.4733C55.4676 48.9481 54.7791 47.5479 53.8068 46.4129C52.8346 45.2779 51.6125 44.4477 50.2628 44.0053Z" fill="#005173"/>
<path d="M39.5143 115.169C39.1736 114.934 38.883 114.619 38.6631 114.246C38.4431 113.873 38.2992 113.45 38.2413 113.008C38.1834 112.566 38.2131 112.115 38.3282 111.687C38.4433 111.259 38.641 110.865 38.9074 110.531L36.5951 82.8137L42.53 83.3256L42.9367 110.41C43.4086 110.947 43.6878 111.658 43.7213 112.41C43.7547 113.161 43.5402 113.9 43.1184 114.487C42.6965 115.073 42.0966 115.467 41.4324 115.592C40.7681 115.718 40.0857 115.567 39.5143 115.169Z" fill="#FFB6B6"/>
<path d="M37.9874 68.1429C37.9874 68.1429 36.5566 67.9091 36.7224 71.325C36.855 74.0597 36.2245 90.9155 37.302 94.5224C36.8956 94.8019 36.584 95.2244 36.4163 95.7234C36.2487 96.2224 36.2345 96.7695 36.3759 97.2785L43.2981 95.6311C44.1045 94.0834 43.9374 92.4943 43.3513 92.2367L43.3857 87.2904L44.9156 70.9861L39.0243 68.2914L37.9874 68.1429Z" fill="#915BA4"/>
<path d="M73.3654 117.733C73.18 117.481 73.0474 117.185 72.9771 116.868C72.9068 116.551 72.9006 116.221 72.959 115.901C73.6437 112.096 73.6437 108.178 72.959 104.373C72.9006 104.053 72.9068 103.723 72.9771 103.406C73.0474 103.089 73.18 102.793 73.3654 102.541C73.5431 102.298 73.7664 102.101 74.0193 101.965C74.2723 101.829 74.549 101.756 74.8298 101.752C77.8454 100.41 80.7333 100.41 83.415 101.752C83.878 101.761 84.3231 101.954 84.6701 102.297C85.0172 102.639 85.2436 103.109 85.3086 103.621C85.8349 107.945 85.8349 112.329 85.3086 116.653C85.2428 117.171 85.0117 117.646 84.6579 117.989C84.304 118.332 83.8511 118.522 83.3823 118.522H74.8591C74.5733 118.523 74.291 118.452 74.0326 118.316C73.7742 118.179 73.5463 117.98 73.3654 117.733Z" fill="#915BA4"/>
<path d="M75.7518 106.721H82.9254C83.0444 106.721 83.1584 106.668 83.2425 106.574C83.3266 106.48 83.3738 106.353 83.3738 106.22C83.3738 106.087 83.3266 105.96 83.2425 105.866C83.1584 105.772 83.0444 105.719 82.9254 105.719H75.7518C75.6329 105.719 75.5188 105.772 75.4347 105.866C75.3507 105.96 75.3034 106.087 75.3034 106.22C75.3034 106.353 75.3507 106.48 75.4347 106.574C75.5188 106.668 75.6329 106.721 75.7518 106.721Z" fill="white"/>
<path d="M75.7518 110.726H82.9254C83.0444 110.726 83.1584 110.673 83.2425 110.579C83.3266 110.485 83.3738 110.358 83.3738 110.225C83.3738 110.092 83.3266 109.965 83.2425 109.871C83.1584 109.777 83.0444 109.724 82.9254 109.724H75.7518C75.6329 109.724 75.5188 109.777 75.4347 109.871C75.3507 109.965 75.3034 110.092 75.3034 110.225C75.3034 110.358 75.3507 110.485 75.4347 110.579C75.5188 110.673 75.6329 110.726 75.7518 110.726Z" fill="white"/>
<path d="M75.7518 114.731H82.9254C83.0444 114.731 83.1584 114.678 83.2425 114.584C83.3266 114.49 83.3738 114.363 83.3738 114.23C83.3738 114.097 83.3266 113.97 83.2425 113.876C83.1584 113.782 83.0444 113.73 82.9254 113.73H75.7518C75.6329 113.73 75.5188 113.782 75.4347 113.876C75.3507 113.97 75.3034 114.097 75.3034 114.23C75.3034 114.363 75.3507 114.49 75.4347 114.584C75.5188 114.678 75.6329 114.731 75.7518 114.731Z" fill="white"/>
<path d="M272.926 194.426H269.249L267.501 178.592L272.926 178.592L272.926 194.426Z" fill="#FFB6B6"/>
<path d="M273.863 198.405L262.009 198.405V198.237C262.009 196.871 262.496 195.561 263.361 194.594C264.226 193.628 265.4 193.086 266.623 193.085L268.789 191.251L272.829 193.086L273.864 193.086L273.863 198.405Z" fill="#005173"/>
<path d="M255.846 194.426H252.17L250.421 178.592L255.847 178.592L255.846 194.426Z" fill="#FFB6B6"/>
<path d="M256.784 198.405L244.93 198.405V198.237C244.93 196.871 245.416 195.561 246.281 194.594C247.147 193.628 248.32 193.086 249.544 193.085H249.544L251.709 191.251L255.749 193.086L256.784 193.086L256.784 198.405Z" fill="#005173"/>
<path d="M275.852 93.0535L270.992 109.74L255.671 109.18L260.379 93.0535H275.852Z" fill="#005173"/>
<path d="M252.908 107.777L281.792 108.619L281.29 124.324C281.29 124.324 281.792 128.531 280.787 129.653C279.783 130.775 279.28 130.775 279.783 132.738C280.285 134.701 277.631 137.907 277.953 138.267C278.276 138.627 279.029 140.591 279.029 140.591L276.517 156.577C276.517 156.577 274.759 184.342 274.257 184.903C273.755 185.463 273.252 184.903 273.755 186.305C274.257 187.707 274.759 187.146 274.257 187.707C273.812 188.243 273.393 188.805 273.001 189.39H266.929C266.929 189.39 266.471 186.585 266.471 186.305C266.471 186.024 265.968 184.342 265.968 184.061C265.968 183.781 266.412 183.285 266.412 183.285C266.566 182.715 266.669 182.129 266.722 181.537C266.722 180.976 268.229 159.381 268.229 159.381L265.215 131.336L257.931 158.82C257.931 158.82 257.931 182.939 257.429 183.5C256.926 184.061 256.926 183.781 257.178 184.903C257.429 186.024 258.433 185.744 257.68 186.585C256.926 187.427 256.675 186.024 256.926 187.427L257.178 188.829L249.643 188.949C249.643 188.949 248.638 186.585 249.14 185.744C249.643 184.903 249.612 185.132 249 183.755C248.387 182.378 248.135 182.098 248.387 181.818C248.638 181.537 248.638 180.045 248.638 180.045L249.894 153.211C249.894 153.211 250.145 124.885 250.145 124.044C250.164 123.611 250.092 123.179 249.936 122.782V121.64L250.898 117.593L252.908 107.777Z" fill="#005173"/>
<path d="M255.545 66.971L264.336 63.3251L278.904 64.4469L282.277 66.2046C283.463 66.8228 284.429 67.8684 285.019 69.1735C285.609 70.4786 285.789 71.9672 285.53 73.4002L281.164 97.5407L282.293 109.156C282.293 109.156 263.959 124.605 249.642 119.837C249.642 119.837 249.894 115.35 250.145 113.667C250.396 111.984 250.898 111.984 251.149 111.143C251.401 110.301 251.903 111.143 251.401 109.46C250.898 107.777 255.419 95.9982 255.419 95.9982L255.545 66.971Z" fill="#2EA0E1"/>
<path d="M269.44 69.1048L276.606 64.27L274.257 59.5389H266.644L263.628 63.6185L269.44 69.1048Z" fill="#2EA0E1"/>
<path d="M271.906 108.857C272.315 108.883 272.725 108.809 273.106 108.64C273.486 108.47 273.829 108.21 274.11 107.876C274.391 107.543 274.603 107.144 274.731 106.709C274.86 106.275 274.901 105.814 274.852 105.359L283.814 100.489L279.358 97.5408L271.531 102.618C270.852 102.759 270.244 103.174 269.821 103.784C269.398 104.393 269.19 105.154 269.236 105.923C269.283 106.692 269.58 107.416 270.072 107.957C270.564 108.497 271.216 108.818 271.906 108.857Z" fill="#FFB6B6"/>
<path d="M275.427 106.835L273.865 100.442L282.374 87.8549C279.62 84.1471 278.653 78.6721 279.333 70.644C279.183 69.7782 279.332 68.8809 279.751 68.1331C280.17 67.3853 280.827 66.8428 281.59 66.615C282.353 66.3872 283.165 66.4911 283.862 66.9057C284.559 67.3204 285.09 68.0148 285.346 68.849C287.272 75.1195 290.621 88.6141 290.185 89.345C289.683 90.1866 289.51 90.5603 290.3 91.3642C291.238 92.3174 290.74 96.3798 290.313 96.9626C289.923 97.4937 275.427 106.835 275.427 106.835Z" fill="#2EA0E1"/>
<path d="M230.379 98.9274C230.761 99.0928 231.171 99.1625 231.58 99.1316C231.989 99.1008 232.388 98.9702 232.747 98.749C233.106 98.5278 233.417 98.2214 233.658 97.8513C233.9 97.4813 234.066 97.0567 234.144 96.6073L244.012 95.0422L240.581 90.7098L231.736 92.8603C231.051 92.7629 230.358 92.9494 229.789 93.3844C229.219 93.8194 228.811 94.4727 228.644 95.2206C228.477 95.9684 228.561 96.7588 228.881 97.442C229.2 98.1252 229.733 98.6537 230.379 98.9274Z" fill="#FFB6B6"/>
<path d="M234.613 98.0062L236.111 91.5943L248.517 83.79C249.413 77.4486 249.976 75.381 254.146 68.7981C254.402 67.9636 254.932 67.2686 255.629 66.8532C256.326 66.4378 257.137 66.333 257.901 66.5599C258.664 66.7869 259.322 67.3287 259.741 68.076C260.161 68.8233 260.311 69.7204 260.161 70.5864C259.033 77.0946 253.93 94.5365 253.299 94.804C252.724 95.0478 234.613 98.0062 234.613 98.0062Z" fill="#2EA0E1"/>
<path d="M270.364 56.5941C274.664 56.5941 278.15 52.7016 278.15 47.8999C278.15 43.0983 274.664 39.2058 270.364 39.2058C266.064 39.2058 262.578 43.0983 262.578 47.8999C262.578 52.7016 266.064 56.5941 270.364 56.5941Z" fill="#FFB6B6"/>
<path d="M262.119 41.5929C262.325 39.5136 265.015 37.4342 269.774 36.048C274.533 34.6618 277.016 40.6687 277.016 40.6687C280.326 42.517 278.361 52.336 277.326 51.4118C277.316 51.4026 277.306 51.3936 277.295 51.3848C276.621 50.83 276.054 50.1275 275.631 49.3201C275.208 48.5127 274.936 47.6173 274.833 46.6888L274.595 44.296C273.505 45.2285 272.277 46.0181 270.958 45.7834L272.572 44.0093C271.043 44.7524 269.513 45.4954 267.984 46.2384L269.503 43.9048L269.431 43.8259C268.72 44.4954 267.904 45.0115 267.024 45.3479C266.02 45.669 264.818 45.4953 264.13 44.6181C263.945 44.376 263.805 44.095 263.719 43.7915C262.47 44.7465 262.222 46.7912 262.222 46.7912C262.222 46.7912 261.912 43.6722 262.119 41.5929Z" fill="#005173"/>
<path d="M230.877 104.574H222.353C221.885 104.573 221.432 104.384 221.078 104.041C220.724 103.697 220.493 103.223 220.427 102.705C219.901 98.3805 219.901 93.9967 220.427 89.6724C220.492 89.1604 220.718 88.691 221.065 88.3485C221.413 88.0061 221.858 87.8129 222.321 87.8039C225.002 86.4616 227.89 86.4618 230.906 87.8037C231.187 87.8079 231.463 87.8806 231.716 88.0168C231.969 88.1531 232.192 88.3495 232.37 88.5923C232.556 88.8449 232.688 89.1404 232.759 89.4574C232.829 89.7744 232.835 90.1049 232.777 90.4249C232.092 94.2293 232.092 98.1479 232.777 101.952C232.835 102.272 232.829 102.603 232.759 102.92C232.688 103.237 232.556 103.532 232.37 103.785C232.189 104.032 231.961 104.231 231.703 104.367C231.445 104.504 231.162 104.574 230.877 104.574Z" fill="#3F3D56"/>
<path d="M229.984 92.7724H222.81C222.691 92.7724 222.577 92.7196 222.493 92.6258C222.409 92.5319 222.362 92.4045 222.362 92.2718C222.362 92.139 222.409 92.0116 222.493 91.9177C222.577 91.8239 222.691 91.7711 222.81 91.7711H229.984C230.103 91.7711 230.217 91.8239 230.301 91.9177C230.385 92.0116 230.432 92.139 230.432 92.2718C230.432 92.4045 230.385 92.5319 230.301 92.6258C230.217 92.7196 230.103 92.7724 229.984 92.7724Z" fill="white"/>
<path d="M229.984 96.7775H222.81C222.691 96.7775 222.577 96.7248 222.493 96.6309C222.409 96.537 222.362 96.4097 222.362 96.2769C222.362 96.1441 222.409 96.0168 222.493 95.9229C222.577 95.829 222.691 95.7762 222.81 95.7762H229.984C230.103 95.7762 230.217 95.829 230.301 95.9229C230.385 96.0168 230.432 96.1441 230.432 96.2769C230.432 96.4097 230.385 96.537 230.301 96.6309C230.217 96.7248 230.103 96.7775 229.984 96.7775Z" fill="white"/>
<path d="M229.984 100.783H222.81C222.691 100.783 222.577 100.73 222.493 100.636C222.409 100.542 222.362 100.415 222.362 100.282C222.362 100.149 222.409 100.022 222.493 99.928C222.577 99.8341 222.691 99.7814 222.81 99.7814H229.984C230.103 99.7814 230.217 99.8341 230.301 99.928C230.385 100.022 230.432 100.149 230.432 100.282C230.432 100.415 230.385 100.542 230.301 100.636C230.217 100.73 230.103 100.783 229.984 100.783Z" fill="white"/>
<path d="M194.415 24.3116C197.552 24.3116 200.094 21.4725 200.094 17.9702C200.094 14.468 197.552 11.6288 194.415 11.6288C191.279 11.6288 188.736 14.468 188.736 17.9702C188.736 21.4725 191.279 24.3116 194.415 24.3116Z" fill="#2EA0E1"/>
<path d="M197.331 15.3273C197.245 15.2363 197.132 15.1855 197.014 15.1855C196.896 15.1855 196.782 15.2363 196.697 15.3273C195.492 16.4005 194.409 17.6349 193.474 19.0029C193.244 18.5068 193.015 18.0107 192.785 17.5146C192.52 16.942 191.746 17.4479 192.011 18.02C192.347 18.7456 192.682 19.4713 193.018 20.1969C193.059 20.271 193.116 20.3322 193.184 20.3746C193.251 20.4171 193.328 20.4394 193.405 20.4394C193.483 20.4394 193.56 20.4171 193.627 20.3746C193.695 20.3322 193.752 20.271 193.793 20.1969C194.789 18.6294 195.981 17.2282 197.331 16.0353C197.414 15.9411 197.461 15.8139 197.461 15.6813C197.461 15.5488 197.414 15.4216 197.331 15.3273Z" fill="white"/>
<path d="M166.617 24.3116C169.754 24.3116 172.297 21.4725 172.297 17.9702C172.297 14.468 169.754 11.6288 166.617 11.6288C163.481 11.6288 160.938 14.468 160.938 17.9702C160.938 21.4725 163.481 24.3116 166.617 24.3116Z" fill="#2EA0E1"/>
<path d="M169.533 15.3273C169.447 15.2363 169.334 15.1855 169.216 15.1855C169.098 15.1855 168.984 15.2363 168.899 15.3273C167.694 16.4005 166.611 17.6349 165.676 19.0029C165.446 18.5068 165.217 18.0107 164.987 17.5146C164.722 16.942 163.948 17.4479 164.213 18.02C164.549 18.7456 164.885 19.4713 165.22 20.1969C165.261 20.271 165.318 20.3322 165.386 20.3746C165.453 20.4171 165.53 20.4394 165.608 20.4394C165.685 20.4394 165.762 20.4171 165.829 20.3746C165.897 20.3322 165.954 20.271 165.995 20.1969C166.991 18.6294 168.183 17.2282 169.533 16.0353C169.616 15.9411 169.663 15.8139 169.663 15.6813C169.663 15.5488 169.616 15.4216 169.533 15.3273Z" fill="white"/>
<path d="M108.032 23.6441C111.169 23.6441 113.712 20.8049 113.712 17.3027C113.712 13.8004 111.169 10.9613 108.032 10.9613C104.896 10.9613 102.353 13.8004 102.353 17.3027C102.353 20.8049 104.896 23.6441 108.032 23.6441Z" fill="#2EA0E1"/>
<path d="M110.948 14.6598C110.862 14.5688 110.749 14.5181 110.631 14.5181C110.513 14.5181 110.399 14.5688 110.314 14.6598C109.109 15.733 108.026 16.9674 107.091 18.3355C106.861 17.8394 106.632 17.3433 106.402 16.8472C106.137 16.2745 105.363 16.7804 105.628 17.3525C105.964 18.0781 106.3 18.8038 106.635 19.5294C106.676 19.6035 106.733 19.6647 106.801 19.7072C106.868 19.7496 106.945 19.7719 107.023 19.7719C107.1 19.7719 107.177 19.7496 107.244 19.7072C107.312 19.6647 107.369 19.6035 107.41 19.5294C108.406 17.9619 109.598 16.5607 110.948 15.3679C111.031 15.2736 111.078 15.1464 111.078 15.0138C111.078 14.8813 111.031 14.7541 110.948 14.6598Z" fill="white"/>
<path d="M40.1814 49.6772C42.3274 49.6772 44.0671 47.7346 44.0671 45.3384C44.0671 42.9421 42.3274 40.9995 40.1814 40.9995C38.0353 40.9995 36.2956 42.9421 36.2956 45.3384C36.2956 47.7346 38.0353 49.6772 40.1814 49.6772Z" fill="#005173"/>
<path d="M84.4909 198.286C84.491 198.338 84.4819 198.39 84.4641 198.438C84.4463 198.486 84.4201 198.53 84.387 198.567C84.354 198.604 84.3147 198.633 84.2715 198.653C84.2282 198.673 84.1819 198.683 84.1352 198.683H0.355695C0.261359 198.683 0.170886 198.641 0.10418 198.567C0.0374744 198.492 0 198.391 0 198.286C0 198.181 0.0374744 198.079 0.10418 198.005C0.170886 197.931 0.261359 197.889 0.355695 197.889H84.1352C84.1819 197.889 84.2283 197.899 84.2715 197.919C84.3147 197.939 84.354 197.968 84.387 198.005C84.4201 198.042 84.4463 198.085 84.4641 198.134C84.4819 198.182 84.491 198.234 84.4909 198.286Z" fill="#CCCCCC"/>
<path d="M300 198.286C300 198.338 299.991 198.39 299.973 198.438C299.955 198.486 299.929 198.53 299.896 198.567C299.863 198.604 299.824 198.633 299.781 198.653C299.737 198.673 299.691 198.683 299.644 198.683H215.865C215.77 198.683 215.68 198.641 215.613 198.567C215.547 198.492 215.509 198.391 215.509 198.286C215.509 198.181 215.547 198.079 215.613 198.005C215.68 197.931 215.77 197.889 215.865 197.889H299.644C299.691 197.889 299.737 197.899 299.781 197.919C299.824 197.939 299.863 197.968 299.896 198.005C299.929 198.042 299.955 198.085 299.973 198.134C299.991 198.182 300 198.234 300 198.286Z" fill="#CCCCCC"/>
<path d="M39.0111 40.9864C38.3385 40.7775 37.6389 41.1273 37.0112 41.4685L34.7782 42.6819C36.3241 42.8333 37.87 42.9848 39.4159 43.1362L39.5867 42.7773C40.1218 42.2765 39.6837 41.1953 39.0111 40.9864Z" fill="#005173"/>
</g>
<defs>
<clipPath id="clip0_104_527">
<rect width="300" height="198.683" fill="white"/>
</clipPath>
</defs>
</svg>
